<?xml version="1.0" encoding="utf-8"?>
<!-- Generator: Adobe Illustrator 16.0.0, SVG Export Plug-In . SVG Version: 6.00 Build 0)  -->
<!DOCTYPE svg PUBLIC "-//W3C//DTD SVG 1.1//EN" "http://www.w3.org/Graphics/SVG/1.1/DTD/svg11.dtd">
<svg version="1.1" id="Layer_1" xmlns="http://www.w3.org/2000/svg" xmlns:xlink="http://www.w3.org/1999/xlink" x="0px" y="0px"
	 width="500px" height="500px" viewBox="0 0 500 500" enable-background="new 0 0 500 500" xml:space="preserve">
<g>
	<path d="M54.335,29l22.166,60.938h-8.379l-7.846-21.557H44.128l-7.808,21.557h-8.417L50.07,29H54.335z M57.42,60.497l-5.218-14.282
		l-5.18,14.282H57.42z"/>
	<path d="M112.114,29c3.529,0,6.551,1.251,9.064,3.751c2.514,2.501,3.771,5.517,3.771,9.045c0,3.631-1.828,5.878-5.484,6.741
		c2.641,0.381,5.643,2.26,9.007,5.637c3.364,3.377,5.046,8.049,5.046,14.016c0,5.967-2.095,11.121-6.284,15.463
		c-3.936,4.088-7.884,6.157-11.845,6.208v0.076H99.774V29H112.114z M107.658,36.884v9.636h5.142
		c1.167-0.101,2.171-0.546,3.009-1.333c0.914-0.838,1.371-1.967,1.371-3.39c0-1.422-0.476-2.596-1.428-3.523
		c-0.952-0.927-2.165-1.39-3.637-1.39H107.658z M107.658,54.632v27.384h7.731v-0.114c1.625-0.101,3.643-1.409,6.056-3.923
		c2.666-2.742,3.999-6.004,3.999-9.788c0-3.732-1.327-6.925-3.98-9.579c-2.653-2.653-5.846-3.98-9.579-3.98H107.658z"/>
	<path d="M205.465,75.427l5.903,5.294c-7.211,6.576-14.841,9.864-22.89,9.864c-8.607,0-15.945-3.034-22.014-9.103
		c-6.069-6.068-9.103-13.406-9.103-22.014c0-8.582,3.034-15.92,9.103-22.014c6.068-6.094,13.406-9.141,22.014-9.141
		c8.049,0,15.678,3.289,22.89,9.864l-5.903,5.37c-5.434-4.824-11.096-7.236-16.986-7.236c-6.374,0-11.826,2.26-16.358,6.779
		c-4.532,4.52-6.798,9.979-6.798,16.377c0,6.424,2.266,11.896,6.798,16.415c4.532,4.52,9.984,6.779,16.358,6.779
		C194.369,82.663,200.031,80.251,205.465,75.427z"/>
	<path d="M242.296,29c9.903,0.051,17.621,2.856,23.157,8.417c6.068,6.119,9.102,13.47,9.102,22.052
		c0,8.607-3.033,15.958-9.102,22.052c-5.536,5.561-13.254,8.366-23.157,8.417h-5.789V29H242.296z M244.391,37.036v44.903
		c6.271,0,11.413-2.019,15.425-6.056c4.519-4.519,6.779-9.991,6.779-16.415c0-6.398-2.261-11.87-6.779-16.415
		C255.804,39.042,250.662,37.036,244.391,37.036z"/>
	<path d="M332.6,29v7.884h-24.945v18.624H332.6v7.884h-24.945v18.624H332.6v7.922h-32.829V29H332.6z"/>
	<path d="M388.057,29v7.884h-21.443v18.624h21.443v7.884h-21.443v26.546h-7.883V29H388.057z"/>
	<path d="M465.867,81.597c-6.271,5.993-13.443,8.988-21.518,8.988c-8.607,0-15.945-3.034-22.014-9.103
		c-6.068-6.068-9.104-13.406-9.104-22.014c0-8.582,3.035-15.92,9.104-22.014s13.406-9.141,22.014-9.141
		c8.049,0,15.678,3.289,22.889,9.864l-5.902,5.37c-5.434-4.824-11.096-7.236-16.986-7.236c-6.373,0-11.826,2.26-16.357,6.779
		c-4.533,4.52-6.799,9.979-6.799,16.377c0,6.424,2.266,11.896,6.799,16.415c4.531,4.52,9.984,6.779,16.357,6.779
		c5.484,0,10.029-1.447,13.635-4.342V59.926h7.883V81.597z"/>
	<path d="M39.596,158.325v25.213h-7.884V122.6h7.884v27.841h18.814V122.6h7.884v60.938h-7.884v-25.213H39.596z"/>
	<path d="M109.366,122.6v60.938h-7.884V122.6H109.366z"/>
	<path d="M168.623,170.474c0,4.215-1.156,7.49-3.466,9.826c-2.463,2.489-5.446,3.732-8.95,3.732c-3.479,0-6.443-1.238-8.893-3.713
		c-2.451-2.476-3.675-5.77-3.675-9.883l6.246-2.438c0.71,3.86,1.612,6.233,2.704,7.122c0.813,0.686,1.904,1.028,3.275,1.028h0.152
		c1.447-0.025,2.641-0.495,3.58-1.409c0.762-0.787,1.143-2.323,1.143-4.608V122.6h7.884V170.474z"/>
	<path d="M211.161,154.783v28.755h-7.884V122.6h7.884v19.195l14.396-19.195h9.979l-18.7,25.061l23.271,35.877h-9.56l-18.853-29.402
		L211.161,154.783z"/>
	<path d="M272.209,183.538V122.6h7.884v53.016h21.785v7.922H272.209z"/>
	<path d="M343.082,122.6l19.768,34.163l19.689-34.163h7.199v60.938h-7.885V139.51l-19.004,32.906l-19.082-32.906v44.027h-7.883
		V122.6H343.082z"/>
	<path d="M426.029,122.6h7.199l25.137,43.494V122.6h7.922v60.938h-6.895l-25.479-44.027v44.027h-7.885V122.6z"/>
	<path d="M84.004,224.541c6.094,6.094,9.141,13.444,9.141,22.052s-3.047,15.958-9.141,22.052s-13.444,9.141-22.052,9.141
		s-15.958-3.047-22.052-9.141S30.76,255.2,30.76,246.593s3.047-15.958,9.141-22.052s13.444-9.141,22.052-9.141
		S77.911,218.447,84.004,224.541z M61.953,223.36c-6.424,0-11.902,2.266-16.434,6.798s-6.798,10.011-6.798,16.434
		c0,6.424,2.272,11.908,6.817,16.453c4.545,4.546,10.017,6.817,16.415,6.817c6.423,0,11.902-2.271,16.434-6.817
		c4.532-4.545,6.798-10.029,6.798-16.453c0-6.423-2.266-11.902-6.798-16.434S68.376,223.36,61.953,223.36z"/>
	<path d="M137.906,257.638v19.5h-7.884V216.2h17.291c4.9,0.661,9.039,2.679,12.416,6.056c4.037,4.063,6.056,8.938,6.056,14.625
		c0,5.738-2.019,10.632-6.056,14.682c-4.037,4.051-8.912,6.075-14.625,6.075H137.906z M137.906,224.122v25.594h7.198
		c3.504,0,6.506-1.25,9.007-3.751c2.5-2.5,3.751-5.528,3.751-9.083c0-3.529-1.251-6.538-3.751-9.026
		c-2.501-2.488-5.503-3.732-9.007-3.732H137.906z"/>
	<path d="M243.262,275.043c0.584,0.355,1.193,0.762,1.828,1.219c1.777,0.939,2.983,1.51,3.618,1.714
		c0.279,0.076,0.546,0.114,0.8,0.114c0.432,0,0.863-0.127,1.295-0.381c0.66-0.381,1.091-0.939,1.294-1.676
		c0.076-0.229,0.166-1.168,0.268-2.818h7.959c-0.178,2.488-0.381,4.139-0.609,4.951c-0.813,2.818-2.5,4.938-5.064,6.36
		c-1.625,0.938-3.327,1.409-5.104,1.409c-0.99,0-1.98-0.14-2.971-0.419c-1.625-0.433-3.796-1.523-6.513-3.275
		c-2.184-1.143-3.694-1.841-4.532-2.095c-0.482-0.127-0.939-0.19-1.371-0.19c-0.762,0-1.499,0.203-2.209,0.609
		c-1.168,0.66-1.93,1.65-2.285,2.971c-0.051,0.127-0.14,0.965-0.267,2.514h-7.96c0.203-2.413,0.406-3.986,0.609-4.723
		c0.432-1.549,1.091-2.92,1.98-4.113c-5.993-1.143-11.273-3.999-15.844-8.569c-6.094-6.094-9.141-13.444-9.141-22.052
		s3.047-15.958,9.141-22.052s13.444-9.141,22.052-9.141s15.958,3.047,22.052,9.141c6.094,6.094,9.141,13.444,9.141,22.052
		s-3.047,15.958-9.141,22.052C249.546,271.387,246.538,273.52,243.262,275.043z M230.237,223.36c-6.424,0-11.902,2.266-16.434,6.798
		s-6.798,10.011-6.798,16.434c0,6.424,2.272,11.908,6.817,16.453c4.545,4.546,10.017,6.817,16.415,6.817
		c6.423,0,11.902-2.271,16.434-6.817c4.532-4.545,6.798-10.029,6.798-16.453c0-6.423-2.266-11.902-6.798-16.434
		S236.66,223.36,230.237,223.36z"/>
	<path d="M313.389,257.638h-7.197v19.5h-7.885V216.2h17.291c4.9,0.661,9.039,2.679,12.416,6.056
		c4.037,4.063,6.057,8.938,6.057,14.625c0,5.738-2.02,10.639-6.057,14.701c-2.793,2.793-4.926,4.367-6.398,4.723l13.521,20.833
		h-9.561L313.389,257.638z M306.191,224.122v25.594h7.197c3.504,0,6.506-1.25,9.008-3.751c2.5-2.5,3.752-5.528,3.752-9.083
		c0-3.529-1.252-6.538-3.752-9.026c-2.502-2.488-5.504-3.732-9.008-3.732H306.191z"/>
	<path d="M384.771,245.869c-4.316-1.447-7.814-3.51-10.492-6.189c-2.68-2.679-4.018-5.999-4.018-9.959
		c0-3.885,1.391-7.223,4.17-10.017c2.781-2.793,6.15-4.189,10.111-4.189c3.91,0,7.262,1.384,10.055,4.151
		c1.574,1.523,2.895,3.948,3.961,7.274l-7.16,2.818c-0.863-2.336-1.65-3.859-2.361-4.57c-1.244-1.219-2.742-1.828-4.494-1.828
		c-1.777,0-3.287,0.616-4.531,1.847c-1.244,1.232-1.867,2.736-1.867,4.513c0,1.777,0.623,3.289,1.867,4.532
		c1.396,1.371,3.326,2.628,5.789,3.771c4.773,1.549,8.822,3.986,12.148,7.313c3.732,3.682,5.6,8.15,5.6,13.406
		s-1.861,9.744-5.58,13.463c-3.721,3.721-8.195,5.58-13.426,5.58c-5.256,0-9.736-1.866-13.443-5.599
		c-2.971-2.971-4.85-7.071-5.637-12.302l7.654-2.78c0.482,4.494,1.664,7.681,3.543,9.56c2.184,2.184,4.811,3.275,7.883,3.275
		s5.701-1.092,7.885-3.275s3.275-4.824,3.275-7.922c0-3.072-1.092-5.699-3.275-7.884
		C390.346,248.777,387.793,247.113,384.771,245.869z"/>
	<path d="M455.889,224.084v53.054h-7.922v-53.054h-14.205V216.2h36.334v7.884H455.889z"/>
	<path d="M65.228,309.8h7.922v42.923c-0.686,4.9-2.704,9.039-6.056,12.416c-4.063,4.063-8.95,6.094-14.663,6.094
		s-10.594-2.024-14.644-6.075c-4.05-4.049-6.075-8.931-6.075-14.644V309.8h7.922v40.714c0,3.504,1.25,6.507,3.751,9.007
		c2.5,2.502,5.516,3.752,9.045,3.752c3.555,0,6.576-1.244,9.064-3.732c2.488-2.488,3.732-5.497,3.732-9.026V309.8z"/>
	<path d="M126.023,370.737L103.896,309.8h8.379l15.882,43.685l15.92-43.685h8.417l-22.204,60.938H126.023z"/>
	<path d="M205.671,359.35V309.8h7.884v49.55c0.253,0.432,0.686,0.965,1.295,1.6c1.65,1.574,3.605,2.361,5.865,2.361
		c2.26,0,4.214-0.806,5.865-2.419c1.65-1.611,2.476-3.548,2.476-5.808V309.8h7.922v45.589c-0.102,4.291-1.689,7.973-4.761,11.045
		c-3.174,3.199-7.008,4.799-11.502,4.799c-4.469,0-8.164-1.574-11.083-4.723c-2.946,3.148-6.652,4.723-11.121,4.723
		c-4.494,0-8.316-1.6-11.464-4.799c-3.098-3.047-4.685-6.729-4.761-11.045V309.8h7.884v45.284c0,2.26,0.825,4.196,2.476,5.808
		c1.65,1.613,3.605,2.419,5.865,2.419c2.285,0,4.24-0.787,5.865-2.361C205.011,360.314,205.443,359.781,205.671,359.35z"/>
	<path d="M266.771,370.737l19.158-33.249L269.971,309.8h9.064l11.426,19.843l11.502-19.843h9.064l-16.033,27.688l19.232,33.249
		h-9.064l-14.701-25.403l-14.625,25.403H266.771z"/>
	<path d="M362.264,346.286L341.201,309.8h9.064l15.92,27.574l15.959-27.574h9.102l-21.1,36.486v24.451h-7.883V346.286z"/>
	<path d="M452.613,317.684h-28.869V309.8h42.504l-30.658,53.016h28.945v7.922h-42.543L452.613,317.684z"/>
	<path d="M40.187,455.388c1.079,1.066,1.619,2.361,1.619,3.885c0,1.574-0.54,2.895-1.619,3.961c-1.08,1.066-2.38,1.6-3.904,1.6
		c-1.499,0-2.793-0.533-3.885-1.6c-1.092-1.066-1.638-2.387-1.638-3.961c0-1.523,0.546-2.818,1.638-3.885
		c1.091-1.066,2.386-1.6,3.885-1.6C37.806,453.788,39.107,454.321,40.187,455.388z M40.167,403.4v43.608h-7.884V403.4H40.167z"/>
	<path d="M110.363,456.264c-4.165,0-7.726-1.231-10.683-3.694c-2.958-2.463-4.437-5.776-4.437-9.94
		c0-4.139,1.479-7.503,4.437-10.093c2.958-2.59,6.519-3.885,10.683-3.885c3.707,0,6.106,0.939,7.198,2.818v-1.98h7.579
		l-0.076,18.967v0.114c0,1.32,0.203,1.98,0.609,1.98c0.355,0,0.863-0.457,1.523-1.371c1.447-2.057,2.171-5.205,2.171-9.445
		s-1.606-7.96-4.818-11.159c-3.212-3.199-7.941-4.799-14.187-4.799c-6.221,0-10.925,1.6-14.111,4.799
		c-3.187,3.199-4.78,7.668-4.78,13.406s1.847,10.454,5.542,14.149c3.694,3.693,8.144,5.541,13.349,5.541
		c3.58,0,6.652-0.8,9.217-2.399l5.408,5.675c-4.9,2.869-9.775,4.304-14.625,4.304c-7.288,0-13.534-2.597-18.738-7.788
		c-5.205-5.192-7.808-11.445-7.808-18.758c0-7.287,2.603-13.526,7.808-18.719c5.205-5.192,11.451-7.789,18.738-7.789
		c7.337,0,13.59,2.603,18.757,7.808c5.167,5.205,7.75,10.486,7.75,15.844s-1.384,9.699-4.151,13.025
		c-2.285,2.717-4.812,4.075-7.579,4.075c-0.609,0-1.232-0.076-1.866-0.229c-3.529-0.736-5.434-1.93-5.713-3.58
		C116.215,455.223,113.815,456.264,110.363,456.264z M117.637,444.724v-4.113c-0.254-1.143-0.889-2.222-1.904-3.237
		c-1.473-1.473-3.237-2.209-5.294-2.209s-3.809,0.736-5.256,2.209s-2.171,3.237-2.171,5.294c0,2.082,0.724,3.847,2.171,5.294
		s3.199,2.171,5.256,2.171c2.082,0,3.847-0.724,5.294-2.171C116.748,446.945,117.383,445.866,117.637,444.724z"/>
	<path d="M207.332,424.995h3.199l3.885-15.615h8.036l-3.885,15.615h15.653l-2.019,7.884h-15.615l-0.838,3.352h15.653l-2.019,7.884
		h-15.615l-3.885,15.653h-8.036l3.885-15.653h-3.199l-3.885,15.653h-8.074l3.923-15.653h-15.653l2.019-7.884h15.615l0.838-3.352
		h-15.653l2.019-7.884h15.615l3.885-15.615h8.036L207.332,424.995z M208.551,432.879h-3.199l-0.838,3.352h3.199L208.551,432.879z"/>
	<path d="M293.219,459.882v4.456h-7.008v-4.456c-3.021-0.559-5.688-1.866-7.998-3.923c-2.514-2.234-4.127-5.472-4.837-9.712
		l8.074-2.59c0.432,3.707,1.308,6.145,2.628,7.313c0.66,0.584,1.371,1.054,2.133,1.409v-15.768c-2.92-1.092-5.574-2.691-7.96-4.799
		c-3.148-2.768-4.723-6.106-4.723-10.017s1.587-7.274,4.761-10.093c2.285-2.031,4.926-3.326,7.922-3.885V403.4h7.008v4.418
		c3.021,0.559,5.688,1.866,7.998,3.923c2.514,2.234,4.125,5.472,4.836,9.712l-8.073,2.59c-0.433-3.707-1.308-6.145-2.628-7.313
		c-0.66-0.584-1.371-1.054-2.133-1.409v15.768c2.92,1.092,5.573,2.691,7.96,4.799c3.147,2.768,4.722,6.106,4.722,10.017
		s-1.574,7.262-4.722,10.055C298.868,458.016,296.215,459.323,293.219,459.882z M286.211,428.309v-12.987
		c-0.736,0.33-1.422,0.774-2.057,1.333c-1.574,1.396-2.361,3.11-2.361,5.142c0,1.98,0.762,3.656,2.285,5.027
		C284.662,427.331,285.373,427.826,286.211,428.309z M293.219,439.392v12.987c0.736-0.33,1.434-0.787,2.095-1.371
		c1.548-1.371,2.323-3.072,2.323-5.104c0-1.98-0.762-3.656-2.285-5.027C294.768,440.369,294.057,439.874,293.219,439.392z"/>
	<path d="M361.338,419.986c2.043,2.045,3.066,4.514,3.066,7.408s-1.023,5.364-3.066,7.408c-2.045,2.044-4.514,3.065-7.408,3.065
		s-5.363-1.021-7.406-3.065c-2.045-2.044-3.066-4.514-3.066-7.408s1.021-5.363,3.066-7.408c2.043-2.043,4.512-3.065,7.406-3.065
		S359.293,417.943,361.338,419.986z M385.199,415.207l-34.963,49.931l-6.475-4.494l34.924-49.893L385.199,415.207z M353.93,424.729
		c-0.736,0-1.365,0.261-1.885,0.781c-0.521,0.521-0.781,1.148-0.781,1.885c0,0.762,0.26,1.403,0.781,1.924
		c0.52,0.521,1.148,0.78,1.885,0.78s1.371-0.26,1.904-0.78s0.801-1.162,0.801-1.924c0-0.736-0.268-1.364-0.801-1.885
		S354.666,424.729,353.93,424.729z M382.438,441.049c2.043,2.044,3.066,4.513,3.066,7.407c0,2.92-1.023,5.402-3.066,7.446
		c-2.045,2.044-4.525,3.065-7.445,3.065c-2.895,0-5.365-1.021-7.408-3.065c-2.045-2.044-3.066-4.526-3.066-7.446
		c0-2.895,1.021-5.363,3.066-7.407c2.043-2.044,4.514-3.066,7.408-3.066C377.912,437.982,380.393,439.005,382.438,441.049z
		 M374.992,445.79c-0.736,0-1.365,0.261-1.885,0.78c-0.521,0.521-0.781,1.149-0.781,1.886c0,0.762,0.26,1.403,0.781,1.923
		c0.52,0.521,1.148,0.781,1.885,0.781s1.371-0.26,1.904-0.781c0.533-0.52,0.799-1.161,0.799-1.923c0-0.736-0.266-1.364-0.799-1.886
		C376.363,446.051,375.729,445.79,374.992,445.79z"/>
	<path d="M468.191,440.687c0.254,0.914,0.381,1.803,0.381,2.666c0,1.701-0.445,3.313-1.334,4.837
		c-1.371,2.412-3.605,4.075-6.703,4.989c-0.559,1.854-1.98,3.923-4.266,6.208c-3.707,3.732-8.188,5.599-13.443,5.599
		c-5.23,0-9.707-1.859-13.426-5.579c-3.721-3.72-5.58-8.208-5.58-13.464c0-5.205,1.816-9.75,5.447-13.635
		c2.184-2.133,4.189-3.313,6.018-3.542c-3.936-3.961-5.904-7.909-5.904-11.845c0-3.885,1.391-7.224,4.172-10.017
		c2.779-2.793,6.137-4.189,10.072-4.189s7.301,1.384,10.094,4.151c1.574,1.523,2.895,3.948,3.961,7.274l-7.16,2.818
		c-0.863-2.336-1.65-3.859-2.361-4.57c-1.244-1.219-2.756-1.828-4.533-1.828c-1.752,0-3.25,0.616-4.494,1.848
		s-1.865,2.735-1.865,4.513c0,1.803,0.652,3.402,1.961,4.799c1.307,1.396,2.514,2.311,3.619,2.742
		c1.104,0.432,3.357,0.66,6.76,0.686v7.579l-4.646,0.038c-4.494,0.889-7.84,2.532-10.035,4.933
		c-2.197,2.398-3.295,5.147-3.295,8.245s1.092,5.738,3.275,7.922s4.824,3.275,7.922,3.275c3.072,0,6.373-1.803,9.902-5.408
		c-0.711-0.584-1.969-1.815-3.771-3.694c-0.66-0.609-1.18-1.041-1.561-1.295c-0.355-0.229-0.648-0.343-0.877-0.343h-0.037
		c-0.254,0.025-0.432,0.165-0.533,0.419c-0.051,0.102-0.076,0.203-0.076,0.305c0,0.178,0.051,0.368,0.152,0.571l-6.475,4.38
		c-0.533-0.787-0.939-1.676-1.219-2.666c-0.203-0.787-0.305-1.562-0.305-2.323c0-1.447,0.381-2.844,1.143-4.189
		c1.193-2.057,2.92-3.39,5.18-3.999c0.787-0.229,1.574-0.343,2.361-0.343c1.447,0,2.83,0.381,4.15,1.143
		c1.117,0.635,2.393,1.822,3.828,3.562c1.434,1.739,2.773,2.685,4.018,2.837c0.178,0.025,0.344,0.038,0.496,0.038
		c0.965,0,1.65-0.444,2.057-1.333c0.102-0.229,0.152-0.47,0.152-0.724c0-0.813-0.584-1.701-1.752-2.666l3.885-6.741
		C465.906,436.04,467.455,438.046,468.191,440.687z"/>
</g>
</svg>
