<?xml version="1.0" encoding="utf-8"?>
<!-- Generator: Adobe Illustrator 16.0.0, SVG Export Plug-In . SVG Version: 6.00 Build 0)  -->
<!DOCTYPE svg PUBLIC "-//W3C//DTD SVG 1.1//EN" "http://www.w3.org/Graphics/SVG/1.1/DTD/svg11.dtd">
<svg version="1.1" id="Layer_1" xmlns="http://www.w3.org/2000/svg" xmlns:xlink="http://www.w3.org/1999/xlink" x="0px" y="0px"
	 width="500px" height="500px" viewBox="0 0 500 500" enable-background="new 0 0 500 500" xml:space="preserve">
<g>
	<path d="M51.272,30.947h11.077l23.4,54.992H73.191l-4.992-12.247H45.11l-4.992,12.247H27.872L51.272,30.947z M63.909,63.084
		l-7.254-17.707L49.4,63.084H63.909z"/>
	<path d="M101.659,31.337h25.351c6.24,0,11.154,1.716,14.274,4.836c2.496,2.496,3.744,5.538,3.744,9.282v0.156
		c0,6.163-3.276,9.594-7.176,11.779c6.318,2.418,10.218,6.084,10.218,13.416v0.156c0,9.984-8.112,14.977-20.437,14.977h-25.975
		V31.337z M124.436,53.412c5.304,0,8.658-1.716,8.658-5.772v-0.156c0-3.588-2.808-5.616-7.878-5.616H113.36v11.544H124.436z
		 M127.634,75.409c5.304,0,8.502-1.872,8.502-5.928v-0.156c0-3.666-2.73-5.928-8.892-5.928H113.36v12.013H127.634z"/>
	<path d="M163.044,58.794v-0.156c0-15.523,11.7-28.237,28.471-28.237c10.297,0,16.459,3.432,21.529,8.424L205.4,47.64
		c-4.212-3.822-8.502-6.163-13.962-6.163c-9.205,0-15.834,7.645-15.834,17.005v0.156c0,9.36,6.474,17.16,15.834,17.16
		c6.24,0,10.062-2.496,14.353-6.396l7.644,7.722c-5.616,6.006-11.856,9.75-22.387,9.75
		C174.979,86.875,163.044,74.473,163.044,58.794z"/>
	<path d="M230.514,31.337h21.295c17.16,0,29.018,11.778,29.018,27.145v0.156c0,15.366-11.857,27.301-29.018,27.301h-21.295V31.337z
		 M251.809,75.097c9.828,0,16.459-6.63,16.459-16.303v-0.156c0-9.673-6.631-16.459-16.459-16.459h-9.283v32.917H251.809z"/>
	<path d="M298.997,31.337h41.185v10.687h-29.25V53.1h25.74v10.687h-25.74v11.466h29.641v10.687h-41.575V31.337z"/>
	<path d="M358.744,31.337h41.576v10.92h-29.563V53.88h26.053v10.92h-26.053v21.139h-12.014V31.337z"/>
	<path d="M414.982,58.794v-0.156c0-15.523,12.09-28.237,28.627-28.237c9.828,0,15.756,2.652,21.451,7.488l-7.566,9.126
		c-4.213-3.51-7.957-5.539-14.275-5.539c-8.736,0-15.678,7.723-15.678,17.005v0.156c0,9.984,6.863,17.316,16.537,17.316
		c4.367,0,8.268-1.092,11.311-3.276v-7.8h-12.092V54.504h23.713v23.713c-5.615,4.758-13.338,8.658-23.322,8.658
		C426.684,86.875,414.982,74.941,414.982,58.794z"/>
	<path d="M32.552,124.938h12.012v21.607h22.153v-21.607h12.012v54.602H66.717v-21.919H44.564v21.919H32.552V124.938z"/>
	<path d="M106.04,124.938h12.013v54.602H106.04V124.938z"/>
	<path d="M139.905,172.129l7.566-8.424c3.12,3.432,6.162,5.46,9.984,5.46c4.524,0,7.333-2.73,7.333-9.048v-35.179h12.324v35.726
		c0,6.474-1.872,11.31-5.148,14.586c-3.354,3.354-8.269,5.07-14.197,5.07C149.265,180.319,143.649,176.575,139.905,172.129z"/>
	<path d="M203.02,124.938h12.012v23.869l22.153-23.869h14.508l-22.231,23.167l23.245,31.435h-14.43l-16.927-23.245l-6.318,6.552
		v16.693H203.02V124.938z"/>
	<path d="M273.622,124.938h12.013v43.682h27.223v10.92h-39.235V124.938z"/>
	<path d="M335.566,124.938h12.949l14.352,23.089l14.354-23.089h12.947v54.602h-11.934v-35.647l-15.367,23.323h-0.313l-15.209-23.089
		v35.414h-11.779V124.938z"/>
	<path d="M416.932,124.938h11.078l25.584,33.619v-33.619h11.857v54.602h-10.219l-26.443-34.711v34.711h-11.857V124.938z"/>
	<path d="M30.134,245.995v-0.156c0-15.523,12.247-28.237,29.095-28.237s28.939,12.559,28.939,28.081v0.156
		c0,15.522-12.247,28.237-29.095,28.237S30.134,261.518,30.134,245.995z M75.609,245.995v-0.156c0-9.36-6.864-17.161-16.537-17.161
		s-16.381,7.645-16.381,17.005v0.156c0,9.36,6.864,17.16,16.537,17.16C68.901,262.999,75.609,255.355,75.609,245.995z"/>
	<path d="M119.973,218.538h22.309c13.027,0,20.905,7.722,20.905,18.876v0.156c0,12.637-9.829,19.188-22.075,19.188h-9.126v16.381
		h-12.013V218.538z M141.502,246.073c6.006,0,9.516-3.588,9.516-8.269v-0.156c0-5.382-3.744-8.269-9.75-8.269h-9.282v16.693H141.502
		z"/>
	<path d="M235.945,269.396c-4.602,2.964-10.141,4.681-16.225,4.681c-16.849,0-28.939-12.559-28.939-28.082v-0.156
		c0-15.523,12.247-28.237,29.095-28.237s28.939,12.559,28.939,28.081v0.156c0,5.694-1.716,11.154-4.836,15.679l5.616,4.758
		l-7.644,8.502L235.945,269.396z M227.052,261.518l-8.892-7.566l7.644-8.581l8.971,8.112c1.014-2.262,1.482-4.758,1.482-7.488
		v-0.156c0-9.36-6.864-17.161-16.537-17.161s-16.381,7.645-16.381,17.005v0.156c0,9.36,6.864,17.16,16.537,17.16
		C222.528,262.999,224.946,262.453,227.052,261.518z"/>
	<path d="M280.621,218.538h24.961c6.941,0,12.324,1.95,15.912,5.538c3.043,3.042,4.68,7.333,4.68,12.48v0.156
		c0,8.814-4.758,14.352-11.699,16.926l13.338,19.501h-14.041l-11.7-17.473h-0.155h-9.283v17.473h-12.012V218.538z M304.801,245.059
		c5.852,0,9.205-3.12,9.205-7.722v-0.156c0-5.148-3.588-7.8-9.438-7.8h-11.936v15.679H304.801z"/>
	<path d="M354.393,265.184l7.098-8.502c4.914,4.056,10.063,6.63,16.303,6.63c4.914,0,7.879-1.95,7.879-5.148v-0.156
		c0-3.042-1.873-4.603-10.998-6.942c-10.998-2.808-18.098-5.85-18.098-16.692v-0.156c0-9.907,7.957-16.458,19.111-16.458
		c7.957,0,14.742,2.496,20.281,6.942l-6.24,9.048c-4.836-3.354-9.596-5.382-14.197-5.382s-7.02,2.106-7.02,4.758v0.156
		c0,3.588,2.34,4.758,11.777,7.176c11.076,2.886,17.316,6.864,17.316,16.38v0.156c0,10.843-8.268,16.927-20.047,16.927
		C369.291,273.92,360.945,271.033,354.393,265.184z"/>
	<path d="M440.723,229.614h-16.613v-11.077h45.24v11.077h-16.613v43.525h-12.014V229.614z"/>
	<path d="M31.694,343.338v-31.201h12.012v30.89c0,8.893,4.446,13.494,11.779,13.494c7.332,0,11.778-4.446,11.778-13.104v-31.279
		h12.012v30.812c0,16.537-9.282,24.649-23.947,24.649S31.694,359.407,31.694,343.338z"/>
	<path d="M102.423,312.137h13.261l14.274,38.456l14.274-38.456h12.948l-22.075,54.992h-10.608L102.423,312.137z"/>
	<path d="M176.196,312.137h12.87l11.311,36.974l12.247-37.129h10.296l12.246,37.129l11.311-36.974h12.559l-18.643,54.992h-10.453
		l-12.324-35.725l-12.325,35.725h-10.452L176.196,312.137z"/>
	<path d="M297.236,338.971l-18.253-26.834h14.04l11.467,17.707l11.545-17.707h13.65l-18.254,26.678l19.033,27.925h-14.041
		l-12.246-18.721l-12.324,18.721h-13.65L297.236,338.971z"/>
	<path d="M368.043,345.211l-20.982-33.074h14.041l13.025,21.919l13.262-21.919h13.65l-20.982,32.84v21.763h-12.014V345.211z"/>
	<path d="M421.689,357.613l30.031-34.945h-29.094v-10.531h44.539v9.127l-30.031,34.945h30.031v10.53h-45.477V357.613z"/>
	<path d="M31.694,407.298v-1.56h13.884v1.56l-3.666,34.478H35.36L31.694,407.298z M32.318,447.859h12.636v12.48H32.318V447.859z"/>
	<path d="M78.992,438.967c0-18.643,15.055-34.165,34.165-34.165c19.111,0,34.009,14.898,34.009,30.89
		c0,13.026-6.942,19.578-15.522,19.578c-6.318,0-9.984-2.418-11.935-4.68c-2.652,2.418-6.474,4.68-11.544,4.68
		c-7.956,0-14.274-5.772-14.274-15.055c0-10.998,8.346-19.578,17.473-19.578c5.382,0,8.58,2.34,10.765,5.304l0.858-4.134
		l9.204,1.481l-3.666,20.983c-0.156,0.779-0.234,1.794-0.234,2.418c0,2.808,2.106,4.914,5.694,4.914
		c5.538,0,9.906-5.538,9.906-15.912c0-14.431-13.183-27.77-30.733-27.77c-17.628,0-30.889,13.963-30.889,31.045
		c0,17.161,13.104,30.89,31.513,30.89c7.723,0,13.261-1.794,19.111-5.227l1.56,2.496c-6.006,3.666-12.559,5.851-20.671,5.851
		C93.812,472.977,78.992,457.609,78.992,438.967z M120.177,436.003c0-4.446-3.042-7.332-7.254-7.332c-5.07,0-9.36,4.758-9.36,10.998
		c0,4.836,3.042,7.566,7.333,7.566C115.809,447.235,120.177,442.399,120.177,436.003z"/>
	<path d="M183.542,448.64h-5.928v-9.984h7.645l1.95-11.545h-6.864v-9.984h8.58l1.95-11.388h10.296l-1.95,11.388h11.311l1.95-11.388
		h10.297l-1.95,11.388h5.928v9.984h-7.645l-1.95,11.545h6.864v9.984h-8.581l-2.028,11.7h-10.297l2.028-11.7h-11.311l-2.028,11.7
		h-10.296L183.542,448.64z M206.865,438.655l1.95-11.545h-11.311l-1.95,11.545H206.865z"/>
	<path d="M274.911,460.105c-6.708-0.857-13.261-3.51-18.409-7.41l6.084-8.893c4.213,3.198,8.113,5.383,12.715,6.318v-12.402
		c-11.232-3.042-16.77-7.332-16.77-16.536v-0.156c0-8.658,6.551-14.274,16.38-15.288v-4.524h8.112v4.68
		c5.538,0.78,10.297,2.809,14.508,5.772l-5.226,9.126c-3.12-2.105-6.396-3.744-9.673-4.602v11.778
		c11.857,3.198,16.928,8.034,16.928,16.771v0.156c0,8.658-6.631,14.274-16.537,15.366v7.723h-8.112V460.105z M275.301,415.488
		c-3.744,0.468-5.382,2.34-5.382,4.836v0.156c0,2.418,1.093,3.979,5.382,5.538V415.488z M288.172,445.52v-0.156
		c0-2.652-1.326-4.212-5.539-5.772v10.921C286.299,449.966,288.172,448.327,288.172,445.52z"/>
	<path d="M330.555,419.232v-0.156c0-7.723,5.383-13.963,13.34-13.963c7.877,0,13.182,6.163,13.182,13.807v0.156
		c0,7.645-5.383,13.963-13.338,13.963C335.859,433.039,330.555,426.877,330.555,419.232z M375.875,405.738h9.283l-39.859,54.602
		h-9.283L375.875,405.738z M348.887,419.232v-0.156c0-3.666-2.029-6.864-5.148-6.864c-3.277,0-4.992,3.12-4.992,6.708v0.156
		c0,3.666,2.027,6.864,5.148,6.864C347.17,425.94,348.887,422.742,348.887,419.232z M364.098,447.157v-0.156
		c0-7.722,5.381-13.962,13.338-13.962c7.879,0,13.182,6.162,13.182,13.807v0.155c0,7.645-5.381,13.963-13.338,13.963
		C369.4,460.964,364.098,454.802,364.098,447.157z M382.428,447.157v-0.156c0-3.666-2.029-6.864-5.148-6.864
		c-3.275,0-4.992,3.12-4.992,6.709v0.155c0,3.667,2.027,6.864,5.148,6.864C380.711,453.865,382.428,450.668,382.428,447.157z"/>
	<path d="M454.684,455.035c-4.445,3.667-9.672,6.085-15.99,6.085c-10.453,0-18.33-6.085-18.33-15.757v-0.156
		c0-6.942,3.744-11.856,10.607-14.977c-2.652-3.744-3.822-7.176-3.822-10.92v-0.156c0-7.488,6.006-14.353,16.537-14.353
		c9.281,0,15.367,6.084,15.367,13.729v0.156c0,7.332-4.682,11.622-11.467,14.274l7.254,7.254c1.795-2.808,3.588-6.006,5.305-9.36
		l8.814,4.837c-2.107,3.821-4.447,7.878-7.178,11.544l8.035,8.034l-8.814,6.162L454.684,455.035z M447.975,448.172l-10.451-10.609
		c-3.588,1.873-5.07,4.524-5.07,7.177v0.156c0,3.822,3.197,6.396,7.645,6.396C442.828,451.291,445.479,450.121,447.975,448.172z
		 M448.6,419.389v-0.156c0-3.12-2.105-5.07-5.148-5.07c-3.197,0-5.305,2.262-5.305,5.538v0.156c0,2.418,0.938,4.212,3.199,6.786
		C446.104,424.849,448.6,422.82,448.6,419.389z"/>
</g>
</svg>
