<?xml version="1.0" encoding="utf-8"?>
<!-- Generator: Adobe Illustrator 16.0.0, SVG Export Plug-In . SVG Version: 6.00 Build 0)  -->
<!DOCTYPE svg PUBLIC "-//W3C//DTD SVG 1.1//EN" "http://www.w3.org/Graphics/SVG/1.1/DTD/svg11.dtd">
<svg version="1.1" id="Layer_1" xmlns="http://www.w3.org/2000/svg" xmlns:xlink="http://www.w3.org/1999/xlink" x="0px" y="0px"
	 width="500px" height="500px" viewBox="0 0 500 500" enable-background="new 0 0 500 500" xml:space="preserve">
<g>
	<path d="M63.964,59.337H44.878l-4.053,11.997h6.437v6.627H26.39v-6.627h6.41l14.464-40.371h-6.402v-5.979h27.079v5.979H61.32
		l14.825,40.371h5.927v6.627H61.315v-6.627h6.589L63.964,59.337z M61.967,53.129l-7.05-22.166h-0.724l-7.339,22.166H61.967z"/>
	<path d="M102.33,71.334V31.61h-6.513v-6.627h17.634c4.85,0,8.487,0.292,10.912,0.876c2.424,0.584,4.564,2.063,6.417,4.437
		c1.853,2.375,2.78,5.161,2.78,8.36c0,2.463-0.552,4.685-1.657,6.665s-2.723,3.479-4.856,4.494c2.945,1.016,5.211,2.698,6.798,5.046
		c1.586,2.349,2.38,5.034,2.38,8.055c0,2.615-0.59,4.989-1.771,7.122s-2.749,3.784-4.704,4.951
		c-1.956,1.168-4.094,1.956-6.417,2.361c-2.323,0.406-5.491,0.609-9.502,0.609H95.817v-6.627H102.33z M110.328,47.035h4.989
		c3.809,0,6.468-0.667,7.979-2c1.51-1.333,2.266-3.294,2.266-5.884c0-5.027-3.415-7.541-10.245-7.541h-4.989V47.035z
		 M110.328,71.334h3.009c3.936,0,6.817-0.196,8.646-0.59c1.828-0.394,3.319-1.32,4.475-2.78c1.155-1.46,1.733-3.333,1.733-5.618
		c0-2.082-0.552-3.828-1.657-5.237s-2.527-2.348-4.266-2.818c-1.739-0.47-4.196-0.705-7.37-0.705h-4.57V71.334z"/>
	<path d="M200.777,56.404l6.894,3.847c-1.549,5.891-4.679,10.455-9.388,13.692c-4.71,3.237-10.125,4.856-16.244,4.856
		c-8.023,0-14.46-2.603-19.31-7.808c-4.85-5.205-7.274-11.641-7.274-19.31c0-8.404,2.438-15.095,7.313-20.071
		c4.875-4.976,11.235-7.465,19.081-7.465c6.932,0,12.759,1.892,17.481,5.675v-4.837h6.855v17.024h-6.855
		c-1.523-3.453-3.872-6.125-7.046-8.017c-3.174-1.891-6.513-2.837-10.017-2.837c-5.281,0-9.617,1.904-13.006,5.713
		s-5.084,8.621-5.084,14.435c0,5.967,1.815,10.842,5.446,14.625c3.631,3.784,7.935,5.675,12.911,5.675
		c4.088,0,7.808-1.314,11.159-3.942S199.406,61.279,200.777,56.404z"/>
	<path d="M232.194,71.334V31.61h-7.198v-6.627h20.49c5.662,0,10.022,0.292,13.082,0.876c3.061,0.584,6.023,1.904,8.894,3.961
		c2.869,2.057,5.161,4.881,6.874,8.474c1.715,3.593,2.571,7.688,2.571,12.283c0,5.231-0.825,9.775-2.476,13.635
		c-1.65,3.86-3.814,6.741-6.494,8.646c-2.679,1.904-5.865,3.231-9.559,3.98c-3.695,0.749-8.398,1.124-14.111,1.124h-19.271v-6.627
		H232.194z M240.192,71.334h4.189c4.671,0,8.372-0.292,11.103-0.876c2.729-0.584,5.033-1.581,6.912-2.99s3.402-3.536,4.57-6.379
		c1.168-2.843,1.752-6.195,1.752-10.055c0-4.595-0.959-8.493-2.875-11.692c-1.918-3.199-4.367-5.288-7.352-6.265
		c-2.983-0.977-7.573-1.466-13.768-1.466h-4.532V71.334z"/>
	<path d="M302.459,71.334V31.61h-6.855v-6.627h44.027v15.958h-6.551V31.61h-22.623v15.768h19.689v6.627h-19.689v17.329h22.623
		v-9.636h6.551v16.263h-44.027v-6.627H302.459z"/>
	<path d="M362.936,71.334V31.61h-6.703v-6.627h41.094v15.958h-6.551V31.61h-19.842v15.691h17.1v6.627h-17.1v17.405h6.779v6.627
		h-21.48v-6.627H362.936z"/>
	<path d="M449.996,52.405h19.271c0.025,0.686,0.037,1.295,0.037,1.828c0,7.44-2.438,13.394-7.313,17.862
		c-4.875,4.469-11.311,6.703-19.309,6.703c-9.572,0-16.707-2.723-21.404-8.169s-7.047-11.889-7.047-19.329
		c0-7.794,2.4-14.269,7.199-19.424c4.799-5.154,11.311-7.731,19.537-7.731c7.389,0,13.584,2.247,18.586,6.741v-5.903h6.742v17.405
		h-6.742c-1.27-2.919-3.521-5.516-6.76-7.789c-3.236-2.272-6.938-3.409-11.102-3.409c-5.789,0-10.359,1.956-13.711,5.865
		c-3.352,3.91-5.027,8.621-5.027,14.13c0,6.322,1.91,11.337,5.732,15.044c3.82,3.708,8.422,5.561,13.805,5.561
		c4.215,0,7.973-1.174,11.273-3.523c3.301-2.348,5.23-5.427,5.789-9.236h-9.559V52.405z"/>
	<path d="M35.112,164.934V125.21h-6.018v-6.627h20.262v6.627H43.11v15.158h23.042V125.21h-6.208v-6.627h20.262v6.627H74.15v39.724
		h6.056v6.627H59.944v-6.627h6.208v-17.938H43.11v17.938h6.246v6.627H29.094v-6.627H35.112z"/>
	<path d="M111.781,164.934V125.21h-5.713v-6.627h19.424v6.627h-5.713v39.724h5.713v6.627h-19.424v-6.627H111.781z"/>
	<path d="M146.632,187.291v-7.427c1.98,0.508,3.885,0.762,5.713,0.762c2.285,0,3.802-0.628,4.551-1.885
		c0.749-1.257,1.124-3.777,1.124-7.56v-45.97h-6.779v-6.627h21.557v6.627h-6.779v46.351c0,3.986-0.299,7.014-0.895,9.083
		c-0.597,2.069-2.032,3.84-4.304,5.313c-2.272,1.472-4.97,2.209-8.093,2.209C150.567,188.167,148.536,187.875,146.632,187.291z"/>
	<path d="M203.192,164.934V125.21h-6.627v-6.627h21.442v6.627h-6.817v39.724h6.094v6.627h-20.719v-6.627H203.192z M211.457,143.587
		l16.986-18.376h-6.056v-6.627h20.757v6.627h-5.637l-16.311,18.376l16.768,21.347h5.675v6.627h-21.519v-6.627h5.713L211.457,143.587
		z"/>
	<path d="M273.234,164.934V125.21h-6.855v-6.627h21.671v6.627h-6.513v39.724h16.225v-18.015h7.465v24.642h-38.848v-6.627H273.234z"
		/>
	<path d="M335.545,164.934V125.21h-6.359v-6.627h18.129l13.939,36.315l14.092-36.315h18.318v6.627h-6.398v39.724h6.398v6.627
		h-19.957v-6.627h6.322V125.21l-18.281,46.884h-1.561l-18.092-46.884v39.724h5.828v6.627h-18.738v-6.627H335.545z"/>
	<path d="M424.859,164.934V125.21h-7.58v-6.627h18.084l23.24,41.181V125.21H451.1v-6.627h21.748v6.627h-7.809v46.884h-8.209
		l-25.42-45.218v38.058h7.578v6.627h-21.709v-6.627H424.859z"/>
	<path d="M30.884,238.425c0-7.693,2.514-14.13,7.541-19.31s11.578-7.77,19.652-7.77c8.15,0,14.79,2.59,19.919,7.77
		c5.128,5.18,7.693,11.667,7.693,19.462c0,7.947-2.609,14.505-7.827,19.671c-5.218,5.168-11.851,7.751-19.9,7.751
		c-5.129,0-9.845-1.225-14.149-3.675c-4.304-2.451-7.535-5.865-9.693-10.246C31.963,247.699,30.884,243.147,30.884,238.425z
		 M39.606,238.463c0,5.814,1.701,10.689,5.104,14.625c3.402,3.936,7.871,5.903,13.406,5.903c5.484,0,9.991-2.013,13.521-6.036
		c3.529-4.024,5.294-8.83,5.294-14.416c0-5.637-1.796-10.403-5.389-14.301c-3.593-3.897-8.106-5.846-13.54-5.846
		c-5.408,0-9.826,1.917-13.254,5.751C41.32,227.977,39.606,232.75,39.606,238.463z"/>
	<path d="M126.361,258.534v-39.724h-6.665v-6.627h18.929c5.561,0,9.725,0.394,12.492,1.181c2.767,0.787,5.084,2.571,6.951,5.351
		s2.799,6.062,2.799,9.845c0,3.022-0.616,5.732-1.847,8.131c-1.232,2.399-2.755,4.17-4.57,5.313
		c-1.815,1.143-3.86,1.911-6.132,2.304c-2.272,0.394-5.707,0.59-10.302,0.59h-3.656v13.635h6.855v6.627h-21.519v-6.627H126.361z
		 M134.359,238.501h4.57c5.205,0,8.811-0.743,10.816-2.228c2.005-1.485,3.009-4.107,3.009-7.865c0-2.386-0.533-4.367-1.6-5.941
		c-1.066-1.574-2.387-2.577-3.961-3.009c-1.575-0.432-4.203-0.647-7.884-0.647h-4.951V238.501z"/>
	<path d="M226.332,265.732l1.562,0.686c4.138,1.701,7.325,2.552,9.56,2.552c0.71,0,1.638-0.114,2.78-0.343l-2.818,6.551
		c-0.762,0.127-1.46,0.19-2.095,0.19c-2.514,0-5.979-1.069-10.397-3.209c-3.809-1.833-6.805-2.749-8.988-2.749
		c-2.26,0-4.075,0.627-5.446,1.883l-2.247-3.237c1.498-1.625,3.453-2.691,5.865-3.199c-4.266-1.346-7.878-3.51-10.835-6.493
		c-2.958-2.984-5.021-6.195-6.189-9.636c-1.168-3.44-1.752-6.861-1.752-10.264c0-7.49,2.476-13.882,7.427-19.176
		s11.54-7.941,19.767-7.941s14.878,2.577,19.957,7.731c5.078,5.155,7.617,11.654,7.617,19.5c0,4.165-0.8,8.131-2.399,11.902
		c-1.6,3.771-4.342,7.154-8.227,10.15S231.207,265.326,226.332,265.732z M204.051,238.463c0,5.814,1.701,10.689,5.104,14.625
		c3.402,3.936,7.871,5.903,13.406,5.903c5.484,0,9.991-2.013,13.521-6.036c3.529-4.024,5.294-8.83,5.294-14.416
		c0-5.637-1.796-10.403-5.389-14.301c-3.593-3.897-8.106-5.846-13.54-5.846c-5.408,0-9.826,1.917-13.254,5.751
		C205.765,227.977,204.051,232.75,204.051,238.463z"/>
	<path d="M290.844,258.534v-39.724h-7.273v-6.627h21.518c4.494,0,8.063,0.349,10.703,1.047c2.641,0.699,4.824,2.171,6.551,4.418
		s2.59,5.046,2.59,8.397c0,7.007-3.641,11.412-10.92,13.214l9.357,19.274h6.475v6.627h-11.475l-12.063-24.756h-7.465v18.129h6.779
		v6.627H283.57v-6.627H290.844z M298.842,233.778h6.246c3.021,0,5.25-0.196,6.686-0.59c1.434-0.394,2.607-1.193,3.521-2.399
		c0.914-1.206,1.371-2.824,1.371-4.856c0-1.727-0.463-3.186-1.389-4.38c-0.928-1.193-2.07-1.948-3.428-2.266
		c-1.359-0.317-3.436-0.476-6.229-0.476h-6.779V233.778z"/>
	<path d="M360.994,265.161v-19.233h6.627v4.685c3.174,5.765,7.324,8.646,12.453,8.646c2.615,0,4.824-0.8,6.627-2.399
		s2.705-3.694,2.705-6.284c0-2.514-0.736-4.323-2.209-5.427s-4.254-2.203-8.342-3.294c-4.748-1.27-8.264-2.469-10.549-3.599
		c-2.285-1.129-4.107-2.742-5.467-4.837c-1.357-2.095-2.037-4.576-2.037-7.446c0-4.443,1.479-7.992,4.438-10.645
		c2.957-2.653,6.672-3.98,11.141-3.98c4.24,0,8.176,1.371,11.807,4.113v-3.542h6.475v16.072h-6.475v-3.694
		c-2.717-4.088-6.463-6.132-11.236-6.132c-2.895,0-5.115,0.667-6.664,2s-2.324,2.927-2.324,4.78c0,1.422,0.395,2.672,1.182,3.751
		c0.787,1.08,1.789,1.873,3.008,2.38c1.219,0.508,3.619,1.218,7.199,2.129c4.674,1.215,8.063,2.35,10.17,3.404
		c2.107,1.055,3.922,2.813,5.445,5.277c1.523,2.463,2.285,5.295,2.285,8.495c0,4.521-1.594,8.256-4.781,11.201
		c-3.186,2.946-7.127,4.419-11.824,4.419c-4.824,0-9.166-1.739-13.025-5.218v4.38H360.994z"/>
	<path d="M446.682,258.534v-39.724h-10.93v13.521h-6.551v-20.147h42.922v20.147h-6.551v-13.521H454.68v39.724h6.895v6.627h-21.672
		v-6.627H446.682z"/>
	<path d="M42.577,312.41v26.508c0,4.113,0.209,6.957,0.628,8.531s1.466,2.913,3.142,4.019c1.676,1.104,3.833,1.656,6.475,1.656
		c3.148,0,5.561-0.477,7.236-1.428c1.676-0.953,2.786-2.234,3.333-3.848c0.546-1.611,0.819-4.462,0.819-8.55V312.41h-6.132v-6.627
		h20.719v6.627h-6.627v27.688c0,3.732-0.159,6.443-0.476,8.131c-0.318,1.689-1.175,3.454-2.571,5.295
		c-1.396,1.841-3.365,3.313-5.903,4.418c-2.539,1.104-5.624,1.656-9.255,1.656c-4.012,0-7.351-0.514-10.017-1.543
		c-2.666-1.027-4.672-2.405-6.018-4.132c-1.346-1.727-2.241-3.567-2.685-5.522c-0.444-1.955-0.667-4.989-0.667-9.103V312.41h-6.551
		v-6.627h20.833v6.627H42.577z"/>
	<path d="M126.896,359.294l-17.798-46.884h-6.555v-6.627h20.909v6.627h-6.122l13.491,35.572l13.131-35.572h-6.18v-6.627h20.338
		v6.627h-6.432l-17.432,46.884H126.896z"/>
	<path d="M200.684,359.294l-13.497-46.884h-6.36v-6.627h20.262v6.627h-6.352l10.027,34.658l9.636-34.658h-6.303v-6.627h24.337v6.627
		h-6.227l9.674,34.658l9.837-34.658h-6.314v-6.627h19.5v6.627h-6.246l-13.23,46.884h-7.583l-11.921-41.895l-11.845,41.895H200.684z"
		/>
	<path d="M289.617,352.134l13.494-19.879l-13.449-19.845h-6.824v-6.627h21.291v6.627h-5.98l9.25,13.53l9.184-13.53h-6.131v-6.627
		h20.338v6.627h-6.611l-12.969,19.104l14.096,20.619h6.893v6.627h-21.746v-6.627h6.133l-9.678-14.28l-9.693,14.28h6.42v6.627h-21.1
		v-6.627H289.617z"/>
	<path d="M377.234,352.134v-17.481l-15.768-22.242h-6.475v-6.627h21.785v6.627h-6.674l11.701,16.376l10.688-16.376h-6.65v-6.627
		h21.1v6.627h-7.008l-14.701,22.242v17.481h7.236v6.627h-22.357v-6.627H377.234z"/>
	<path d="M431.029,358.761v-6.627l28.367-39.724h-20.521v9.331h-6.551v-15.958h37.209v5.865l-28.863,40.485h23.189v-10.245h6.551
		v16.872H431.029z"/>
	<path d="M33.703,452.361v-9.369h9.369v9.369H33.703z M40.292,438.003h-3.885l-1.904-22.509v-16.11h7.693v16.11L40.292,438.003z"/>
	<path d="M118.462,447.105c-3.682,4.215-7.579,6.322-11.692,6.322c-3.732,0-6.964-1.567-9.693-4.703
		c-2.729-3.136-4.094-7.256-4.094-12.359c0-6.018,2.019-11.571,6.056-16.662s8.607-7.637,13.711-7.637
		c4.824,0,8.658,2.323,11.502,6.97l1.295-5.903h6.817l-5.484,25.594c-0.762,3.529-1.143,5.497-1.143,5.903
		c0,0.736,0.279,1.34,0.838,1.81c0.558,0.47,1.143,0.704,1.752,0.704c1.346,0,3.256-0.856,5.732-2.571
		c2.476-1.713,4.602-4.271,6.379-7.674c1.777-3.402,2.666-7.021,2.666-10.854c0-6.957-2.622-12.702-7.865-17.233
		c-5.243-4.533-11.699-6.799-19.367-6.799c-9.395,0-17.038,3.18-22.928,9.541c-5.891,6.359-8.836,14.098-8.836,23.213
		c0,9.445,2.919,16.694,8.76,21.747c5.84,5.053,13.85,7.579,24.032,7.579c5.966,0,11.292-1.003,15.977-3.009
		s8.296-4.837,10.835-8.493h6.894c-2.108,4.367-6.043,8.315-11.807,11.845c-5.764,3.529-13.025,5.294-21.785,5.294
		c-12.289,0-21.785-3.117-28.488-9.35c-6.703-6.234-10.055-14.53-10.055-24.89c0-10.41,3.3-19.513,9.902-27.308
		c6.602-7.795,15.882-11.692,27.841-11.692c9.75,0,17.608,2.889,23.575,8.665c5.966,5.776,8.95,12.79,8.95,21.042
		c0,7.033-2.387,13.337-7.16,18.909c-4.774,5.574-10.042,8.36-15.806,8.36c-2.539,0-4.342-0.521-5.408-1.562
		S118.665,449.264,118.462,447.105z M100.028,437.013c0,3.174,0.8,5.764,2.399,7.77s3.504,3.009,5.713,3.009
		c3.479,0,6.671-1.936,9.579-5.809c2.907-3.871,4.361-8.334,4.361-13.387c0-3.377-0.844-6.037-2.533-7.979
		c-1.689-1.943-3.79-2.914-6.303-2.914c-3.86,0-7.027,2.12-9.502,6.36S100.028,432.62,100.028,437.013z"/>
	<path d="M198.26,413.552h15.079l3.095-14.892h5.602l-3.095,14.892h7.056v5.599h-8.218l-2.794,13.444h11.012v5.599h-12.175
		l-3.095,14.892h-5.602l3.095-14.892h-15.079l-3.095,14.892h-5.602l3.095-14.892h-7.056v-5.599h8.218l2.794-13.444h-11.012v-5.599
		h12.175l3.095-14.892h5.602L198.26,413.552z M197.098,419.15l-2.794,13.444h15.079l2.794-13.444H197.098z"/>
	<path d="M271.564,453.123c-4.723-0.203-8.492-1.796-11.311-4.779s-4.229-6.621-4.229-10.912c0-0.229,0.014-0.584,0.039-1.066h6.932
		c0.381,6.348,3.236,9.877,8.568,10.588v-17.452c-9.674-1.949-14.51-6.872-14.51-14.769c0-4.215,1.288-7.668,3.865-10.359
		c2.576-2.691,6.125-4.228,10.645-4.608v-2.399h5.752v2.399c3.352,0.33,6.341,1.625,8.969,3.885s3.941,6.246,3.941,11.959v0.914
		h-6.703c0-3.25-0.482-5.668-1.447-7.255s-2.551-2.635-4.76-3.143v16.531c6.101,1.36,10.178,3.229,12.23,5.607
		c2.053,2.379,3.08,5.387,3.08,9.024c0,4.629-1.334,8.299-4,11.008c-2.666,2.71-6.436,4.318-11.311,4.827v5.903h-5.752V453.123z
		 M271.564,421.374V405.82c-4.596,0.811-6.893,3.407-6.893,7.788C264.676,417.762,266.974,420.35,271.564,421.374z M277.316,430.66
		v16.217c5.332-0.99,7.998-3.821,7.998-8.493c0-1.904-0.521-3.504-1.563-4.799S280.566,431.315,277.316,430.66z"/>
	<path d="M326.504,412.752c0-4.24,0.951-7.668,2.855-10.283s4.723-3.923,8.455-3.923c3.479,0,6.234,1.231,8.266,3.694
		s3.047,5.967,3.047,10.512c0,4.316-0.971,7.757-2.914,10.321c-1.941,2.564-4.742,3.847-8.398,3.847
		c-3.479,0-6.232-1.225-8.264-3.676C327.52,420.795,326.504,417.297,326.504,412.752z M331.988,412.714
		c0,7.033,1.941,10.55,5.826,10.55c3.859,0,5.789-3.504,5.789-10.512c0-7.033-1.93-10.55-5.789-10.55
		C333.93,402.202,331.988,405.706,331.988,412.714z M334.234,452.361l42.061-52.978h5.395l-41.766,52.978H334.234z M366.951,438.993
		c0-4.57,1.021-8.074,3.066-10.512c2.043-2.438,4.779-3.656,8.207-3.656c3.783,0,6.613,1.313,8.492,3.942
		c1.879,2.627,2.818,6.036,2.818,10.226c0,4.57-1.016,8.081-3.047,10.53c-2.031,2.451-4.773,3.676-8.227,3.676
		c-3.479,0-6.232-1.225-8.264-3.676C367.967,447.074,366.951,443.563,366.951,438.993z M372.436,438.993
		c0,7.033,1.93,10.55,5.789,10.55c3.885,0,5.826-3.504,5.826-10.512c0-7.033-1.93-10.55-5.789-10.55
		C374.377,428.481,372.436,431.985,372.436,438.993z"/>
	<path d="M460.393,424.33h10.855v6.475h-5.6c-1.371,4.9-3.123,8.684-5.256,11.35l2.781,3.58h8.074v6.627h-12.074l-3.504-4.646
		c-4.596,3.656-9.293,5.484-14.092,5.484c-5.484,0-10.016-1.701-13.596-5.104s-5.371-7.655-5.371-12.759
		c0-7.059,4.025-12.353,12.074-15.882c-2.412-3.072-3.619-6.157-3.619-9.255c0-3.402,1.289-6.195,3.867-8.379
		c2.576-2.184,5.578-3.275,9.006-3.275c3.555,0,6.557,1.085,9.008,3.257c2.449,2.17,3.676,4.868,3.676,8.093
		c0,2.818-0.863,5.129-2.59,6.932s-4.57,3.517-8.531,5.142l10.777,14.587C458.209,433.179,459.58,429.104,460.393,424.33z
		 M438.723,424.33c-5.484,2.438-8.227,5.992-8.227,10.664c0,3.098,1.154,5.809,3.465,8.131c2.311,2.324,5.117,3.485,8.418,3.485
		c3.377,0,6.449-1.409,9.217-4.228L438.723,424.33z M441.693,416.941c3.047-1.27,5.123-2.463,6.227-3.58
		c1.105-1.117,1.656-2.349,1.656-3.694c0-1.244-0.469-2.367-1.408-3.37s-2.299-1.505-4.076-1.505c-1.6,0-2.932,0.482-3.998,1.447
		s-1.6,2.222-1.6,3.771c0,1.371,0.914,3.453,2.742,6.246L441.693,416.941z"/>
</g>
</svg>
