<?xml version="1.0" encoding="utf-8"?>
<!-- Generator: Adobe Illustrator 16.0.0, SVG Export Plug-In . SVG Version: 6.00 Build 0)  -->
<!DOCTYPE svg PUBLIC "-//W3C//DTD SVG 1.1//EN" "http://www.w3.org/Graphics/SVG/1.1/DTD/svg11.dtd">
<svg version="1.1" id="Layer_1" xmlns="http://www.w3.org/2000/svg" xmlns:xlink="http://www.w3.org/1999/xlink" x="0px" y="0px"
	 width="500px" height="500px" viewBox="0 0 500 500" enable-background="new 0 0 500 500" xml:space="preserve">
<g>
	<path d="M1018.845,324.227H847.216l-36.447,113.231h57.879V500H680.966v-62.542h57.646L868.681,56.435h-57.569V0h243.507v56.435
		H995.07l133.315,381.023h53.295V500H995.025v-62.542h59.25L1018.845,324.227z M1000.885,265.636L937.488,56.435h-6.508
		l-65.998,209.201H1000.885z"/>
</g>
<text transform="matrix(1 0 0 1 -735.1475 372.0371)" font-family="'Rockwell'" font-size="683.4876">B</text>
<g>
	<path d="M121.786,437.455V62.545H60.319V0h166.427c45.769,0,80.097,2.757,102.983,8.267c22.881,5.515,43.072,19.473,60.567,41.876
		c17.49,22.409,26.24,48.706,26.24,78.9c0,23.246-5.213,44.213-15.635,62.904c-10.425,18.691-25.701,32.833-45.83,42.417
		c27.795,9.586,49.183,25.464,64.16,47.627c14.974,22.167,22.467,47.509,22.467,76.025c0,24.685-5.572,47.089-16.715,67.217
		c-11.143,20.13-25.942,35.709-44.392,46.729c-18.456,11.025-38.641,18.455-60.568,22.287c-21.927,3.834-51.823,5.751-89.683,5.751
		H60.319v-62.545H121.786z M197.271,208.123h47.089c35.946,0,61.046-6.291,75.305-18.871c14.256-12.581,21.388-31.093,21.388-55.536
		c0-47.447-32.233-71.171-96.692-71.171h-47.089V208.123z M197.271,437.455h28.398c37.141,0,64.341-1.853,81.595-5.571
		c17.255-3.713,31.327-12.458,42.235-26.24c10.902-13.776,16.355-31.45,16.355-53.021c0-19.645-5.213-36.123-15.636-49.424
		c-10.424-13.3-23.846-22.161-40.26-26.6c-16.416-4.432-39.601-6.65-69.554-6.65h-43.135V437.455z"/>
</g>
</svg>
