<?xml version="1.0" encoding="utf-8"?>
<!-- Generator: Adobe Illustrator 16.0.0, SVG Export Plug-In . SVG Version: 6.00 Build 0)  -->
<!DOCTYPE svg PUBLIC "-//W3C//DTD SVG 1.1//EN" "http://www.w3.org/Graphics/SVG/1.1/DTD/svg11.dtd">
<svg version="1.1" id="Layer_1" xmlns="http://www.w3.org/2000/svg" xmlns:xlink="http://www.w3.org/1999/xlink" x="0px" y="0px"
	 width="500px" height="500px" viewBox="0 0 500 500" enable-background="new 0 0 500 500" xml:space="preserve">
<g>
	<path d="M1018.845,324.227H847.216l-36.447,113.231h57.879V500H680.966v-62.542h57.646L868.681,56.435h-57.569V0h243.507v56.435
		H995.07l133.315,381.023h53.295V500H995.025v-62.542h59.25L1018.845,324.227z M1000.885,265.636L937.488,56.435h-6.508
		l-65.998,209.201H1000.885z"/>
</g>
<text transform="matrix(1 0 0 1 -807.1475 474.0371)" font-family="'Rockwell'" font-size="683.4876">G</text>
<g>
	<path d="M1297.785,225.455v-374.91h-61.467V-212h166.428c45.769,0,80.097,2.757,102.983,8.267
		c22.881,5.515,43.072,19.473,60.567,41.876c17.49,22.409,26.24,48.706,26.24,78.9c0,23.246-5.213,44.213-15.635,62.904
		c-10.425,18.691-25.701,32.833-45.83,42.417c27.795,9.586,49.183,25.464,64.16,47.627c14.974,22.167,22.467,47.509,22.467,76.025
		c0,24.685-5.572,47.089-16.715,67.217c-11.143,20.13-25.942,35.709-44.392,46.729c-18.456,11.025-38.641,18.455-60.568,22.287
		c-21.927,3.834-51.823,5.751-89.683,5.751h-170.023v-62.545H1297.785z M1373.271-3.877h47.089c35.946,0,61.046-6.291,75.305-18.871
		c14.256-12.581,21.388-31.093,21.388-55.536c0-47.447-32.233-71.171-96.692-71.171h-47.089V-3.877z M1373.271,225.455h28.397
		c37.142,0,64.342-1.853,81.596-5.571c17.255-3.713,31.327-12.458,42.235-26.24c10.902-13.776,16.355-31.45,16.355-53.021
		c0-19.645-5.213-36.123-15.636-49.424c-10.424-13.3-23.846-22.161-40.26-26.6c-16.416-4.432-39.601-6.65-69.554-6.65h-43.135
		V225.455z"/>
</g>
<g>
	<path d="M325.066,258.531h175.168c0.228,6.272,0.347,11.849,0.347,16.73c0,68.085-22.156,122.571-66.468,163.466
		c-44.311,40.899-102.817,61.346-175.515,61.346c-87.011,0-151.86-24.921-194.555-74.764C21.345,375.468,0,316.508,0,248.423
		c0-71.332,21.81-130.584,65.429-177.757C109.048,23.498,168.245-0.089,243.021-0.089c67.159,0,123.47,20.564,168.938,61.692V7.58
		h61.273v159.285h-61.273c-11.544-26.718-32.023-50.479-61.448-71.278c-29.426-20.792-63.065-31.195-100.912-31.195
		c-52.621,0-94.163,17.896-124.627,53.676c-30.464,35.786-45.696,78.891-45.696,129.311c0,57.859,17.363,103.751,52.1,137.674
		c34.732,33.93,76.561,50.888,125.492,50.888c38.308,0,72.465-10.746,102.47-32.24c29.998-21.489,47.542-49.668,52.621-84.523
		h-86.893V258.531z"/>
</g>
</svg>
