<?xml version="1.0" encoding="utf-8"?>
<!-- Generator: Adobe Illustrator 16.0.0, SVG Export Plug-In . SVG Version: 6.00 Build 0)  -->
<!DOCTYPE svg PUBLIC "-//W3C//DTD SVG 1.1//EN" "http://www.w3.org/Graphics/SVG/1.1/DTD/svg11.dtd">
<svg version="1.1" id="Layer_1" xmlns="http://www.w3.org/2000/svg" xmlns:xlink="http://www.w3.org/1999/xlink" x="0px" y="0px"
	 width="500px" height="500px" viewBox="0 0 500 500" enable-background="new 0 0 500 500" xml:space="preserve">
<g>
	<path d="M272.054,417.638l11.776,5.17c31.208,12.826,55.24,19.243,72.092,19.243c5.358,0,12.351-0.861,20.967-2.585l-21.254,49.402
		c-5.744,0.955-11.013,1.436-15.797,1.436c-18.957,0-45.094-8.069-78.411-24.198c-28.722-13.827-51.318-20.738-67.784-20.738
		c-17.045,0-30.732,4.735-41.072,14.204l-16.946-24.413c11.296-12.257,26.039-20.299,44.232-24.127
		c-32.168-10.146-59.41-26.469-81.714-48.971c-22.309-22.497-37.868-46.718-46.673-72.667c-8.81-25.944-13.212-51.744-13.212-77.405
		c0-56.483,18.669-104.691,56.008-144.615C131.604,27.45,181.292,7.488,243.332,7.488c62.039,0,112.204,19.437,150.503,58.306
		c38.295,38.874,57.444,87.889,57.444,147.057c0,31.405-6.032,61.321-18.096,89.756c-12.063,28.435-32.742,53.952-62.039,76.544
		C341.849,401.746,308.818,414.572,272.054,417.638z M104.031,211.988c0,43.85,12.826,80.614,38.487,110.292
		c25.657,29.683,59.355,44.52,101.101,44.52c41.359,0,75.346-15.174,101.963-45.524c26.613-30.347,39.924-66.586,39.924-108.713
		c0-42.508-13.549-78.456-40.642-107.851c-27.098-29.391-61.133-44.088-102.106-44.088c-40.785,0-74.103,14.46-99.953,43.37
		C116.956,132.909,104.031,168.905,104.031,211.988z"/>
</g>
</svg>
