<?xml version="1.0" encoding="utf-8"?>
<!-- Generator: Adobe Illustrator 16.0.0, SVG Export Plug-In . SVG Version: 6.00 Build 0)  -->
<!DOCTYPE svg PUBLIC "-//W3C//DTD SVG 1.1//EN" "http://www.w3.org/Graphics/SVG/1.1/DTD/svg11.dtd">
<svg version="1.1" id="Layer_1" xmlns="http://www.w3.org/2000/svg" xmlns:xlink="http://www.w3.org/1999/xlink" x="0px" y="0px"
	 width="500px" height="500px" viewBox="0 0 500 500" enable-background="new 0 0 500 500" xml:space="preserve">
<g>
	<path d="M57.975,89.04H42.738V45.104H28.967V32.644h42.74v12.459H57.975V89.04z"/>
	<path d="M128.103,89.04h-15.314v-22.99H95.083v22.99H79.769V32.644h15.314v20.907h17.706V32.644h15.314V89.04z"/>
	<path d="M173.774,89.04h-33.482V32.644h33.482v12.228h-18.246v8.872h16.896v12.228h-16.896v10.646h18.246V89.04z"/>
	<path d="M276.078,60.765c0,12.781-4.063,21.396-12.189,25.845l13.771,15.854h-18.979l-9.953-12.537l-0.039-0.039V89.85
		l-0.039-0.039c-8.847,0-15.629-2.481-20.348-7.445c-4.719-4.963-7.078-12.189-7.078-21.679c0-9.386,2.346-16.554,7.04-21.505
		c4.692-4.95,11.514-7.425,20.463-7.425c8.974,0,15.777,2.456,20.406,7.368C273.764,44.037,276.078,51.25,276.078,60.765z
		 M237.272,60.765c0,10.904,3.793,16.355,11.379,16.355c3.858,0,6.717-1.324,8.583-3.973c1.864-2.648,2.797-6.776,2.797-12.382
		c0-5.632-0.945-9.791-2.835-12.479c-1.891-2.687-4.713-4.031-8.467-4.031C241.091,44.255,237.272,49.758,237.272,60.765z"/>
	<path d="M334.209,32.644v33.945c0,7.381-2.09,13.096-6.268,17.146c-4.18,4.05-10.203,6.075-18.072,6.075
		c-7.689,0-13.598-1.967-17.725-5.902c-4.128-3.935-6.191-9.592-6.191-16.973V32.644h15.314v33.097c0,3.986,0.745,6.879,2.236,8.679
		c1.492,1.8,3.689,2.7,6.596,2.7c3.111,0,5.369-0.893,6.77-2.681c1.402-1.787,2.104-4.712,2.104-8.775v-33.02H334.209z"/>
	<path d="M346.051,89.04V32.644h15.314V89.04H346.051z"/>
	<path d="M398.668,44.332c-3.627,0-6.457,1.485-8.486,4.456c-2.033,2.97-3.049,7.065-3.049,12.286
		c0,10.853,4.129,16.278,12.383,16.278c2.494,0,4.912-0.347,7.252-1.042s4.693-1.53,7.059-2.507v12.884
		c-4.705,2.083-10.029,3.125-15.969,3.125c-8.514,0-15.039-2.469-19.576-7.406c-4.539-4.938-6.809-12.074-6.809-21.409
		c0-5.837,1.1-10.968,3.297-15.391c2.199-4.423,5.363-7.824,9.49-10.203c4.127-2.378,8.98-3.568,14.563-3.568
		c6.094,0,11.918,1.325,17.473,3.973l-4.666,11.997c-2.084-0.977-4.166-1.8-6.25-2.469
		C403.297,44.667,401.059,44.332,398.668,44.332z"/>
	<path d="M473,89.04h-17.203l-11.148-21.563l-4.514,2.7V89.04H424.82V32.644h15.314v24.495c0.771-1.517,2.326-3.921,4.668-7.213
		l11.842-17.281h16.664L455.525,57.91L473,89.04z"/>
	<path d="M33.094,127.444h19.673c7.663,0,13.353,1.138,17.069,3.414c3.715,2.275,5.574,5.818,5.574,10.627
		c0,3.163-0.81,5.863-2.43,8.101s-3.755,3.678-6.403,4.32v0.386c3.497,0.926,6.03,2.469,7.599,4.629
		c1.568,2.16,2.353,4.963,2.353,8.409c0,5.118-1.923,9.149-5.767,12.093c-3.845,2.945-9.084,4.417-15.719,4.417H33.094V127.444z
		 M48.331,149.084h4.59c2.186,0,3.877-0.45,5.072-1.35c1.196-0.9,1.794-2.237,1.794-4.012c0-3.163-2.392-4.745-7.175-4.745h-4.282
		V149.084z M48.331,160.232v11.842h5.362c4.757,0,7.136-2.006,7.136-6.018c0-1.877-0.636-3.317-1.91-4.32
		c-1.272-1.003-3.118-1.504-5.535-1.504H48.331z"/>
	<path d="M133.658,163.318v20.521h-15.237v-56.396h18.477c15.327,0,22.99,5.555,22.99,16.664c0,6.532-3.189,11.585-9.566,15.16
		l16.433,24.572h-17.281l-11.958-20.521H133.658z M133.658,151.861h2.854c5.323,0,7.985-2.353,7.985-7.059
		c0-3.883-2.61-5.825-7.831-5.825h-3.009V151.861z"/>
	<path d="M256.75,155.564c0,9.489-2.328,16.703-6.982,21.64c-4.655,4.938-11.47,7.406-20.444,7.406
		c-8.847,0-15.629-2.481-20.348-7.445c-4.719-4.963-7.078-12.189-7.078-21.679c0-9.386,2.346-16.554,7.04-21.505
		c4.692-4.95,11.514-7.425,20.463-7.425c8.975,0,15.777,2.456,20.406,7.368C254.436,138.836,256.75,146.05,256.75,155.564z
		 M217.944,155.564c0,10.904,3.793,16.355,11.379,16.355c3.857,0,6.718-1.324,8.583-3.973c1.864-2.648,2.797-6.776,2.797-12.382
		c0-5.632-0.945-9.791-2.835-12.479c-1.891-2.687-4.713-4.031-8.467-4.031C221.763,139.055,217.944,144.558,217.944,155.564z"/>
	<path d="M359.938,183.839h-18.014l-5.4-24.572c-0.258-1.028-0.662-3.073-1.215-6.133c-0.555-3.06-0.959-5.619-1.217-7.676
		c-0.205,1.672-0.539,3.749-1.002,6.23c-0.463,2.482-0.92,4.764-1.369,6.847c-0.451,2.083-2.322,10.518-5.613,25.305h-18.014
		l-13.964-56.396h14.696l6.133,28.275c1.389,6.249,2.34,11.225,2.855,14.928c0.334-2.623,0.932-6.185,1.793-10.685
		c0.861-4.5,1.666-8.229,2.412-11.187l4.975-21.332h14.119l4.822,21.332c0.822,3.42,1.658,7.368,2.506,11.842
		c0.85,4.475,1.414,7.818,1.697,10.029c0.334-2.854,1.248-7.805,2.74-14.851l6.248-28.352h14.697L359.938,183.839z"/>
	<path d="M466.904,183.839h-19.98l-20.6-39.731h-0.346c0.486,6.249,0.732,11.02,0.732,14.311v25.42h-13.502v-56.396h19.904
		l20.521,39.191h0.232c-0.361-5.683-0.541-10.248-0.541-13.694v-25.498h13.578V183.839z"/>
	<path d="M48.1,278.64H33.094v-56.396h33.328v12.228H48.1v10.762h16.896v12.229H48.1V278.64z"/>
	<path d="M128.45,250.365c0,9.489-2.328,16.703-6.982,21.64c-4.655,4.938-11.47,7.406-20.444,7.406
		c-8.847,0-15.629-2.481-20.348-7.444c-4.719-4.963-7.078-12.189-7.078-21.679c0-9.386,2.346-16.554,7.04-21.505
		c4.692-4.95,11.514-7.425,20.463-7.425c8.975,0,15.777,2.456,20.406,7.368C126.135,233.637,128.45,240.85,128.45,250.365z
		 M89.644,250.365c0,10.904,3.793,16.356,11.379,16.356c3.857,0,6.718-1.324,8.583-3.974c1.864-2.648,2.797-6.776,2.797-12.382
		c0-5.632-0.945-9.791-2.835-12.479c-1.891-2.687-4.713-4.031-8.467-4.031C93.463,233.855,89.644,239.358,89.644,250.365z"/>
	<path d="M189.436,278.64h-17.628l-10.994-17.628l-10.878,17.628h-17.243l18.708-28.854l-17.59-27.542h16.896l10.184,17.436
		l9.798-17.436h17.397l-17.86,28.738L189.436,278.64z"/>
	<path d="M215.169,296.346c-2.777,0-5.413-0.271-7.908-0.811v-11.842c0.823,0.154,1.697,0.327,2.623,0.521
		c0.926,0.192,1.929,0.289,3.009,0.289c2.52,0,4.32-0.759,5.4-2.276s1.62-4.113,1.62-7.791v-52.191h15.314v50.879
		c0,7.639-1.672,13.418-5.015,17.34C226.87,294.384,221.855,296.346,215.169,296.346z"/>
	<path d="M295.365,222.244v33.945c0,7.381-2.09,13.096-6.268,17.146c-4.18,4.05-10.203,6.075-18.072,6.075
		c-7.689,0-13.598-1.968-17.725-5.901c-4.128-3.936-6.192-9.592-6.192-16.973v-34.293h15.314v33.097c0,3.986,0.745,6.88,2.237,8.679
		c1.491,1.801,3.689,2.701,6.596,2.701c3.111,0,5.368-0.894,6.77-2.682c1.402-1.787,2.104-4.712,2.104-8.775v-33.02H295.365z"/>
	<path d="M331.779,278.64l-11.533-40.619h-0.348c0.541,6.918,0.811,12.292,0.811,16.124v24.495h-13.502v-56.396h20.291l11.766,40.04
		h0.309l11.533-40.04h20.328v56.396h-14.002v-24.726c0-1.286,0.02-2.713,0.057-4.282c0.039-1.568,0.213-5.413,0.521-11.534h-0.348
		l-11.379,40.542H331.779z"/>
	<path d="M424.512,240.181c0,6.301-1.857,11.167-5.574,14.6c-3.717,3.434-8.994,5.15-15.834,5.15h-4.281v18.708h-15.238v-56.396
		h19.52c7.123,0,12.471,1.556,16.047,4.667C422.725,230.023,424.512,234.447,424.512,240.181z M398.822,247.51h2.777
		c2.287,0,4.107-0.643,5.457-1.929c1.35-1.286,2.025-3.06,2.025-5.323c0-3.806-2.109-5.709-6.326-5.709h-3.934V247.51z"/>
	<path d="M470.377,261.513c0,3.497-0.889,6.603-2.662,9.315c-1.775,2.714-4.334,4.822-7.676,6.326
		c-3.344,1.505-7.266,2.257-11.766,2.257c-3.756,0-6.904-0.265-9.451-0.791c-2.545-0.526-5.195-1.446-7.945-2.758v-13.578
		c2.904,1.491,5.926,2.655,9.064,3.491c3.137,0.836,6.018,1.254,8.641,1.254c2.262,0,3.922-0.393,4.977-1.177
		c1.053-0.784,1.58-1.794,1.58-3.028c0-0.771-0.211-1.446-0.635-2.025c-0.426-0.578-1.107-1.163-2.045-1.755
		c-0.939-0.591-3.439-1.8-7.504-3.626c-3.678-1.672-6.436-3.291-8.273-4.86c-1.838-1.568-3.201-3.369-4.088-5.4
		c-0.889-2.031-1.332-4.436-1.332-7.213c0-5.194,1.891-9.245,5.67-12.151c3.781-2.906,8.975-4.359,15.584-4.359
		c5.838,0,11.791,1.35,17.861,4.05l-4.668,11.765c-5.271-2.417-9.824-3.626-13.656-3.626c-1.98,0-3.42,0.347-4.32,1.042
		s-1.35,1.556-1.35,2.584c0,1.106,0.572,2.096,1.717,2.97c1.145,0.875,4.25,2.469,9.316,4.783c4.859,2.186,8.234,4.532,10.125,7.04
		C469.432,254.55,470.377,257.707,470.377,261.513z"/>
	<path d="M85.864,345.164c0,9.49-2.328,16.703-6.982,21.641c-4.655,4.938-11.47,7.406-20.444,7.406
		c-8.847,0-15.629-2.481-20.348-7.445c-4.719-4.962-7.078-12.189-7.078-21.678c0-9.387,2.346-16.555,7.04-21.506
		c4.692-4.95,11.514-7.426,20.463-7.426c8.975,0,15.777,2.457,20.406,7.368C83.549,328.437,85.864,335.65,85.864,345.164z
		 M47.058,345.164c0,10.904,3.793,16.355,11.379,16.355c3.857,0,6.718-1.323,8.583-3.973c1.864-2.648,2.797-6.775,2.797-12.383
		c0-5.631-0.945-9.791-2.835-12.479c-1.891-2.687-4.713-4.031-8.467-4.031C50.877,328.654,47.058,334.158,47.058,345.164z"/>
	<path d="M127.717,317.044h17.05l-18.477,56.396h-17.937l-18.4-56.396h17.127l7.676,28.583c1.594,6.353,2.469,10.776,2.623,13.27
		c0.18-1.799,0.54-4.05,1.08-6.75s1.016-4.822,1.427-6.365L127.717,317.044z"/>
	<path d="M184.344,373.439h-33.482v-56.396h33.482v12.228h-18.246v8.873h16.896v12.228h-16.896v10.646h18.246V373.439z"/>
	<path d="M209.456,352.918v20.521h-15.237v-56.396h18.477c15.327,0,22.99,5.555,22.99,16.664c0,6.532-3.189,11.586-9.566,15.159
		l16.433,24.572h-17.281l-11.958-20.521H209.456z M209.456,341.461h2.854c5.323,0,7.985-2.353,7.985-7.059
		c0-3.883-2.61-5.824-7.831-5.824h-3.009V341.461z"/>
	<path d="M353.418,373.439h-15.236v-43.936H324.41v-12.46h42.74v12.46h-13.732V373.439z"/>
	<path d="M423.547,373.439h-15.314v-22.99h-17.705v22.99h-15.314v-56.396h15.314v20.907h17.705v-20.907h15.314V373.439z"/>
	<path d="M469.219,373.439h-33.482v-56.396h33.482v12.228h-18.244v8.873h16.895v12.228h-16.895v10.646h18.244V373.439z"/>
	<path d="M33.094,468.239v-56.396h15.237v44.091h21.717v12.305H33.094z"/>
	<path d="M113.676,468.239l-2.777-10.569H92.576l-2.854,10.569H72.98l18.4-56.627h20.329l18.631,56.627H113.676z M107.735,445.172
		l-2.43-9.258c-0.566-2.057-1.254-4.719-2.063-7.985c-0.811-3.265-1.344-5.605-1.601-7.02c-0.231,1.311-0.688,3.471-1.37,6.48
		c-0.682,3.008-2.192,8.937-4.532,17.782H107.735z"/>
	<path d="M176.629,468.239h-43.936v-9.412l24.417-34.678h-23.839v-12.306h42.74v9.374l-24.417,34.717h25.035V468.239z"/>
	<path d="M204.827,432.751l9.721-20.907h16.51l-18.554,34.37v22.025H197.15v-21.563l-18.554-34.833h16.587L204.827,432.751z"/>
	<path d="M347.555,438.846c0,9.412-2.59,16.664-7.771,21.756s-12.467,7.638-21.854,7.638h-18.244v-56.396h19.518
		c9.053,0,16.041,2.314,20.965,6.943C345.094,423.416,347.555,430.103,347.555,438.846z M331.74,439.386
		c0-5.169-1.021-9-3.066-11.495c-2.045-2.494-5.15-3.741-9.316-3.741h-4.436v31.592h3.395c4.629,0,8.023-1.344,10.184-4.031
		C330.66,449.023,331.74,444.915,331.74,439.386z"/>
	<path d="M410.432,439.964c0,9.49-2.328,16.703-6.982,21.641s-11.471,7.406-20.445,7.406c-8.846,0-15.629-2.481-20.348-7.445
		c-4.719-4.962-7.078-12.189-7.078-21.678c0-9.387,2.348-16.555,7.041-21.506c4.691-4.95,11.514-7.426,20.463-7.426
		c8.975,0,15.777,2.457,20.406,7.368C408.117,423.236,410.432,430.45,410.432,439.964z M371.625,439.964
		c0,10.904,3.793,16.355,11.379,16.355c3.857,0,6.719-1.323,8.584-3.973c1.863-2.648,2.797-6.775,2.797-12.383
		c0-5.631-0.945-9.791-2.836-12.479c-1.891-2.687-4.713-4.031-8.467-4.031C375.443,423.454,371.625,428.958,371.625,439.964z"/>
	<path d="M443.258,435.22h24.34v30.396c-6.609,2.264-13.873,3.395-21.795,3.395c-8.691,0-15.41-2.52-20.154-7.561
		c-4.744-5.04-7.117-12.229-7.117-21.563c0-9.104,2.598-16.188,7.793-21.255c5.193-5.065,12.471-7.599,21.832-7.599
		c3.549,0,6.898,0.334,10.049,1.002c3.15,0.67,5.895,1.519,8.236,2.547l-4.822,11.957c-4.064-2.006-8.525-3.008-13.385-3.008
		c-4.449,0-7.889,1.446-10.318,4.339c-2.432,2.894-3.646,7.027-3.646,12.401c0,5.272,1.1,9.291,3.299,12.055
		c2.199,2.765,5.367,4.146,9.508,4.146c2.264,0,4.346-0.218,6.25-0.655v-8.833h-10.068V435.22z"/>
</g>
</svg>
