<?xml version="1.0" encoding="utf-8"?>
<!-- Generator: Adobe Illustrator 16.0.0, SVG Export Plug-In . SVG Version: 6.00 Build 0)  -->
<!DOCTYPE svg PUBLIC "-//W3C//DTD SVG 1.1//EN" "http://www.w3.org/Graphics/SVG/1.1/DTD/svg11.dtd">
<svg version="1.1" id="Layer_1" xmlns="http://www.w3.org/2000/svg" xmlns:xlink="http://www.w3.org/1999/xlink" x="0px" y="0px"
	 width="500px" height="571.472px" viewBox="0 0 500 571.472" enable-background="new 0 0 500 571.472" xml:space="preserve">
<g>
	<path d="M219.055,506.678c-42.36-1.825-76.18-16.109-101.459-42.872c-25.279-26.758-37.919-59.383-37.919-97.873
		c0-2.05,0.112-5.236,0.342-9.564h62.174c3.416,56.938,29.037,88.595,76.863,94.969V294.803
		c-86.77-17.486-130.155-61.64-130.155-132.472c0-37.802,11.556-68.777,34.674-92.919c23.112-24.137,54.941-37.919,95.481-41.335
		V6.555h51.584v21.522c30.062,2.962,56.879,14.577,80.45,34.844c23.571,20.273,35.356,56.025,35.356,107.267v8.199h-60.124
		c0-29.149-4.329-50.842-12.981-65.078c-8.657-14.23-22.888-23.625-42.701-28.183v148.277
		c54.722,12.202,91.291,28.967,109.706,50.297c18.415,21.335,27.622,48.316,27.622,80.941c0,41.527-11.956,74.444-35.869,98.742
		c-23.913,24.303-57.732,38.73-101.459,43.294v52.95h-51.584V506.678z M219.055,221.9V82.393
		c-41.223,7.27-61.832,30.559-61.832,69.855C157.265,189.505,177.874,212.719,219.055,221.9z M270.639,305.195v145.458
		c47.825-8.882,71.738-34.273,71.738-76.18c0-17.081-4.67-31.429-14.006-43.044C319.03,319.815,299.788,311.072,270.639,305.195z"/>
</g>
</svg>
