<?xml version="1.0" encoding="utf-8"?>
<!-- Generator: Adobe Illustrator 16.0.0, SVG Export Plug-In . SVG Version: 6.00 Build 0)  -->
<!DOCTYPE svg PUBLIC "-//W3C//DTD SVG 1.1//EN" "http://www.w3.org/Graphics/SVG/1.1/DTD/svg11.dtd">
<svg version="1.1" id="Layer_1" xmlns="http://www.w3.org/2000/svg" xmlns:xlink="http://www.w3.org/1999/xlink" x="0px" y="0px"
	 width="241.488px" height="656.57px" viewBox="0 0 241.488 656.57" enable-background="new 0 0 241.488 656.57"
	 xml:space="preserve">
<g>
	<path d="M23.951,6.724c55.112,24.596,99.922,63.999,134.425,118.198c34.503,54.205,51.754,120.708,51.754,199.503
		c0,76.067-16.002,140.521-47.996,193.354c-32,52.833-78.059,94.397-138.183,124.689v-53.292
		c28.236-17.081,51.525-38.72,69.86-64.907c18.33-26.191,30.746-54.369,37.236-84.549c6.49-30.175,9.736-68.494,9.736-114.953
		c0-49.192-3.588-89.162-10.762-119.907c-7.174-30.746-20.955-59.553-41.335-86.429c-20.385-26.87-41.965-46.459-64.736-58.757
		V6.724z"/>
</g>
</svg>
