<?xml version="1.0" encoding="utf-8"?>
<!-- Generator: Adobe Illustrator 16.0.0, SVG Export Plug-In . SVG Version: 6.00 Build 0)  -->
<!DOCTYPE svg PUBLIC "-//W3C//DTD SVG 1.1//EN" "http://www.w3.org/Graphics/SVG/1.1/DTD/svg11.dtd">
<svg version="1.1" id="Layer_1" xmlns="http://www.w3.org/2000/svg" xmlns:xlink="http://www.w3.org/1999/xlink" x="0px" y="0px"
	 width="500px" height="500px" viewBox="0 0 500 500" enable-background="new 0 0 500 500" xml:space="preserve">
<g>
	<path d="M82.75,253.027c0-78.342,14.743-138.808,44.239-181.397C156.48,29.046,196.732,7.749,247.75,7.749
		c52.833,0,93.485,22.093,121.956,66.273c28.467,44.186,42.702,103.851,42.702,179.006c0,77.888-14.689,138.183-44.068,180.885
		s-69.577,64.053-120.59,64.053c-53.292,0-94.115-22.205-122.469-66.615C96.928,386.94,82.75,327.499,82.75,253.027z
		 M152.44,253.027c0,67.869,8.199,116.438,24.596,145.698c16.397,29.267,39.969,43.897,70.714,43.897s54.316-14.689,70.714-44.068
		s24.597-77.888,24.597-145.527c0-68.776-8.316-117.627-24.938-146.553C301.496,77.555,278.036,63.09,247.75,63.09
		c-34.161,0-58.586,16.456-73.276,49.363C159.785,145.365,152.44,192.22,152.44,253.027z"/>
</g>
</svg>
