<?xml version="1.0" encoding="utf-8"?>
<!-- Generator: Adobe Illustrator 16.0.0, SVG Export Plug-In . SVG Version: 6.00 Build 0)  -->
<!DOCTYPE svg PUBLIC "-//W3C//DTD SVG 1.1//EN" "http://www.w3.org/Graphics/SVG/1.1/DTD/svg11.dtd">
<svg version="1.1" id="Layer_1" xmlns="http://www.w3.org/2000/svg" xmlns:xlink="http://www.w3.org/1999/xlink" x="0px" y="0px"
	 width="500px" height="500px" viewBox="0 0 500 500" enable-background="new 0 0 500 500" xml:space="preserve">
<g>
	<path d="M83.092,338.772h61.49c3.641,31.888,14.06,57.279,31.258,76.18c17.193,18.906,39.91,28.354,68.152,28.354
		c28.467,0,51.354-9.79,68.665-29.379c17.305-19.584,25.962-44.752,25.962-75.497c0-32.565-8.428-57.444-25.279-74.643
		c-16.856-17.193-37.807-25.792-62.857-25.792c-37.577,0-69.348,19.019-95.31,57.05c-14.578-14.348-31.087-25.846-49.534-34.503
		l19.472-244.596h253.478v126.056h-58.758V77.096H174.303l-10.59,139.037c28.92-23.454,61.149-35.186,96.677-35.186
		c45.094,0,80.675,15.031,106.755,45.093c26.074,30.062,39.114,67.298,39.114,111.708c0,46.918-14.294,85.35-42.872,115.294
		c-28.584,29.95-68.611,44.923-120.078,44.923c-47.826,0-85.633-13.547-113.416-40.652
		C102.105,430.213,86.508,390.698,83.092,338.772z"/>
</g>
</svg>
