<?xml version="1.0" encoding="utf-8"?>
<!-- Generator: Adobe Illustrator 16.0.0, SVG Export Plug-In . SVG Version: 6.00 Build 0)  -->
<!DOCTYPE svg PUBLIC "-//W3C//DTD SVG 1.1//EN" "http://www.w3.org/Graphics/SVG/1.1/DTD/svg11.dtd">
<svg version="1.1" id="Layer_1" xmlns="http://www.w3.org/2000/svg" xmlns:xlink="http://www.w3.org/1999/xlink" x="0px" y="0px"
	 width="500px" height="500px" viewBox="0 0 500 500" enable-background="new 0 0 500 500" xml:space="preserve">
<g>
	<path d="M93.682,350.046h57.733c3.416,27.104,12.981,49.192,28.695,66.273c15.714,17.08,34.615,25.621,56.708,25.621
		c30.516,0,54.199-15.827,71.056-47.484c16.852-31.653,25.504-74.813,25.963-129.473c-32.111,35.074-69.235,52.609-111.366,52.609
		c-37.578,0-69.006-13.548-94.286-40.652c-25.279-27.1-37.919-62.74-37.919-106.925c0-44.634,12.752-82.841,38.261-114.612
		c25.503-31.77,60.466-47.655,104.875-47.655c49.417,0,88.932,20.326,118.54,60.978c29.604,40.652,44.41,101.064,44.41,181.226
		c0,76.297-14.295,136.705-42.873,181.226c-28.583,44.527-69.978,66.786-124.176,66.786c-42.136,0-74.931-13.947-98.385-41.848
		C107.459,428.222,95.049,392.865,93.682,350.046z M330.421,193.245c-9.795-86.086-41.224-129.13-94.286-129.13
		c-26.192,0-46.972,9.736-62.345,29.208c-15.373,19.472-23.059,43.332-23.059,71.568c0,25.739,6.773,47.26,20.326,64.565
		c13.547,17.31,33.19,25.963,58.929,25.963C263.688,255.419,297.167,234.698,330.421,193.245z"/>
</g>
</svg>
