<?xml version="1.0" encoding="utf-8"?>
<!-- Generator: Adobe Illustrator 16.0.0, SVG Export Plug-In . SVG Version: 6.00 Build 0)  -->
<!DOCTYPE svg PUBLIC "-//W3C//DTD SVG 1.1//EN" "http://www.w3.org/Graphics/SVG/1.1/DTD/svg11.dtd">
<svg version="1.1" id="Layer_1" xmlns="http://www.w3.org/2000/svg" xmlns:xlink="http://www.w3.org/1999/xlink" x="0px" y="0px"
	 width="680.966px" height="677.966px" viewBox="0 0 680.966 677.966" enable-background="new 0 0 680.966 677.966"
	 xml:space="preserve">
<g>
	<path d="M376.557,461.703c-33.025,37.807-67.981,56.708-104.876,56.708c-33.478,0-62.462-14.06-86.94-42.189
		c-24.484-28.125-36.724-65.078-36.724-110.854c0-53.976,18.105-103.792,54.316-149.457c36.211-45.659,77.205-68.494,122.981-68.494
		c43.268,0,77.658,20.838,103.168,62.515l11.615-52.95h61.148l-49.193,229.565c-6.832,31.658-10.248,49.31-10.248,52.95
		c0,6.608,2.504,12.016,7.516,16.227c5.006,4.217,10.248,6.32,15.715,6.32c12.068,0,29.207-7.687,51.412-23.06
		c22.205-15.372,41.277-38.313,57.221-68.835c15.938-30.516,23.912-62.969,23.912-97.36c0-62.398-23.518-113.928-70.543-154.58
		c-47.029-40.652-104.934-60.978-173.711-60.978c-84.266,0-152.818,28.524-205.651,85.574
		C94.837,199.855,68.42,269.262,68.42,351.019c0,84.721,26.187,149.745,78.571,195.063c52.379,45.316,124.23,67.98,215.559,67.98
		c53.516,0,101.289-8.999,143.307-26.987c42.02-17.993,74.414-43.385,97.189-76.18h61.832
		c-18.906,39.168-54.205,74.584-105.9,106.242c-51.701,31.652-116.832,47.484-195.404,47.484
		c-110.229,0-195.402-27.959-255.526-83.866C47.923,524.842,17.861,450.429,17.861,357.51c0-93.373,29.603-175.019,88.82-244.938
		C165.893,42.659,249.134,7.697,356.4,7.697c87.453,0,157.939,25.909,211.461,77.717c53.516,51.813,80.279,114.729,80.279,188.741
		c0,63.087-21.41,119.624-64.225,169.612c-42.818,49.993-90.074,74.984-141.77,74.984c-22.775,0-38.943-4.671-48.51-14.007
		C384.072,495.411,378.377,481.062,376.557,461.703z M211.215,371.174c0,28.472,7.174,51.701,21.521,69.689
		c14.348,17.994,31.429,26.987,51.242,26.987c31.199,0,59.835-17.363,85.916-52.096C395.971,381.028,409.01,341,409.01,295.678
		c0-30.287-7.574-54.146-22.717-71.568c-15.148-17.422-33.99-26.134-56.538-26.134c-34.621,0-63.028,19.019-85.233,57.05
		C222.317,293.062,211.215,331.777,211.215,371.174z"/>
</g>
</svg>
