<?xml version="1.0" encoding="utf-8"?>
<!-- Generator: Adobe Illustrator 16.0.0, SVG Export Plug-In . SVG Version: 6.00 Build 0)  -->
<!DOCTYPE svg PUBLIC "-//W3C//DTD SVG 1.1//EN" "http://www.w3.org/Graphics/SVG/1.1/DTD/svg11.dtd">
<svg version="1.1" id="Layer_1" xmlns="http://www.w3.org/2000/svg" xmlns:xlink="http://www.w3.org/1999/xlink" x="0px" y="0px"
	 width="500px" height="500px" viewBox="0 0 500 500" enable-background="new 0 0 500 500" xml:space="preserve">
<g>
	<path d="M277.983,7.749v57.732c-13.665,28.013-20.727,56.142-21.181,84.379c30.516-10.932,55-26.417,73.447-46.459l57.05-18.105
		l18.789,60.465l-56.025,18.789c-7.516-1.367-14.465-2.05-20.838-2.05c-24.597,0-45.553,2.509-62.857,7.516
		c21.634,27.105,42.926,45.093,63.882,53.975l34.503,47.826l-50.559,36.553l-36.211-48.168c-2.963-28.695-13.211-55-30.746-78.913
		c-17.54,23.913-27.788,50.217-30.745,78.913l-36.211,48.168l-50.559-36.553l34.503-47.826c20.951-8.882,42.243-26.87,63.882-53.975
		c-17.31-5.007-38.261-7.516-62.857-7.516c-6.149,0-13.099,0.683-20.838,2.05L88.387,145.76l18.789-60.465l57.05,18.105
		c18.447,20.043,42.926,35.528,73.447,46.459c-0.459-28.237-7.515-56.366-21.18-84.379V7.749H277.983z"/>
</g>
</svg>
