<?xml version="1.0" encoding="utf-8"?>
<!-- Generator: Adobe Illustrator 16.0.0, SVG Export Plug-In . SVG Version: 6.00 Build 0)  -->
<!DOCTYPE svg PUBLIC "-//W3C//DTD SVG 1.1//EN" "http://www.w3.org/Graphics/SVG/1.1/DTD/svg11.dtd">
<svg version="1.1" id="Layer_1" xmlns="http://www.w3.org/2000/svg" xmlns:xlink="http://www.w3.org/1999/xlink" x="0px" y="0px"
	 width="500px" height="659.57px" viewBox="0 0 500 659.57" enable-background="new 0 0 500 659.57" xml:space="preserve">
<g>
	<path d="M151.073,300.512c16.397-0.454,30.062-4.553,40.994-12.298c10.932-7.74,18.618-19.014,23.059-33.82
		c4.441-14.801,6.662-41.335,6.662-79.596c0-48.963,2.733-83.012,8.199-102.143c5.466-19.131,15.938-33.479,31.429-43.043
		c15.484-9.565,38.261-14.348,68.322-14.348h19.131v50.901h-10.59c-22.776,0-38.261,3.816-46.46,11.444
		c-8.198,7.633-12.298,25.792-12.298,54.487c0,50.559-1.143,85.975-3.416,106.242c-2.279,20.272-8.541,37.577-18.789,51.926
		c-10.249,14.348-26.646,26.646-49.192,36.894c23.913,9.112,41.789,23.86,53.634,44.239c11.839,20.385,17.764,53.805,17.764,100.264
		c0,42.814,0.624,69.914,1.879,81.305c1.249,11.385,5.578,20.037,12.981,25.963c7.397,5.919,22.034,8.882,43.897,8.882h10.59v50.9
		h-19.131c-22.322,0-39.856-2.167-52.608-6.491c-12.757-4.328-23.859-12.469-33.307-24.425c-9.453-11.957-15.49-26.764-18.105-44.41
		c-2.621-17.651-3.929-45.723-3.929-84.208c0-38.261-2.221-64.789-6.662-79.596c-4.441-14.802-12.186-26.075-23.229-33.82
		c-11.049-7.739-24.655-11.839-40.823-12.298V300.512z"/>
</g>
</svg>
