<?xml version="1.0" encoding="utf-8"?>
<!-- Generator: Adobe Illustrator 16.0.0, SVG Export Plug-In . SVG Version: 6.00 Build 0)  -->
<!DOCTYPE svg PUBLIC "-//W3C//DTD SVG 1.1//EN" "http://www.w3.org/Graphics/SVG/1.1/DTD/svg11.dtd">
<svg version="1.1" id="Layer_1" xmlns="http://www.w3.org/2000/svg" xmlns:xlink="http://www.w3.org/1999/xlink" x="0px" y="0px"
	 width="500px" height="500px" viewBox="0 0 500 500" enable-background="new 0 0 500 500" xml:space="preserve">
<g>
	<path d="M124.937,431.009V74.705H66.521V15.264h158.167c43.498,0,76.121,2.621,97.873,7.857
		c21.746,5.242,40.936,18.506,57.563,39.798c16.621,21.298,24.938,46.289,24.938,74.984c0,22.093-4.953,42.019-14.861,59.783
		c-9.906,17.764-24.424,31.204-43.555,40.31c26.416,9.112,46.742,24.201,60.979,45.264c14.23,21.068,21.35,45.152,21.35,72.252
		c0,23.459-5.295,44.751-15.885,63.882c-10.59,19.13-24.654,33.938-42.189,44.41c-17.539,10.478-36.723,17.539-57.563,21.18
		c-20.838,3.646-49.25,5.466-85.232,5.466H66.521v-59.44H124.937z M196.675,213.059h44.751c34.161,0,58.017-5.979,71.567-17.935
		c13.549-11.957,20.326-29.549,20.326-52.779c0-45.093-30.633-67.64-91.894-67.64h-44.751V213.059z M196.675,431.009h26.988
		c35.298,0,61.149-1.762,77.546-5.296c16.398-3.527,29.773-11.839,40.141-24.938c10.359-13.094,15.543-29.892,15.543-50.388
		c0-18.672-4.953-34.333-14.859-46.973c-9.908-12.64-22.664-21.063-38.262-25.279c-15.602-4.211-37.637-6.319-66.103-6.319h-40.994
		V431.009z"/>
</g>
</svg>
