<?xml version="1.0" encoding="utf-8"?>
<!-- Generator: Adobe Illustrator 16.0.0, SVG Export Plug-In . SVG Version: 6.00 Build 0)  -->
<!DOCTYPE svg PUBLIC "-//W3C//DTD SVG 1.1//EN" "http://www.w3.org/Graphics/SVG/1.1/DTD/svg11.dtd">
<svg version="1.1" id="Layer_1" xmlns="http://www.w3.org/2000/svg" xmlns:xlink="http://www.w3.org/1999/xlink" x="0px" y="0px"
	 width="500px" height="500px" viewBox="0 0 500 500" enable-background="new 0 0 500 500" xml:space="preserve">
<g>
	<path d="M423.215,297.096l61.832,34.503c-13.893,52.838-41.965,93.773-84.207,122.811c-42.248,29.037-90.816,43.556-145.699,43.556
		c-71.968,0-129.701-23.342-173.198-70.031C38.44,381.25,16.694,323.518,16.694,254.735c0-75.379,21.864-135.391,65.59-180.031
		C126.011,30.071,183.061,7.749,253.434,7.749c62.174,0,114.439,16.968,156.801,50.9V15.264h61.49v152.702h-61.49
		c-13.664-30.969-34.732-54.941-63.199-71.91c-28.471-16.963-58.416-25.45-89.844-25.45c-47.373,0-86.258,17.081-116.662,51.242
		c-30.404,34.161-45.605,77.322-45.605,129.472c0,53.521,16.28,97.248,48.851,131.18c32.565,33.938,71.168,50.9,115.807,50.9
		c36.666,0,70.031-11.785,100.094-35.356C389.736,374.471,410.918,340.822,423.215,297.096z"/>
</g>
</svg>
