<?xml version="1.0" encoding="utf-8"?>
<!-- Generator: Adobe Illustrator 16.0.0, SVG Export Plug-In . SVG Version: 6.00 Build 0)  -->
<!DOCTYPE svg PUBLIC "-//W3C//DTD SVG 1.1//EN" "http://www.w3.org/Graphics/SVG/1.1/DTD/svg11.dtd">
<svg version="1.1" id="Layer_1" xmlns="http://www.w3.org/2000/svg" xmlns:xlink="http://www.w3.org/1999/xlink" x="0px" y="0px"
	 width="500px" height="500px" viewBox="0 0 500 500" enable-background="new 0 0 500 500" xml:space="preserve">
<g>
	<path d="M81.182,431.009V74.705H16.617V15.264h183.789c50.783,0,89.897,2.621,117.345,7.857
		c27.441,5.242,54.027,17.081,79.768,35.528c25.732,18.447,46.287,43.785,61.66,76.009c15.373,32.229,23.059,68.953,23.059,110.17
		c0,46.918-7.402,87.683-22.205,122.298c-14.807,34.62-34.219,60.465-58.244,77.546c-24.031,17.081-52.609,28.984-85.746,35.699
		c-33.137,6.72-75.325,10.077-126.567,10.077H16.617v-59.44H81.182z M152.921,431.009h37.578c41.901,0,75.096-2.616,99.58-7.857
		c24.48-5.236,45.146-14.177,62.004-26.816c16.852-12.641,30.516-31.712,40.994-57.221c10.473-25.504,15.713-55.565,15.713-90.187
		c0-41.218-8.598-76.18-25.791-104.875c-17.197-28.695-39.174-47.425-65.932-56.195c-26.764-8.765-67.928-13.152-123.494-13.152
		h-40.652V431.009z"/>
</g>
</svg>
