<?xml version="1.0" encoding="utf-8"?>
<!-- Generator: Adobe Illustrator 16.0.0, SVG Export Plug-In . SVG Version: 6.00 Build 0)  -->
<!DOCTYPE svg PUBLIC "-//W3C//DTD SVG 1.1//EN" "http://www.w3.org/Graphics/SVG/1.1/DTD/svg11.dtd">
<svg version="1.1" id="Layer_1" xmlns="http://www.w3.org/2000/svg" xmlns:xlink="http://www.w3.org/1999/xlink" x="0px" y="0px"
	 width="500px" height="500px" viewBox="0 0 500 500" enable-background="new 0 0 500 500" xml:space="preserve">
<text transform="matrix(1 0 0 1 -807.1475 474.0371)" font-family="'Rockwell'" font-size="683.4876">G</text>
<g>
	<path d="M325.066,258.531h175.168c0.228,6.272,0.347,11.849,0.347,16.73c0,68.085-22.156,122.571-66.468,163.466
		c-44.311,40.899-102.817,61.346-175.515,61.346c-87.011,0-151.86-24.921-194.555-74.764C21.345,375.468,0,316.508,0,248.423
		c0-71.332,21.81-130.584,65.429-177.757C109.048,23.498,168.245-0.089,243.021-0.089c67.159,0,123.47,20.564,168.938,61.692V7.58
		h61.273v159.285h-61.273c-11.544-26.718-32.023-50.479-61.448-71.278c-29.426-20.792-63.065-31.195-100.912-31.195
		c-52.621,0-94.163,17.896-124.627,53.676c-30.464,35.786-45.696,78.891-45.696,129.311c0,57.859,17.363,103.751,52.1,137.674
		c34.732,33.93,76.561,50.888,125.492,50.888c38.308,0,72.465-10.746,102.47-32.24c29.998-21.489,47.542-49.668,52.621-84.523
		h-86.893V258.531z"/>
</g>
</svg>
