<?xml version="1.0" encoding="utf-8"?>
<!-- Generator: Adobe Illustrator 16.0.0, SVG Export Plug-In . SVG Version: 6.00 Build 0)  -->
<!DOCTYPE svg PUBLIC "-//W3C//DTD SVG 1.1//EN" "http://www.w3.org/Graphics/SVG/1.1/DTD/svg11.dtd">
<svg version="1.1" id="Layer_1" xmlns="http://www.w3.org/2000/svg" xmlns:xlink="http://www.w3.org/1999/xlink" x="0px" y="0px"
	 width="500px" height="500px" viewBox="0 0 500 500" enable-background="new 0 0 500 500" xml:space="preserve">
<g>
	<path d="M320.771,253.763h169.062c0.22,6.015,0.334,11.36,0.334,16.038c0,65.267-21.383,117.498-64.149,156.699
		c-42.767,39.206-99.231,58.804-169.396,58.804c-83.978,0-146.566-23.89-187.772-71.667C27.638,365.858,7.038,309.341,7.038,244.073
		c0-68.378,21.049-125.177,63.147-170.397c42.099-45.215,99.232-67.825,171.4-67.825c64.818,0,119.164,19.713,163.047,59.138V13.201
		h59.139v152.69h-59.139c-11.141-25.612-30.905-48.389-59.305-68.326c-28.399-19.932-60.866-29.903-97.394-29.903
		c-50.785,0-90.879,17.155-120.281,51.454C98.251,153.419,83.55,194.74,83.55,243.071c0,55.463,16.758,99.456,50.284,131.975
		c33.521,32.524,73.891,48.781,121.116,48.781c36.972,0,69.939-10.301,98.897-30.906c28.953-20.6,45.884-47.61,50.785-81.022
		h-83.862V253.763z"/>
</g>
</svg>
