<?xml version="1.0" encoding="utf-8"?>
<!-- Generator: Adobe Illustrator 16.0.0, SVG Export Plug-In . SVG Version: 6.00 Build 0)  -->
<!DOCTYPE svg PUBLIC "-//W3C//DTD SVG 1.1//EN" "http://www.w3.org/Graphics/SVG/1.1/DTD/svg11.dtd">
<svg version="1.1" id="Layer_1" xmlns="http://www.w3.org/2000/svg" xmlns:xlink="http://www.w3.org/1999/xlink" x="0px" y="0px"
	 width="500px" height="500px" viewBox="0 0 500 500" enable-background="new 0 0 500 500" xml:space="preserve">
<g>
	<path d="M6.129,250.636c0-69.006,22.546-126.739,67.64-173.199C118.862,30.978,177.62,7.749,250.042,7.749
		c73.104,0,132.659,23.229,178.665,69.689c46,46.459,69.006,104.651,69.006,174.565c0,71.285-23.4,130.102-70.203,176.443
		c-46.801,46.348-106.301,69.519-178.493,69.519c-46.006,0-88.307-10.985-126.91-32.966c-38.603-21.976-67.586-52.608-86.941-91.895
		C15.807,333.819,6.129,292.996,6.129,250.636z M84.359,250.978c0,52.155,15.255,95.882,45.776,131.18
		c30.516,35.304,70.597,52.95,120.248,52.95c49.193,0,89.615-18.047,121.273-54.146c31.652-36.094,47.484-79.196,47.484-129.301
		c0-50.559-16.115-93.314-48.338-128.276c-32.229-34.957-72.711-52.438-121.444-52.438c-48.509,0-88.137,17.198-118.882,51.584
		C99.731,156.922,84.359,199.735,84.359,250.978z"/>
</g>
</svg>
