<?xml version="1.0" encoding="utf-8"?>
<!-- Generator: Adobe Illustrator 16.0.0, SVG Export Plug-In . SVG Version: 6.00 Build 0)  -->
<!DOCTYPE svg PUBLIC "-//W3C//DTD SVG 1.1//EN" "http://www.w3.org/Graphics/SVG/1.1/DTD/svg11.dtd">
<svg version="1.1" id="Layer_1" xmlns="http://www.w3.org/2000/svg" xmlns:xlink="http://www.w3.org/1999/xlink" x="0px" y="0px"
	 width="500px" height="500px" viewBox="0 0 500 500" enable-background="new 0 0 500 500" xml:space="preserve">
<g>
	<path d="M126.011,431.009V74.705H66.229V15.264h169.782c49.875,0,87.223,3.534,112.049,10.59
		c24.82,7.062,45.605,23.059,62.345,47.997c16.739,24.938,25.108,54.375,25.108,88.308c0,27.104-5.524,51.413-16.568,72.935
		c-11.049,21.521-24.714,37.406-40.993,47.655c-16.286,10.248-34.621,17.139-55,20.667c-20.385,3.534-51.189,5.296-92.407,5.296
		H197.75v122.298h61.49v59.44H66.229v-59.44H126.011z M197.75,251.319h40.994c46.684,0,79.024-6.662,97.019-19.984
		c17.988-13.323,26.987-36.836,26.987-70.543c0-21.404-4.782-39.168-14.348-53.292c-9.565-14.118-21.41-23.112-35.528-26.987
		c-14.123-3.87-37.694-5.808-70.714-5.808h-44.41V251.319z"/>
</g>
</svg>
