<?xml version="1.0" encoding="utf-8"?>
<!-- Generator: Adobe Illustrator 16.0.0, SVG Export Plug-In . SVG Version: 6.00 Build 0)  -->
<!DOCTYPE svg PUBLIC "-//W3C//DTD SVG 1.1//EN" "http://www.w3.org/Graphics/SVG/1.1/DTD/svg11.dtd">
<svg version="1.1" id="Layer_1" xmlns="http://www.w3.org/2000/svg" xmlns:xlink="http://www.w3.org/1999/xlink" x="0px" y="0px"
	 width="500px" height="500px" viewBox="0 0 500 500" enable-background="new 0 0 500 500" xml:space="preserve">

<text transform="matrix(1 0 0 1 -807.1475 474.0371)" font-family="'Rockwell'" font-size="683.4876">Q</text>

<g>
	<path d="M278.224,424.934l12.201,5.357c32.333,13.287,57.232,19.937,74.691,19.937c5.552,0,12.796-0.894,21.723-2.679
		l-22.021,51.183c-5.951,0.991-11.41,1.487-16.367,1.487c-19.639,0-46.719-8.359-81.236-25.07
		c-29.758-14.324-53.168-21.485-70.228-21.485c-17.659,0-31.84,4.906-42.553,14.716l-17.557-25.293
		c11.703-12.697,26.977-21.031,45.826-24.996c-33.328-10.514-61.551-27.424-84.659-50.737
		c-23.113-23.308-39.233-48.401-48.356-75.284C40.561,265.188,36,238.458,36,211.872c0-58.52,19.342-108.465,58.027-149.828
		C132.711,20.681,184.191,0,248.467,0c64.277,0,116.248,20.137,155.929,60.407c39.675,40.275,59.514,91.057,59.514,152.357
		c0,32.538-6.248,63.531-18.745,92.992c-12.499,29.46-33.925,55.897-64.277,79.303C350.534,408.47,316.313,421.758,278.224,424.934z
		 M104.144,211.872c0,45.431,13.289,83.519,39.875,114.267c26.581,30.753,61.495,46.125,104.746,46.125
		c42.852,0,78.063-15.72,105.64-47.166c27.571-31.439,41.362-68.986,41.362-112.631c0-44.041-14.039-81.283-42.108-111.738
		c-28.072-30.45-63.336-45.678-105.787-45.678c-42.254,0-76.773,14.981-103.555,44.934
		C117.535,129.942,104.144,167.236,104.144,211.872z"/>
</g>
</svg>
