<?xml version="1.0" encoding="utf-8"?>
<!-- Generator: Adobe Illustrator 16.0.0, SVG Export Plug-In . SVG Version: 6.00 Build 0)  -->
<!DOCTYPE svg PUBLIC "-//W3C//DTD SVG 1.1//EN" "http://www.w3.org/Graphics/SVG/1.1/DTD/svg11.dtd">
<svg version="1.1" id="Layer_1" xmlns="http://www.w3.org/2000/svg" xmlns:xlink="http://www.w3.org/1999/xlink" x="0px" y="0px"
	 width="500px" height="500px" viewBox="0 0 500 500" enable-background="new 0 0 500 500" xml:space="preserve">
<g>
	<path d="M1018.845,324.227H847.216l-36.447,113.231h57.879V500H680.966v-62.542h57.646L868.681,56.435h-57.569V0h243.507v56.435
		H995.07l133.315,381.023h53.295V500H995.025v-62.542h59.25L1018.845,324.227z M1000.885,265.636L937.488,56.435h-6.508
		l-65.998,209.201H1000.885z"/>
</g>
<text transform="matrix(1 0 0 1 -807.1475 474.0371)" font-family="'Rockwell'" font-size="683.4876">Q</text>
<g>
	<path d="M1297.785,225.455v-374.91h-61.467V-212h166.428c45.769,0,80.097,2.757,102.983,8.267
		c22.881,5.515,43.072,19.473,60.567,41.876c17.49,22.409,26.24,48.706,26.24,78.9c0,23.246-5.213,44.213-15.635,62.904
		c-10.425,18.691-25.701,32.833-45.83,42.417c27.795,9.586,49.183,25.464,64.16,47.627c14.974,22.167,22.467,47.509,22.467,76.025
		c0,24.685-5.572,47.089-16.715,67.217c-11.143,20.13-25.942,35.709-44.392,46.729c-18.456,11.025-38.641,18.455-60.568,22.287
		c-21.927,3.834-51.823,5.751-89.683,5.751h-170.023v-62.545H1297.785z M1373.271-3.877h47.089c35.946,0,61.046-6.291,75.305-18.871
		c14.256-12.581,21.388-31.093,21.388-55.536c0-47.447-32.233-71.171-96.692-71.171h-47.089V-3.877z M1373.271,225.455h28.397
		c37.142,0,64.342-1.853,81.596-5.571c17.255-3.713,31.327-12.458,42.235-26.24c10.902-13.776,16.355-31.45,16.355-53.021
		c0-19.645-5.213-36.123-15.636-49.424c-10.424-13.3-23.846-22.161-40.26-26.6c-16.416-4.432-39.601-6.65-69.554-6.65h-43.135
		V225.455z"/>
</g>
<g>
	<path d="M895.124-386.533h175.168c0.228,6.272,0.347,11.849,0.347,16.73c0,68.085-22.156,122.571-66.468,163.466
		c-44.311,40.899-102.817,61.346-175.515,61.346c-87.011,0-151.86-24.921-194.555-74.764
		c-42.699-49.842-64.044-108.802-64.044-176.886c0-71.332,21.81-130.584,65.429-177.757
		c43.619-47.168,102.816-70.755,177.592-70.755c67.159,0,123.47,20.564,168.938,61.692v-54.024h61.273V-478.2h-61.273
		c-11.544-26.718-32.023-50.479-61.448-71.278c-29.426-20.792-63.065-31.195-100.912-31.195c-52.62,0-94.162,17.896-124.627,53.676
		c-30.464,35.786-45.695,78.891-45.695,129.311c0,57.859,17.363,103.751,52.1,137.674c34.732,33.93,76.561,50.888,125.492,50.888
		c38.308,0,72.465-10.746,102.47-32.24c29.998-21.489,47.542-49.668,52.621-84.523h-86.893V-386.533z"/>
</g>
<g>
	<path d="M278.224,424.934l12.201,5.357c32.333,13.287,57.232,19.937,74.691,19.937c5.552,0,12.796-0.894,21.723-2.679
		l-22.021,51.183c-5.951,0.991-11.41,1.487-16.367,1.487c-19.639,0-46.719-8.359-81.236-25.07
		c-29.758-14.324-53.168-21.485-70.228-21.485c-17.659,0-31.84,4.906-42.553,14.716l-17.557-25.293
		c11.703-12.697,26.977-21.031,45.826-24.996c-33.328-10.514-61.551-27.424-84.659-50.737
		c-23.113-23.308-39.233-48.401-48.356-75.284C40.561,265.188,36,238.458,36,211.872c0-58.52,19.342-108.465,58.027-149.828
		C132.711,20.681,184.191,0,248.467,0c64.277,0,116.248,20.137,155.929,60.407c39.675,40.275,59.514,91.057,59.514,152.357
		c0,32.538-6.248,63.531-18.745,92.992c-12.499,29.46-33.925,55.897-64.277,79.303C350.534,408.47,316.313,421.758,278.224,424.934z
		 M104.144,211.872c0,45.431,13.289,83.519,39.875,114.267c26.581,30.753,61.495,46.125,104.746,46.125
		c42.852,0,78.063-15.72,105.64-47.166c27.571-31.439,41.362-68.986,41.362-112.631c0-44.041-14.039-81.283-42.108-111.738
		c-28.072-30.45-63.336-45.678-105.787-45.678c-42.254,0-76.773,14.981-103.555,44.934
		C117.535,129.942,104.144,167.236,104.144,211.872z"/>
</g>
</svg>
