<?xml version="1.0" encoding="utf-8"?>
<!-- Generator: Adobe Illustrator 16.0.0, SVG Export Plug-In . SVG Version: 6.00 Build 0)  -->
<!DOCTYPE svg PUBLIC "-//W3C//DTD SVG 1.1//EN" "http://www.w3.org/Graphics/SVG/1.1/DTD/svg11.dtd">
<svg version="1.1" id="Layer_1" xmlns="http://www.w3.org/2000/svg" xmlns:xlink="http://www.w3.org/1999/xlink" x="0px" y="0px"
	 width="500px" height="500px" viewBox="0 0 500 500" enable-background="new 0 0 500 500" xml:space="preserve">
<g>
	<path d="M111.592,431.009V74.705H46.343V15.264h193.012c40.311,0,72.305,3.133,95.994,9.395
		c23.684,6.267,43.268,19.472,58.758,39.627c15.484,20.155,23.229,45.258,23.229,75.315c0,62.852-32.65,102.362-97.947,118.529
		l83.941,172.879h58.074v59.44H358.482L250.287,268.4h-66.957v162.608h60.808v59.44H46.343v-59.44H111.592z M183.331,208.959h56.025
		c27.1,0,47.084-1.761,59.953-5.295c12.863-3.528,23.4-10.702,31.6-21.521c8.199-10.814,12.299-25.333,12.299-43.556
		c0-15.484-4.158-28.578-12.471-39.286c-8.314-10.702-18.564-17.476-30.744-20.326c-12.186-2.845-30.805-4.271-55.854-4.271h-60.808
		V208.959z"/>
</g>
</svg>
