<?xml version="1.0" encoding="utf-8"?>
<!-- Generator: Adobe Illustrator 16.0.0, SVG Export Plug-In . SVG Version: 6.00 Build 0)  -->
<!DOCTYPE svg PUBLIC "-//W3C//DTD SVG 1.1//EN" "http://www.w3.org/Graphics/SVG/1.1/DTD/svg11.dtd">
<svg version="1.1" id="Layer_1" xmlns="http://www.w3.org/2000/svg" xmlns:xlink="http://www.w3.org/1999/xlink" x="0px" y="0px"
	 width="500px" height="500px" viewBox="0 0 500 500" enable-background="new 0 0 500 500" xml:space="preserve">
<g>
	<path d="M91.337,490.449V317.934h59.441v42.019c28.466,51.701,65.702,77.547,111.708,77.547c23.453,0,43.268-7.174,59.439-21.521
		c16.168-14.348,24.256-33.137,24.256-56.366c0-22.547-6.609-38.773-19.814-48.681c-13.211-9.906-38.148-19.755-74.813-29.55
		c-42.59-11.385-74.131-22.146-94.627-32.282c-20.497-10.131-36.841-24.596-49.022-43.385
		c-12.186-18.789-18.276-41.047-18.276-66.786c0-39.852,13.264-71.68,39.798-95.481c26.528-23.796,59.836-35.699,99.922-35.699
		c38.032,0,73.331,12.298,105.901,36.894v-31.77h58.074v144.161H335.25v-33.137c-24.373-36.665-57.963-55-100.776-55
		c-25.963,0-45.894,5.978-59.783,17.935c-13.894,11.957-20.838,26.251-20.838,42.873c0,12.757,3.528,23.972,10.59,33.649
		c7.057,9.683,16.056,16.798,26.988,21.351c10.932,4.558,32.453,10.921,64.576,19.098c41.912,10.9,72.316,21.079,91.217,30.532
		c18.895,9.458,35.176,25.232,48.84,47.33c13.658,22.099,20.492,47.495,20.492,76.196c0,40.556-14.295,74.045-42.873,100.467
		c-28.584,26.427-63.941,39.638-106.072,39.638c-43.272,0-82.216-15.597-116.832-46.801v39.285H91.337z"/>
</g>
</svg>
