<?xml version="1.0" encoding="utf-8"?>
<!-- Generator: Adobe Illustrator 16.0.0, SVG Export Plug-In . SVG Version: 6.00 Build 0)  -->
<!DOCTYPE svg PUBLIC "-//W3C//DTD SVG 1.1//EN" "http://www.w3.org/Graphics/SVG/1.1/DTD/svg11.dtd">
<svg version="1.1" id="Layer_1" xmlns="http://www.w3.org/2000/svg" xmlns:xlink="http://www.w3.org/1999/xlink" x="0px" y="0px"
	 width="500px" height="500px" viewBox="0 0 500 500" enable-background="new 0 0 500 500" xml:space="preserve">
<g>
	<path d="M150.731,74.705v237.763c0,36.895,1.879,62.403,5.637,76.522c3.758,14.123,13.152,26.133,28.183,36.04
		c15.031,9.906,34.386,14.86,58.074,14.86c28.236,0,49.876-4.271,64.908-12.811c15.029-8.541,24.99-20.038,29.891-34.503
		c4.895-14.46,7.344-40.022,7.344-76.692V74.705h-55V15.264h185.84v59.441h-59.441v248.354c0,33.478-1.426,57.791-4.27,72.935
		c-2.852,15.148-10.537,30.975-23.061,47.484c-12.527,16.515-30.18,29.72-52.949,39.627c-22.777,9.907-50.447,14.86-83.013,14.86
		c-35.987,0-65.932-4.612-89.844-13.836c-23.913-9.223-41.907-21.574-53.975-37.064C96.98,431.579,88.953,415.07,84.971,397.53
		c-3.987-17.534-5.978-44.752-5.978-81.646V74.705H20.235V15.264h186.863v59.441H150.731z"/>
</g>
</svg>
