<?xml version="1.0" encoding="utf-8"?>
<!-- Generator: Adobe Illustrator 16.0.0, SVG Export Plug-In . SVG Version: 6.00 Build 0)  -->
<!DOCTYPE svg PUBLIC "-//W3C//DTD SVG 1.1//EN" "http://www.w3.org/Graphics/SVG/1.1/DTD/svg11.dtd">
<svg version="1.1" id="Layer_1" xmlns="http://www.w3.org/2000/svg" xmlns:xlink="http://www.w3.org/1999/xlink" x="0px" y="0px"
	 width="500px" height="500px" viewBox="0 0 500 500" enable-background="new 0 0 500 500" xml:space="preserve">
<g>
	<path d="M80.12,87.968H57.655v-2.704c1.98-0.127,3.625-0.381,4.932-0.762c1.308-0.381,1.961-0.851,1.961-1.409
		c0-0.229-0.025-0.508-0.076-0.838c-0.051-0.33-0.126-0.622-0.228-0.876l-4.476-12.111H40.797c-0.711,1.777-1.29,3.327-1.735,4.646
		c-0.445,1.32-0.846,2.539-1.202,3.656c-0.331,1.092-0.56,1.98-0.687,2.666c-0.127,0.686-0.19,1.244-0.19,1.676
		c0,1.016,0.8,1.803,2.399,2.361c1.6,0.559,3.403,0.889,5.409,0.99v2.704H24.438v-2.704c0.661-0.051,1.485-0.196,2.476-0.438
		c0.99-0.241,1.803-0.565,2.438-0.971c1.015-0.686,1.803-1.403,2.361-2.152c0.558-0.749,1.104-1.784,1.638-3.104
		c2.717-6.779,5.713-14.396,8.988-22.852s6.195-15.983,8.76-22.585h3.047L72.16,79.779c0.381,0.99,0.813,1.79,1.295,2.399
		c0.482,0.609,1.155,1.206,2.019,1.79c0.584,0.356,1.346,0.654,2.285,0.895c0.939,0.242,1.727,0.375,2.361,0.4V87.968z
		 M58.377,65.878L50.19,44.906l-8.069,20.972H58.377z"/>
	<path d="M133.696,62.793c1.574,1.066,2.881,2.463,3.923,4.189c1.041,1.727,1.562,3.822,1.562,6.284
		c0,2.514-0.546,4.698-1.638,6.551c-1.092,1.854-2.514,3.377-4.266,4.57c-1.701,1.168-3.625,2.057-5.77,2.666
		c-2.146,0.609-4.361,0.914-6.646,0.914H95.268v-2.704c0.609-0.051,1.498-0.158,2.666-0.324c1.167-0.165,2.005-0.362,2.514-0.59
		c0.787-0.355,1.346-0.832,1.676-1.428c0.33-0.596,0.495-1.365,0.495-2.304V41.77c0-0.863-0.146-1.625-0.438-2.285
		c-0.292-0.66-0.87-1.193-1.733-1.6c-0.762-0.381-1.613-0.672-2.552-0.876c-0.939-0.203-1.727-0.33-2.361-0.381v-2.704h24.946
		c1.929,0,3.776,0.19,5.542,0.571c1.765,0.381,3.447,1.054,5.046,2.019c1.498,0.889,2.729,2.095,3.694,3.618
		c0.965,1.523,1.447,3.377,1.447,5.561c0,1.904-0.343,3.599-1.028,5.084s-1.651,2.761-2.895,3.828
		c-1.168,1.016-2.508,1.873-4.018,2.571c-1.511,0.699-3.142,1.238-4.894,1.619v0.343c1.548,0.178,3.281,0.565,5.199,1.162
		C130.491,60.895,132.198,61.727,133.696,62.793z M124.485,54.637c0.937-1.094,1.589-2.29,1.957-3.587
		c0.367-1.297,0.551-2.836,0.551-4.617c0-2.976-0.811-5.31-2.432-7.001c-1.621-1.691-4.179-2.538-7.675-2.538
		c-0.811,0-1.831,0.019-3.059,0.057s-2.261,0.07-3.097,0.095v20.795h4.826c2.077,0,3.857-0.267,5.338-0.801
		C122.376,56.506,123.573,55.706,124.485,54.637z M129.773,71.896c0-3.199-1.073-5.827-3.218-7.884
		c-2.146-2.057-5.212-3.085-9.198-3.085c-1.625,0-2.996,0.019-4.113,0.057c-1.118,0.038-1.956,0.07-2.514,0.095v19.043
		c0,1.6,0.647,2.806,1.942,3.618c1.295,0.813,3.098,1.219,5.408,1.219c3.783,0,6.678-1.104,8.684-3.313
		C128.77,79.437,129.773,76.187,129.773,71.896z"/>
	<path d="M183.482,89.263c-3.222,0-6.311-0.636-9.267-1.905c-2.956-1.27-5.575-3.1-7.858-5.488c-2.258-2.388-4.06-5.303-5.404-8.747
		c-1.345-3.442-2.017-7.324-2.017-11.643c0-4.319,0.659-8.238,1.979-11.758c1.319-3.519,3.145-6.548,5.479-9.089
		c2.309-2.515,5.035-4.458,8.181-5.831c3.146-1.373,6.506-2.059,10.083-2.059c2.663,0,5.073,0.33,7.229,0.99
		c2.156,0.661,4.21,1.587,6.164,2.78l1.561-2.59h3.047l0.343,19.271h-3.123c-0.406-1.879-1.015-3.917-1.826-6.113
		c-0.812-2.196-1.763-4.056-2.853-5.58c-1.218-1.727-2.663-3.079-4.336-4.056c-1.674-0.977-3.588-1.466-5.744-1.466
		c-2.46,0-4.75,0.546-6.867,1.639c-2.117,1.093-3.949,2.707-5.496,4.841c-1.471,2.059-2.625,4.676-3.462,7.852
		c-0.836,3.177-1.255,6.721-1.255,10.634c0,3.456,0.438,6.626,1.312,9.51c0.875,2.884,2.125,5.419,3.748,7.604
		c1.623,2.16,3.544,3.85,5.763,5.07c2.219,1.22,4.698,1.829,7.438,1.829c2.054,0,3.943-0.324,5.668-0.971s3.221-1.504,4.489-2.571
		c1.268-1.117,2.383-2.386,3.348-3.809c0.964-1.422,1.75-2.971,2.359-4.646l2.856,1.371c-2.182,5.357-5.074,9.185-8.676,11.483
		C192.741,88.114,188.454,89.263,183.482,89.263z"/>
	<path d="M274.859,61.27c0,4.596-0.863,8.583-2.59,11.959c-1.727,3.377-3.974,6.145-6.74,8.303c-2.794,2.158-5.93,3.771-9.408,4.837
		s-7.071,1.6-10.778,1.6h-22.395v-2.704c0.736,0,1.695-0.07,2.875-0.209c1.181-0.139,1.961-0.298,2.342-0.476
		c0.762-0.33,1.314-0.819,1.657-1.466s0.514-1.428,0.514-2.342v-39c0-0.863-0.146-1.638-0.438-2.323
		c-0.292-0.686-0.87-1.231-1.733-1.638c-0.787-0.381-1.638-0.66-2.552-0.838c-0.914-0.177-1.701-0.292-2.361-0.343v-2.704h23.613
		c3.25,0,6.45,0.501,9.598,1.504c3.147,1.003,5.89,2.355,8.227,4.056c3.174,2.26,5.661,5.218,7.465,8.874
		C273.959,52.015,274.859,56.318,274.859,61.27z M265.529,61.25c0-3.627-0.482-6.907-1.447-9.837
		c-0.966-2.93-2.375-5.486-4.229-7.668c-1.752-2.081-3.903-3.716-6.455-4.909c-2.552-1.193-5.389-1.789-8.512-1.789
		c-1.042,0-2.215,0.019-3.523,0.057c-1.308,0.038-2.279,0.07-2.914,0.095v41.519c0,2.309,0.672,3.907,2.019,4.795
		c1.346,0.888,3.415,1.332,6.208,1.332c3.224,0,6.042-0.571,8.455-1.712c2.412-1.142,4.367-2.728,5.865-4.757
		c1.574-2.131,2.724-4.598,3.447-7.402C265.167,68.17,265.529,64.929,265.529,61.25z"/>
	<path d="M340.281,72.048l-1.029,15.92h-44.864v-2.704c0.762-0.051,1.776-0.158,3.047-0.324c1.27-0.165,2.095-0.336,2.476-0.514
		c0.813-0.381,1.377-0.876,1.695-1.485c0.316-0.609,0.476-1.384,0.476-2.323V41.77c0-0.838-0.14-1.581-0.419-2.228
		s-0.863-1.174-1.752-1.581c-0.686-0.33-1.605-0.622-2.762-0.876c-1.155-0.253-2.075-0.406-2.761-0.457v-2.704h41.817v13.025h-2.855
		c-0.508-1.929-1.607-3.98-3.295-6.151c-1.689-2.171-3.295-3.357-4.818-3.561c-0.787-0.101-1.727-0.177-2.818-0.229
		c-1.092-0.051-2.336-0.076-3.732-0.076h-8.492v21.48h6.094c1.955,0,3.383-0.184,4.283-0.552c0.902-0.368,1.695-0.984,2.381-1.847
		c0.559-0.736,1.035-1.72,1.428-2.952c0.395-1.231,0.654-2.393,0.781-3.485h2.857v21.176h-2.857
		c-0.102-1.219-0.375-2.507-0.818-3.866c-0.445-1.358-0.908-2.342-1.391-2.952c-0.787-0.99-1.682-1.638-2.686-1.942
		c-1.002-0.305-2.328-0.457-3.979-0.457h-6.094v16.198c0,1.623,0.113,2.902,0.342,3.84s0.674,1.648,1.334,2.129
		c0.66,0.482,1.561,0.792,2.703,0.932s2.768,0.209,4.875,0.209c0.838,0,1.943,0,3.314,0s2.525-0.051,3.465-0.152
		c0.965-0.101,1.961-0.286,2.99-0.552c1.027-0.267,1.758-0.628,2.189-1.085c1.168-1.219,2.393-3.066,3.676-5.542
		c1.281-2.476,2.102-4.297,2.457-5.465H340.281z"/>
	<path d="M401.057,47.444h-2.857c-0.533-2.005-1.645-4.151-3.332-6.437c-1.689-2.285-3.307-3.542-4.855-3.771
		c-0.787-0.101-1.721-0.177-2.801-0.229c-1.078-0.051-2.303-0.076-3.674-0.076h-9.064v21.709h6.223c1.883,0,3.346-0.196,4.391-0.59
		c1.043-0.394,1.934-0.996,2.674-1.809c0.508-0.558,0.973-1.428,1.393-2.609s0.693-2.443,0.82-3.79h2.857v21.252h-2.857
		c-0.076-1.117-0.338-2.386-0.781-3.809c-0.447-1.422-0.924-2.45-1.432-3.085c-0.766-0.939-1.725-1.581-2.883-1.923
		s-2.553-0.514-4.182-0.514h-6.223v18.594c0,0.836,0.164,1.584,0.494,2.244c0.33,0.659,0.914,1.191,1.752,1.597
		c0.381,0.177,1.207,0.393,2.477,0.646s2.234,0.394,2.895,0.418v2.704h-23.424v-2.704c0.762-0.051,1.777-0.133,3.047-0.248
		s2.096-0.26,2.477-0.438c0.762-0.33,1.313-0.819,1.656-1.466c0.342-0.647,0.514-1.428,0.514-2.342v-39
		c0-0.838-0.139-1.581-0.418-2.228s-0.863-1.174-1.752-1.581c-0.686-0.33-1.607-0.622-2.762-0.876
		c-1.156-0.253-2.076-0.406-2.762-0.457v-2.704h42.391V47.444z"/>
	<path d="M471.467,66.411c-0.609,0.076-1.43,0.197-2.457,0.362c-1.029,0.166-1.859,0.4-2.494,0.705
		c-0.762,0.381-1.303,0.92-1.619,1.619c-0.318,0.699-0.477,1.518-0.477,2.457v4.189c0,3.047,0.02,5.104,0.057,6.17
		c0.039,1.066,0.084,1.942,0.135,2.628c-3.377,1.523-6.742,2.691-10.094,3.504s-6.639,1.219-9.863,1.219
		c-3.453,0-6.779-0.648-9.979-1.943c-3.199-1.296-5.992-3.138-8.379-5.526c-2.412-2.414-4.33-5.349-5.752-8.804
		s-2.133-7.317-2.133-11.586c0-4.116,0.68-7.933,2.037-11.452c1.359-3.519,3.283-6.574,5.771-9.166
		c2.412-2.541,5.287-4.516,8.625-5.926c3.34-1.411,6.914-2.116,10.723-2.116c3.047,0,5.699,0.368,7.959,1.104
		c2.26,0.737,4.254,1.625,5.98,2.666l1.561-2.59h3.047l0.344,18.891h-3.123c-0.535-2.082-1.195-4.132-1.982-6.151
		c-0.789-2.019-1.807-3.828-3.051-5.427c-1.246-1.6-2.766-2.875-4.557-3.828c-1.793-0.952-3.934-1.428-6.424-1.428
		c-2.721,0-5.148,0.553-7.283,1.658c-2.135,1.106-3.992,2.75-5.568,4.936c-1.551,2.109-2.744,4.74-3.584,7.89
		c-0.838,3.151-1.258,6.67-1.258,10.558c0,3.431,0.414,6.665,1.24,9.701s2.027,5.66,3.604,7.871c1.576,2.261,3.547,4.04,5.91,5.336
		c2.365,1.296,5.047,1.943,8.047,1.943c2.238,0,4.277-0.343,6.121-1.028s3.146-1.409,3.908-2.171
		c0.205-1.32,0.313-2.653,0.324-3.999c0.014-1.346,0.02-2.488,0.02-3.428v-2.971c0-1.066-0.146-2.012-0.438-2.837
		c-0.293-0.825-0.895-1.428-1.809-1.809c-0.838-0.381-1.975-0.667-3.41-0.857c-1.434-0.19-2.557-0.311-3.369-0.362v-2.78h23.689
		V66.411z"/>
	<path d="M85.68,181.568H63.248v-2.704c0.609-0.051,1.491-0.127,2.647-0.229c1.155-0.101,1.948-0.253,2.38-0.457
		c0.762-0.305,1.32-0.768,1.676-1.39c0.355-0.622,0.533-1.428,0.533-2.418v-19.233H45.081v18.814c0,0.889,0.146,1.638,0.438,2.247
		c0.292,0.609,0.87,1.143,1.733,1.6c0.432,0.229,1.2,0.457,2.304,0.686s1.974,0.356,2.609,0.381v2.704H29.732v-2.704
		c0.609-0.051,1.491-0.127,2.647-0.229c1.155-0.101,1.948-0.253,2.38-0.457c0.762-0.305,1.32-0.768,1.676-1.39
		c0.355-0.622,0.533-1.428,0.533-2.418v-39c0-0.813-0.166-1.555-0.495-2.228c-0.33-0.672-0.901-1.2-1.714-1.581
		c-0.686-0.33-1.518-0.622-2.495-0.876c-0.978-0.253-1.822-0.406-2.533-0.457v-2.704h22.433v2.704
		c-0.711,0.025-1.581,0.14-2.609,0.343c-1.028,0.204-1.796,0.394-2.304,0.571c-0.863,0.305-1.441,0.813-1.733,1.523
		c-0.292,0.711-0.438,1.485-0.438,2.323v16.758h25.403V135.37c0-0.813-0.166-1.555-0.495-2.228c-0.33-0.672-0.901-1.2-1.714-1.581
		c-0.686-0.33-1.518-0.622-2.495-0.876c-0.978-0.253-1.822-0.406-2.533-0.457v-2.704H85.68v2.704
		c-0.711,0.025-1.581,0.14-2.609,0.343c-1.028,0.204-1.796,0.394-2.304,0.571c-0.863,0.305-1.441,0.813-1.733,1.523
		c-0.292,0.711-0.438,1.485-0.438,2.323v38.962c0,0.889,0.146,1.638,0.438,2.247c0.292,0.609,0.87,1.143,1.733,1.6
		c0.432,0.229,1.2,0.457,2.304,0.686s1.974,0.356,2.609,0.381V181.568z"/>
	<path d="M129.958,181.568h-24.337v-2.704c0.686-0.051,1.676-0.127,2.971-0.229c1.295-0.101,2.209-0.253,2.742-0.457
		c0.838-0.33,1.447-0.781,1.828-1.352s0.571-1.365,0.571-2.38v-39.152c0-0.889-0.14-1.631-0.419-2.228
		c-0.28-0.596-0.939-1.098-1.98-1.504c-0.762-0.305-1.72-0.59-2.875-0.857c-1.156-0.267-2.101-0.425-2.837-0.476v-2.704h24.337
		v2.704c-0.787,0.025-1.727,0.121-2.818,0.286c-1.092,0.166-2.044,0.375-2.856,0.628c-0.965,0.305-1.613,0.8-1.942,1.485
		c-0.33,0.686-0.495,1.447-0.495,2.285v39.114c0,0.838,0.184,1.581,0.552,2.228c0.368,0.647,0.996,1.162,1.885,1.542
		c0.533,0.204,1.403,0.425,2.609,0.667c1.206,0.242,2.228,0.375,3.066,0.4V181.568z"/>
	<path d="M184.365,130.228c-0.711,0.025-1.594,0.121-2.647,0.286c-1.054,0.166-1.949,0.375-2.685,0.628
		c-0.863,0.305-1.447,0.813-1.752,1.523c-0.305,0.711-0.457,1.485-0.457,2.323v32.03c0,1.676-0.337,3.453-1.009,5.332
		c-0.673,1.879-1.657,3.555-2.952,5.027c-1.499,1.727-3.282,3.072-5.351,4.037c-2.07,0.965-4.437,1.447-7.103,1.447
		c-4.139,0-7.497-1.162-10.074-3.485c-2.577-2.323-3.866-5.452-3.866-9.388c0-1.727,0.444-3.256,1.333-4.589
		c0.889-1.333,2.184-2,3.885-2c1.523,0,2.748,0.425,3.675,1.276c0.927,0.851,1.39,1.975,1.39,3.371c0,0.813-0.166,1.625-0.495,2.438
		c-0.33,0.813-0.699,1.537-1.104,2.171c-0.381,0.584-0.813,1.27-1.295,2.057c-0.482,0.787-0.825,1.499-1.028,2.133
		c0.533,0.838,1.365,1.575,2.495,2.209c1.129,0.635,2.647,0.952,4.551,0.952c1.853,0,3.371-0.425,4.551-1.276
		c1.181-0.851,2.063-1.986,2.647-3.409c0.558-1.32,0.958-2.945,1.2-4.875c0.241-1.929,0.362-4.088,0.362-6.475V135.37
		c0-0.889-0.146-1.631-0.438-2.228c-0.292-0.596-0.895-1.124-1.809-1.581c-0.787-0.406-1.771-0.717-2.952-0.933
		c-1.181-0.215-2.152-0.349-2.914-0.4v-2.704h23.842V130.228z"/>
	<path d="M255.646,181.568h-15.158c-2.92-4.519-6.164-9.007-9.731-13.463c-3.567-4.456-7.307-8.779-11.216-12.968h-0.99v18.814
		c0,0.838,0.158,1.587,0.476,2.247c0.317,0.661,0.895,1.194,1.733,1.6c0.406,0.178,1.162,0.394,2.266,0.647
		c1.104,0.254,2.024,0.394,2.761,0.419v2.704h-22.433v-2.704c0.584-0.051,1.434-0.127,2.552-0.229
		c1.117-0.101,1.904-0.253,2.361-0.457c0.762-0.33,1.314-0.819,1.657-1.466s0.514-1.428,0.514-2.342v-39
		c0-0.863-0.146-1.612-0.438-2.247c-0.292-0.634-0.87-1.155-1.733-1.562c-0.686-0.33-1.499-0.622-2.438-0.876
		c-0.939-0.253-1.765-0.406-2.476-0.457v-2.704h22.433v2.704c-0.711,0.025-1.6,0.14-2.666,0.343
		c-1.066,0.204-1.854,0.394-2.361,0.571c-0.863,0.305-1.447,0.813-1.752,1.523c-0.305,0.711-0.457,1.485-0.457,2.323v18.662h0.762
		c2.285-1.929,4.532-3.942,6.741-6.037s4.214-4.183,6.018-6.265c2.005-2.31,3.472-4.157,4.399-5.542
		c0.927-1.384,1.39-2.609,1.39-3.675c0-0.381-0.235-0.691-0.705-0.933c-0.47-0.241-1.009-0.438-1.619-0.59
		c-0.711-0.152-1.346-0.248-1.904-0.286c-0.559-0.038-1.016-0.07-1.371-0.095v-2.704h20.262v2.704c-0.076,0-0.241,0.013-0.495,0.038
		c-0.254,0.025-0.546,0.051-0.875,0.076c-0.355,0.025-0.711,0.076-1.066,0.152c-0.355,0.076-0.812,0.166-1.37,0.267
		c-0.889,0.204-1.809,0.527-2.76,0.971c-0.951,0.444-1.731,0.997-2.34,1.657c-2.614,2.971-5.34,6.044-8.179,9.22
		c-2.839,3.176-5.652,6.072-8.44,8.689c3.863,4.366,7.06,8.122,9.589,11.269c2.529,3.147,5.217,6.51,8.064,10.088
		c1.086,1.371,2.174,2.47,3.261,3.294c1.086,0.825,2.022,1.441,2.806,1.847c0.657,0.33,1.478,0.584,2.464,0.762
		c0.985,0.178,1.808,0.28,2.465,0.305V181.568z"/>
	<path d="M313.785,165.496l-1.143,16.072h-42.236v-2.704c0.609-0.051,1.491-0.139,2.646-0.267c1.156-0.127,1.962-0.292,2.419-0.495
		c0.762-0.33,1.313-0.813,1.657-1.447c0.342-0.634,0.514-1.447,0.514-2.438v-38.695c0-0.863-0.146-1.625-0.438-2.285
		c-0.293-0.66-0.871-1.193-1.733-1.6c-0.585-0.305-1.403-0.603-2.456-0.895c-1.055-0.292-1.924-0.463-2.609-0.514v-2.704h22.813
		v2.704c-0.711,0.025-1.632,0.152-2.761,0.381c-1.131,0.229-1.949,0.432-2.457,0.609c-0.863,0.305-1.453,0.825-1.771,1.562
		c-0.317,0.737-0.476,1.523-0.476,2.361v36.296c0,1.676,0.082,2.977,0.247,3.904c0.166,0.927,0.553,1.644,1.162,2.152
		c0.584,0.457,1.453,0.756,2.609,0.895c1.154,0.14,2.773,0.209,4.855,0.209c0.939,0,1.917-0.025,2.933-0.076
		c1.015-0.051,1.98-0.152,2.895-0.305c0.889-0.152,1.708-0.362,2.456-0.628c0.749-0.267,1.301-0.603,1.656-1.009
		c1.041-1.167,2.254-2.938,3.639-5.313c1.383-2.374,2.342-4.297,2.875-5.77H313.785z"/>
	<path d="M395.578,181.568h-23.881v-2.704c0.863-0.025,1.975-0.114,3.334-0.267c1.357-0.152,2.291-0.368,2.799-0.647
		c0.787-0.482,1.363-1.034,1.732-1.657c0.367-0.622,0.553-1.403,0.553-2.342v-39.305h-0.572l-18.434,46.046h-1.904l-17.557-46.998
		h-0.496v32.259c0,3.123,0.197,5.498,0.592,7.122c0.393,1.625,0.996,2.793,1.809,3.504c0.559,0.533,1.713,1.042,3.465,1.523
		c1.752,0.482,2.895,0.737,3.428,0.762v2.704h-21.822v-2.704c1.143-0.101,2.342-0.292,3.6-0.571
		c1.256-0.279,2.227-0.698,2.912-1.257c0.889-0.71,1.498-1.803,1.828-3.275c0.33-1.472,0.496-3.936,0.496-7.389v-27.65
		c0-1.6-0.191-2.907-0.572-3.923c-0.381-1.015-0.926-1.841-1.637-2.476c-0.787-0.686-1.752-1.193-2.895-1.523
		c-1.143-0.33-2.273-0.52-3.391-0.571v-2.704h18.428l15.48,40.566l13.217-33.935c0.48-1.245,0.893-2.547,1.236-3.906
		c0.342-1.359,0.525-2.268,0.551-2.725h17.625v2.704c-0.711,0.025-1.619,0.14-2.723,0.343c-1.105,0.204-1.912,0.394-2.42,0.571
		c-0.863,0.305-1.447,0.813-1.752,1.523c-0.305,0.711-0.457,1.485-0.457,2.323v38.962c0,0.889,0.152,1.638,0.457,2.247
		s0.889,1.143,1.752,1.6c0.457,0.254,1.27,0.489,2.438,0.705c1.168,0.216,2.096,0.337,2.781,0.362V181.568z"/>
	<path d="M471.352,130.228c-0.711,0.025-1.803,0.229-3.275,0.609s-2.525,0.775-3.16,1.181c-0.914,0.635-1.531,1.854-1.848,3.656
		c-0.318,1.803-0.477,4.088-0.477,6.855v39.571h-3.313l-32.754-44.218v27.879c0,3.123,0.195,5.522,0.59,7.198
		c0.393,1.676,0.996,2.87,1.809,3.58c0.584,0.559,1.791,1.08,3.619,1.562c1.828,0.482,3.033,0.737,3.617,0.762v2.704h-22.166v-2.704
		c0.686-0.051,1.842-0.298,3.467-0.743c1.625-0.444,2.641-0.844,3.047-1.2c0.889-0.71,1.498-1.796,1.828-3.256
		c0.33-1.46,0.494-3.955,0.494-7.484v-26.622c0-1.167-0.203-2.336-0.609-3.504c-0.406-1.167-0.951-2.069-1.637-2.704
		c-0.914-0.838-2.152-1.555-3.715-2.152c-1.561-0.596-2.824-0.92-3.789-0.971v-2.704h15.441l30.377,41.201v-25.703
		c0-3.148-0.203-5.566-0.609-7.254s-0.99-2.812-1.752-3.37c-0.711-0.482-1.873-0.952-3.486-1.409
		c-1.611-0.457-2.836-0.71-3.674-0.762v-2.704h21.975V130.228z"/>
	<path d="M73.378,227.522c2.386,2.489,4.252,5.491,5.599,9.007c1.346,3.517,2.019,7.408,2.019,11.673
		c0,4.291-0.686,8.188-2.057,11.692s-3.275,6.487-5.713,8.95c-2.361,2.438-5.104,4.316-8.227,5.637s-6.45,1.98-9.979,1.98
		c-3.758,0-7.23-0.705-10.417-2.113c-3.187-1.41-5.922-3.371-8.208-5.885c-2.285-2.463-4.082-5.452-5.389-8.969
		c-1.308-3.518-1.961-7.281-1.961-11.293c0-4.393,0.686-8.309,2.057-11.75c1.371-3.44,3.262-6.417,5.675-8.931
		c2.386-2.488,5.161-4.393,8.322-5.713c3.161-1.32,6.468-1.98,9.921-1.98c3.58,0,6.957,0.673,10.131,2.019
		C68.326,223.194,71.068,225.085,73.378,227.522z M67.704,265.837c1.422-2.31,2.457-4.926,3.104-7.846
		c0.647-2.919,0.971-6.183,0.971-9.788c0-3.707-0.362-7.109-1.085-10.207c-0.724-3.098-1.784-5.738-3.18-7.922
		c-1.396-2.158-3.148-3.84-5.256-5.046c-2.108-1.206-4.52-1.809-7.236-1.809c-3.047,0-5.637,0.699-7.77,2.095
		c-2.133,1.396-3.872,3.263-5.218,5.599c-1.27,2.234-2.215,4.85-2.837,7.846c-0.623,2.996-0.933,6.145-0.933,9.445
		c0,3.656,0.33,6.957,0.99,9.902c0.66,2.945,1.701,5.561,3.123,7.846c1.371,2.234,3.098,3.98,5.18,5.236
		c2.082,1.258,4.57,1.886,7.465,1.886c2.717,0,5.167-0.634,7.351-1.904C64.555,269.899,66.333,268.122,67.704,265.837z"/>
	<path d="M156.256,234.454c0,2.818-0.552,5.313-1.657,7.484s-2.634,3.967-4.589,5.389c-1.93,1.422-4.05,2.463-6.36,3.123
		c-2.311,0.661-4.761,0.99-7.351,0.99h-6.056v16.377c0,0.89,0.146,1.67,0.438,2.343c0.292,0.672,0.895,1.187,1.809,1.542
		c0.457,0.178,1.263,0.343,2.418,0.495c1.155,0.152,2.215,0.242,3.18,0.267v2.704h-23.194v-2.704
		c0.609-0.051,1.491-0.14,2.647-0.267c1.155-0.127,1.961-0.291,2.418-0.495c0.762-0.329,1.314-0.813,1.657-1.447
		c0.343-0.634,0.514-1.447,0.514-2.438v-39c0-0.889-0.127-1.688-0.381-2.399c-0.254-0.71-0.851-1.244-1.79-1.6
		c-0.965-0.33-1.923-0.565-2.875-0.705c-0.952-0.139-1.771-0.234-2.457-0.286v-2.704h24.68c5.027,0,9.108,1.213,12.245,3.637
		C154.688,227.186,156.256,230.417,156.256,234.454z M144.678,243.671c0.863-1.219,1.434-2.481,1.714-3.79
		c0.279-1.308,0.419-2.481,0.419-3.523c0-1.447-0.171-2.919-0.514-4.418c-0.343-1.498-0.933-2.805-1.771-3.923
		c-0.889-1.193-2.057-2.12-3.504-2.78c-1.447-0.66-3.25-0.99-5.408-0.99h-5.37v23.88h3.885c2.742,0,4.97-0.425,6.684-1.276
		C142.526,246,143.815,244.941,144.678,243.671z"/>
	<path d="M233.23,227.522c2.386,2.489,4.252,5.491,5.599,9.007c1.346,3.517,2.019,7.408,2.019,11.673
		c0,3.402-0.444,6.551-1.333,9.445c-0.889,2.895-2.146,5.484-3.771,7.77c-1.549,2.184-3.39,4.088-5.522,5.713
		s-4.52,2.908-7.16,3.847c0.051,2.793,1.053,5.3,3.009,7.522c1.955,2.221,4.062,3.332,6.322,3.332c2.082,0,3.669-0.07,4.761-0.209
		c1.091-0.141,1.993-0.273,2.704-0.4v3.009c-1.143,0.329-2.571,0.679-4.285,1.048c-1.714,0.367-4.094,0.552-7.141,0.552
		c-1.701,0-3.365-0.247-4.989-0.743c-1.625-0.494-3.098-1.289-4.418-2.38c-1.32-1.092-2.418-2.476-3.294-4.151
		s-1.441-3.732-1.695-6.17c-3.631-0.127-6.995-0.908-10.093-2.342c-3.098-1.435-5.751-3.396-7.96-5.885
		c-2.234-2.514-3.974-5.465-5.218-8.855c-1.244-3.389-1.866-7.09-1.866-11.102c0-4.393,0.686-8.309,2.057-11.75
		c1.371-3.44,3.262-6.417,5.675-8.931c2.386-2.488,5.161-4.393,8.322-5.713c3.161-1.32,6.468-1.98,9.921-1.98
		c3.58,0,6.957,0.673,10.131,2.019C228.178,223.194,230.92,225.085,233.23,227.522z M227.556,265.837
		c1.422-2.31,2.457-4.926,3.104-7.846c0.647-2.919,0.971-6.183,0.971-9.788c0-3.707-0.362-7.109-1.085-10.207
		c-0.724-3.098-1.784-5.738-3.18-7.922c-1.396-2.158-3.148-3.84-5.256-5.046c-2.108-1.206-4.52-1.809-7.236-1.809
		c-3.047,0-5.637,0.699-7.77,2.095c-2.133,1.396-3.872,3.263-5.218,5.599c-1.27,2.234-2.215,4.85-2.837,7.846
		c-0.623,2.996-0.933,6.145-0.933,9.445c0,3.656,0.33,6.957,0.99,9.902c0.66,2.945,1.701,5.561,3.123,7.846
		c1.371,2.234,3.098,3.98,5.18,5.236c2.082,1.258,4.57,1.886,7.465,1.886c2.717,0,5.167-0.634,7.351-1.904
		C224.407,269.899,226.185,268.122,227.556,265.837z"/>
	<path d="M327.381,275.168h-14.553c-3.221-5.053-6.133-9.42-8.732-13.102s-5.421-7.478-8.465-11.388h-5.535v17.139
		c0,0.89,0.139,1.67,0.419,2.343c0.279,0.672,0.876,1.187,1.79,1.542c0.457,0.178,1.257,0.343,2.399,0.495s2.107,0.242,2.895,0.267
		v2.704h-22.852v-2.704c0.609-0.051,1.491-0.14,2.647-0.267c1.154-0.127,1.961-0.291,2.418-0.495
		c0.762-0.329,1.314-0.813,1.656-1.447c0.344-0.634,0.515-1.447,0.515-2.438v-39.076c0-0.889-0.128-1.676-0.381-2.361
		c-0.254-0.686-0.851-1.206-1.79-1.562c-0.635-0.229-1.461-0.438-2.476-0.628c-1.016-0.19-1.88-0.311-2.59-0.362v-2.704h24.946
		c2.285,0,4.43,0.235,6.436,0.705c2.006,0.47,3.822,1.225,5.447,2.266c1.574,1.016,2.83,2.342,3.77,3.98s1.41,3.612,1.41,5.922
		c0,2.082-0.318,3.923-0.953,5.522s-1.574,2.984-2.818,4.151c-1.143,1.092-2.514,2.038-4.113,2.837s-3.363,1.479-5.293,2.038
		c2.666,3.529,4.881,6.5,6.645,8.912c1.766,2.413,3.93,5.345,6.494,8.798c1.117,1.523,2.127,2.646,3.027,3.371
		c0.902,0.723,1.797,1.313,2.686,1.771c0.66,0.33,1.486,0.585,2.477,0.762c0.99,0.178,1.814,0.28,2.475,0.305V275.168z
		 M307.348,234.894c0-3.27-0.939-5.862-2.818-7.776c-1.879-1.914-4.531-2.871-7.959-2.871h-6.475v23.156h4.989
		c3.504,0,6.423-1.121,8.76-3.365C306.18,241.795,307.348,238.747,307.348,234.894z"/>
	<path d="M390.227,250.374c1.143,1.271,1.986,2.66,2.531,4.171c0.547,1.51,0.82,3.27,0.82,5.274c0,4.774-1.766,8.709-5.295,11.807
		c-3.529,3.099-7.908,4.646-13.139,4.646c-2.412,0-4.824-0.375-7.236-1.124c-2.412-0.748-4.494-1.656-6.246-2.723l-1.639,2.78
		h-3.047l-0.533-18.51h3.086c0.635,2.285,1.377,4.349,2.227,6.188c0.852,1.842,1.975,3.562,3.371,5.161
		c1.32,1.499,2.863,2.691,4.627,3.58c1.766,0.89,3.816,1.333,6.152,1.333c1.752,0,3.281-0.229,4.588-0.686
		c1.309-0.458,2.369-1.107,3.182-1.945c0.813-0.84,1.414-1.824,1.809-2.957c0.393-1.131,0.59-2.434,0.59-3.908
		c0-2.161-0.609-4.176-1.828-6.045s-3.033-3.286-5.445-4.252c-1.65-0.657-3.543-1.385-5.676-2.181
		c-2.133-0.796-3.973-1.549-5.521-2.257c-3.047-1.371-5.416-3.167-7.104-5.387c-1.689-2.221-2.533-5.122-2.533-8.701
		c0-2.056,0.42-3.972,1.258-5.749s2.031-3.363,3.58-4.759c1.473-1.32,3.211-2.354,5.217-3.103s4.102-1.124,6.285-1.124
		c2.488,0,4.715,0.381,6.684,1.143c1.967,0.762,3.764,1.651,5.389,2.666l1.563-2.59h3.047l0.305,17.938h-3.086
		c-0.559-2.057-1.188-4.024-1.885-5.903c-0.699-1.879-1.605-3.58-2.723-5.104c-1.092-1.472-2.426-2.647-4-3.523
		s-3.504-1.314-5.789-1.314c-2.412,0-4.469,0.775-6.17,2.323c-1.701,1.549-2.551,3.441-2.551,5.675c0,2.336,0.545,4.272,1.637,5.808
		c1.092,1.537,2.68,2.799,4.762,3.79c1.854,0.889,3.674,1.657,5.465,2.304c1.789,0.647,3.523,1.339,5.199,2.076
		c1.523,0.661,2.988,1.409,4.398,2.247C387.959,248.279,389.186,249.257,390.227,250.374z"/>
	<path d="M471.428,235.787h-2.627c-0.23-0.914-0.643-2-1.242-3.256c-0.598-1.257-1.266-2.443-2.002-3.561
		c-0.766-1.167-1.598-2.19-2.502-3.066c-0.902-0.876-1.775-1.377-2.615-1.504c-0.789-0.101-1.779-0.177-2.977-0.229
		c-1.195-0.051-2.303-0.076-3.32-0.076h-2.215v43.228c0,0.838,0.178,1.605,0.533,2.305c0.355,0.698,0.979,1.237,1.867,1.618
		c0.457,0.178,1.414,0.419,2.875,0.724c1.459,0.305,2.596,0.471,3.408,0.495v2.704h-25.518v-2.704
		c0.711-0.051,1.797-0.152,3.256-0.305c1.461-0.152,2.471-0.343,3.029-0.571c0.838-0.33,1.453-0.806,1.846-1.428
		c0.395-0.623,0.592-1.453,0.592-2.495v-43.57h-2.209c-0.787,0-1.766,0.019-2.934,0.057s-2.285,0.121-3.352,0.248
		c-0.838,0.102-1.707,0.604-2.609,1.504c-0.9,0.901-1.732,1.923-2.494,3.066s-1.434,2.355-2.018,3.637
		c-0.584,1.282-0.99,2.342-1.219,3.18h-2.666v-14.663h47.111V235.787z"/>
	<path d="M84.385,317.428c-0.711,0.025-1.752,0.178-3.123,0.457s-2.489,0.698-3.352,1.257c-0.863,0.584-1.46,1.79-1.79,3.618
		c-0.33,1.828-0.495,4.063-0.495,6.703v23.499c0,2.996-0.623,5.599-1.866,7.808c-1.244,2.209-2.882,4.024-4.913,5.446
		c-2.006,1.371-4.12,2.355-6.341,2.952c-2.222,0.596-4.348,0.895-6.379,0.895c-3.25,0-6.145-0.426-8.684-1.275
		c-2.539-0.851-4.672-2-6.398-3.447c-1.701-1.447-2.984-3.104-3.847-4.971c-0.863-1.865-1.295-3.814-1.295-5.846v-31.954
		c0-0.889-0.146-1.631-0.438-2.228c-0.292-0.597-0.882-1.149-1.771-1.657c-0.635-0.355-1.447-0.641-2.438-0.856
		s-1.803-0.35-2.438-0.4v-2.704h22.509v2.704c-0.711,0.025-1.606,0.14-2.685,0.343c-1.08,0.203-1.873,0.394-2.38,0.57
		c-0.863,0.305-1.441,0.813-1.733,1.522c-0.292,0.711-0.438,1.484-0.438,2.321v29.836c0,1.446,0.158,2.962,0.476,4.548
		c0.317,1.586,0.946,3.063,1.885,4.434c0.99,1.396,2.336,2.537,4.037,3.425c1.701,0.888,4.037,1.332,7.008,1.332
		c2.793,0,5.135-0.444,7.027-1.332c1.891-0.888,3.383-2.055,4.475-3.501c1.041-1.37,1.777-2.803,2.209-4.301
		c0.432-1.496,0.647-3.006,0.647-4.528v-22.148c0-2.816-0.204-5.118-0.609-6.907c-0.406-1.789-1.003-2.962-1.79-3.521
		c-0.889-0.634-2.101-1.129-3.637-1.484c-1.537-0.354-2.71-0.558-3.523-0.608v-2.704h22.09V317.428z"/>
	<path d="M160.301,317.428c-0.661,0.025-1.46,0.172-2.399,0.438c-0.939,0.268-1.714,0.591-2.323,0.972
		c-0.863,0.533-1.556,1.219-2.076,2.057c-0.521,0.838-1.035,1.828-1.542,2.971c-1.701,4.037-4.253,10.328-7.655,18.872
		c-3.403,8.544-6.907,17.449-10.512,26.717h-3.161c-3.656-9.826-7.186-19.297-10.588-28.412c-3.403-9.115-5.713-15.272-6.932-18.472
		c-0.305-0.787-0.711-1.479-1.219-2.075c-0.508-0.597-1.181-1.162-2.019-1.695c-0.686-0.432-1.447-0.755-2.285-0.971
		s-1.612-0.35-2.323-0.4v-2.704h22.364v2.704c-1.904,0.102-3.511,0.292-4.819,0.571c-1.308,0.279-1.961,0.774-1.961,1.485
		c0,0.279,0.051,0.609,0.152,0.99s0.19,0.686,0.267,0.914c0.94,2.488,2.463,6.547,4.57,12.175c2.107,5.629,5.104,13.64,8.988,24.032
		c1.93-4.7,4.151-10.253,6.665-16.656c2.514-6.402,4.203-10.8,5.066-13.188c0.838-2.312,1.326-3.912,1.466-4.801
		c0.139-0.889,0.209-1.612,0.209-2.171c0-0.584-0.261-1.072-0.781-1.467c-0.521-0.393-1.213-0.729-2.076-1.009
		c-0.838-0.254-1.689-0.444-2.552-0.571c-0.864-0.127-1.74-0.229-2.628-0.305v-2.704h20.102V317.428z"/>
	<path d="M257.658,317.428c-0.635,0.025-1.371,0.172-2.209,0.438c-0.838,0.268-1.612,0.616-2.322,1.048
		c-0.89,0.559-1.606,1.2-2.152,1.923c-0.546,0.725-1.022,1.733-1.428,3.028c-1.803,5.865-3.898,12.715-6.284,20.548
		c-2.387,7.833-4.964,16.18-7.731,25.041h-3.507l-13.643-41.625l-14.183,41.625h-3.363c-2.514-8.887-5.117-18.109-7.808-27.67
		c-2.691-9.559-4.494-15.964-5.408-19.214c-0.229-0.787-0.565-1.485-1.009-2.095c-0.444-0.609-1.047-1.168-1.809-1.676
		c-0.635-0.432-1.377-0.755-2.228-0.971c-0.851-0.216-1.619-0.35-2.304-0.4v-2.704h22.03v2.704c-1.93,0.102-3.574,0.292-4.932,0.571
		s-2.036,0.749-2.036,1.409c0,0.254,0.037,0.59,0.113,1.01c0.076,0.418,0.14,0.755,0.19,1.009c0.583,2.234,1.616,5.929,3.101,11.082
		c1.483,5.154,3.684,12.872,6.602,23.154l13.488-40.178h3.727l13.61,41.034c1.834-6.307,3.414-11.82,4.738-16.538
		c1.324-4.718,2.419-8.755,3.286-12.112c0.611-2.365,0.992-3.986,1.145-4.861c0.152-0.877,0.229-1.619,0.229-2.229
		c0-0.863-0.59-1.587-1.771-2.171s-3.091-0.978-5.731-1.181v-2.704h19.601V317.428z"/>
	<path d="M333.727,368.768h-25.289v-2.704c2.082-0.051,3.764-0.247,5.045-0.591c1.281-0.342,1.924-0.869,1.924-1.58
		c0-0.381-0.293-1.168-0.877-2.361s-1.332-2.526-2.246-4.001c-1.016-1.626-2.221-3.539-3.617-5.737s-2.779-4.301-4.148-6.309
		c-2.236,2.947-4.775,6.499-7.619,10.653c-2.846,4.154-4.268,6.6-4.268,7.336c0,0.838,0.387,1.454,1.162,1.847
		c0.774,0.395,2.482,0.642,5.123,0.743v2.704H278.73v-2.704c0.66-0.051,1.505-0.146,2.533-0.286
		c1.028-0.139,1.872-0.374,2.533-0.704c1.319-0.711,2.38-1.479,3.18-2.304s1.605-1.797,2.418-2.915
		c1.623-2.234,3.703-5.022,6.241-8.362s4.782-6.382,6.737-9.125c-1.475-2.157-3.355-4.893-5.642-8.205
		c-2.287-3.313-4.727-6.858-7.317-10.641c-1.091-1.6-1.945-2.729-2.566-3.39s-1.451-1.231-2.49-1.714
		c-0.607-0.279-1.451-0.501-2.527-0.666c-1.078-0.165-1.933-0.273-2.566-0.324v-2.704h25.023v2.704
		c-1.47,0.051-2.996,0.235-4.582,0.553c-1.584,0.317-2.377,0.806-2.377,1.466c0,0.482,0.318,1.327,0.953,2.532
		c0.635,1.207,1.383,2.496,2.248,3.867c0.889,1.423,1.879,2.998,2.971,4.725c1.094,1.727,2.426,3.721,4.002,5.981
		c2.865-3.886,5.34-7.391,7.42-10.515s3.119-5.156,3.119-6.096c0-0.813-0.477-1.409-1.43-1.79s-2.561-0.622-4.822-0.724v-2.704
		h20.148v2.704c-0.635,0.025-1.467,0.121-2.494,0.285c-1.029,0.166-1.887,0.4-2.572,0.705c-1.32,0.635-2.303,1.32-2.951,2.057
		c-0.646,0.736-1.518,1.804-2.607,3.202c-2.031,2.62-3.902,5.08-5.615,7.381c-1.713,2.302-3.775,5.104-6.186,8.41
		c2.029,2.891,4.295,6.175,6.795,9.853s4.891,7.189,7.176,10.537c0.787,1.142,1.688,2.227,2.703,3.254
		c1.016,1.029,1.842,1.733,2.477,2.114c0.609,0.355,1.428,0.578,2.457,0.667c1.027,0.089,1.896,0.146,2.607,0.171V368.768z"/>
	<path d="M405.414,317.428c-0.432,0.025-1.117,0.197-2.057,0.514c-0.939,0.318-1.611,0.629-2.018,0.934
		c-0.99,0.609-1.664,1.079-2.02,1.409s-1.041,1.193-2.057,2.59c-1.98,2.793-3.809,5.624-5.484,8.493s-3.77,6.513-6.283,10.931
		c-0.939,1.625-1.563,2.933-1.867,3.923s-0.457,2.425-0.457,4.304v10.321c0,0.914,0.184,1.708,0.553,2.381
		c0.367,0.673,0.996,1.212,1.885,1.618c0.533,0.203,1.486,0.451,2.857,0.743s2.475,0.45,3.313,0.476v2.704H366.49v-2.704
		c0.711-0.051,1.777-0.146,3.199-0.286c1.422-0.139,2.412-0.323,2.971-0.552c0.914-0.381,1.543-0.901,1.885-1.562
		c0.344-0.66,0.516-1.473,0.516-2.438v-13.14c0-0.406-0.248-1.148-0.744-2.228c-0.494-1.079-1.084-2.279-1.77-3.6
		c-1.523-2.945-3.213-6.132-5.066-9.56s-3.465-6.36-4.836-8.798c-0.838-1.447-1.582-2.539-2.229-3.275
		c-0.648-0.736-1.391-1.384-2.229-1.942c-0.609-0.381-1.34-0.673-2.189-0.876s-1.619-0.33-2.305-0.381v-2.704h23.064v2.704
		c-2.59,0.051-4.42,0.228-5.486,0.531s-1.6,0.734-1.6,1.29c0,0.152,0.076,0.418,0.229,0.798s0.369,0.861,0.648,1.444
		c0.328,0.66,0.721,1.416,1.178,2.266c0.455,0.851,0.887,1.67,1.291,2.456c1.191,2.259,2.408,4.512,3.648,6.759
		c1.242,2.246,2.863,5.172,4.863,8.776c3.984-6.421,7.021-11.427,9.115-15.019c2.094-3.591,3.141-5.741,3.141-6.45
		c0-0.584-0.217-1.053-0.646-1.407c-0.434-0.354-1.004-0.633-1.715-0.836c-0.736-0.202-1.537-0.336-2.398-0.399
		c-0.865-0.063-1.664-0.133-2.4-0.209v-2.704h18.789V317.428z"/>
	<path d="M471.314,351.896l-1.791,16.872h-43.418v-1.333l34.01-49.702h-12.453c-1.447,0-2.66,0.025-3.637,0.076
		c-0.979,0.051-1.873,0.152-2.686,0.305c-1.676,0.33-3.561,1.714-5.654,4.151c-2.096,2.438-3.676,5.015-4.742,7.731h-2.666
		l1.637-15.272H470.4v1.333l-34.01,49.702h12.834c2.158,0,4.457-0.152,6.895-0.457s4.023-0.825,4.76-1.562
		c1.65-1.574,3.186-3.504,4.607-5.789s2.477-4.304,3.162-6.056H471.314z"/>
	<path d="M44.319,457.988c0,1.422-0.514,2.635-1.542,3.638c-1.028,1.002-2.253,1.504-3.675,1.504c-1.422,0-2.647-0.502-3.675-1.504
		c-1.028-1.003-1.542-2.216-1.542-3.638s0.514-2.647,1.542-3.675c1.028-1.029,2.253-1.543,3.675-1.543
		c1.422,0,2.647,0.514,3.675,1.543C43.805,455.341,44.319,456.566,44.319,457.988z M43.976,412.057c0,1.27-0.419,5.535-1.257,12.797
		s-1.575,14.282-2.209,21.062H37.54c-0.559-6.779-1.251-13.8-2.076-21.062c-0.825-7.262-1.238-11.527-1.238-12.797
		c0-1.447,0.457-2.666,1.371-3.656s2.082-1.485,3.504-1.485c1.422,0,2.59,0.489,3.504,1.467S43.976,410.584,43.976,412.057z"/>
	<path d="M136.261,466.9c-2.539,2.209-5.555,3.992-9.045,5.351c-3.491,1.358-7.383,2.038-11.673,2.038
		c-3.834,0-7.604-0.616-11.312-1.847c-3.708-1.232-7.046-3.104-10.017-5.618c-2.946-2.514-5.319-5.643-7.122-9.388
		c-1.803-3.745-2.704-8.157-2.704-13.235c0-4.342,0.813-8.557,2.438-12.645c1.625-4.088,3.948-7.731,6.97-10.931
		c2.919-3.123,6.532-5.643,10.835-7.561c4.304-1.916,8.994-2.875,14.073-2.875c4.393,0,8.201,0.705,11.426,2.113
		c3.224,1.41,5.865,3.27,7.922,5.58c2.057,2.285,3.599,4.913,4.627,7.884s1.542,6.068,1.542,9.293c0,6.195-1.703,11.433-5.109,15.71
		c-3.406,4.279-7.714,6.418-12.924,6.418c-2.161,0-3.991-0.539-5.49-1.619c-1.5-1.078-2.339-2.596-2.516-4.551l-0.266-0.076
		c-1.217,1.854-2.605,3.332-4.164,4.438c-1.56,1.104-3.138,1.656-4.735,1.656c-1.04,0-2.098-0.172-3.175-0.514
		c-1.078-0.344-2.035-0.908-2.872-1.695c-0.836-0.838-1.502-1.93-1.996-3.275c-0.495-1.346-0.742-3.009-0.742-4.989
		c0-1.854,0.424-3.929,1.273-6.228c0.849-2.297,1.997-4.487,3.441-6.569c1.445-2.107,3.314-3.936,5.608-5.484
		c2.293-1.549,4.771-2.323,7.433-2.323c1.419,0,2.68,0.4,3.783,1.199c1.103,0.801,1.781,1.975,2.035,3.523h0.228l1.661-4.266h5.692
		l-7.198,20.49c-0.229,0.635-0.413,1.365-0.552,2.189c-0.14,0.826-0.209,1.479-0.209,1.962c0,1.295,0.33,2.241,0.99,2.837
		c0.66,0.598,1.51,0.896,2.552,0.896c3.936,0,7.223-1.847,9.864-5.542c2.641-3.693,3.961-8.563,3.961-14.605
		c0-2.996-0.47-5.77-1.409-8.322c-0.939-2.551-2.375-4.805-4.304-6.76c-1.854-1.93-4.189-3.453-7.008-4.57s-6.043-1.676-9.674-1.676
		c-3.453,0-6.817,0.673-10.093,2.019s-6.259,3.326-8.95,5.941c-2.615,2.539-4.736,5.7-6.36,9.483
		c-1.625,3.783-2.438,8.062-2.438,12.835c0,4.596,0.634,8.64,1.904,12.13c1.27,3.492,3.06,6.418,5.37,8.779
		c2.26,2.285,4.926,3.999,7.998,5.142c3.072,1.143,6.398,1.714,9.979,1.714c4.037,0,7.63-0.546,10.778-1.638
		c3.148-1.092,5.979-2.679,8.493-4.761L136.261,466.9z M123.002,434.079c-0.356-2.06-0.927-3.56-1.714-4.501
		c-0.787-0.94-1.942-1.411-3.464-1.411c-1.625,0-3.116,0.655-4.474,1.965c-1.358,1.31-2.507,2.867-3.446,4.672
		c-0.99,1.882-1.758,3.936-2.304,6.16c-0.546,2.225-0.818,4.278-0.818,6.16c0,2.161,0.26,3.82,0.781,4.978s1.378,1.735,2.573,1.735
		c1.728,0,3.277-0.598,4.649-1.792c1.372-1.195,2.655-2.887,3.849-5.073L123.002,434.079z"/>
	<path d="M220.891,433.994h-9.507l-2.711,9.56h9.933v4.685h-11.242l-4.107,14.13h-4.199l4.106-14.13h-8.319l-4.105,14.13h-4.202
		l4.107-14.13h-8.182v-4.685h9.491l2.751-9.56h-9.957v-4.685h11.265l4.007-13.787h4.201l-4.007,13.787h8.318l4.007-13.787h4.201
		l-4.007,13.787h8.159V433.994z M207.364,433.918h-8.517l-2.834,9.712h8.477L207.364,433.918z"/>
	<path d="M291.695,440.278c1.016,0.99,1.809,2.146,2.381,3.466c0.57,1.32,0.856,2.895,0.856,4.723c0,3.986-1.523,7.331-4.57,10.036
		c-3.047,2.703-6.881,4.208-11.502,4.513v10.74h-3.123v-10.664c-5.027-0.102-9.103-1.301-12.226-3.599s-4.685-5.148-4.685-8.551
		c0-1.498,0.329-2.646,0.99-3.447c0.66-0.799,1.587-1.199,2.78-1.199c1.346,0,2.399,0.337,3.161,1.01s1.143,1.466,1.143,2.38
		c0,0.686-0.241,1.721-0.724,3.104s-0.787,2.329-0.914,2.837c0.736,1.32,2.012,2.387,3.828,3.199
		c1.814,0.813,4.03,1.231,6.646,1.257v-19.271c-1.118-0.406-2.089-0.762-2.913-1.066c-0.826-0.305-1.911-0.736-3.257-1.295
		c-2.92-1.193-5.205-2.762-6.855-4.703c-1.651-1.943-2.476-4.463-2.476-7.561c0-3.656,1.523-6.741,4.57-9.255
		s6.689-3.809,10.931-3.885v-8.722h3.123v8.722c2.514,0.051,4.735,0.419,6.665,1.104s3.504,1.536,4.723,2.552
		s2.139,2.133,2.762,3.352c0.621,1.219,0.933,2.399,0.933,3.542s-0.267,2.113-0.8,2.914c-0.533,0.799-1.409,1.199-2.628,1.199
		c-1.244,0-2.279-0.317-3.104-0.952c-0.824-0.635-1.237-1.346-1.237-2.133c0-0.939,0.101-1.872,0.305-2.8
		c0.203-0.926,0.381-1.745,0.533-2.456c-0.076-0.152-0.33-0.425-0.762-0.819c-0.433-0.393-0.939-0.755-1.523-1.085
		c-0.635-0.355-1.473-0.673-2.514-0.952c-1.042-0.279-2.158-0.419-3.352-0.419v17.672c0.99,0.355,1.821,0.667,2.495,0.933
		c0.672,0.268,1.504,0.591,2.494,0.972c1.574,0.609,3.021,1.276,4.342,1.999C289.512,438.394,290.68,439.263,291.695,440.278z
		 M275.737,432.852v-16.758c-2.463,0-4.532,0.698-6.208,2.095s-2.514,3.11-2.514,5.142c0,2.209,0.52,3.974,1.562,5.294
		c1.041,1.32,2.614,2.412,4.723,3.275c0.305,0.127,0.686,0.279,1.143,0.457S275.331,432.699,275.737,432.852z M287.772,451.552
		c0-2.082-0.54-3.891-1.618-5.428c-1.08-1.535-2.914-2.812-5.504-3.827c-0.33-0.127-0.642-0.241-0.934-0.343
		c-0.291-0.102-0.577-0.203-0.856-0.305v18.396c2.971-0.178,5.198-1.021,6.685-2.532
		C287.029,456.002,287.772,454.015,287.772,451.552z"/>
	<path d="M356.672,421.121c0,4.469-1.205,7.935-3.617,10.397s-5.523,3.694-9.332,3.694s-6.912-1.231-9.313-3.694
		c-2.398-2.463-3.598-5.929-3.598-10.397c0-4.215,1.174-7.617,3.521-10.207c2.35-2.59,5.492-3.885,9.428-3.885
		c3.885,0,7.008,1.295,9.369,3.885S356.672,416.906,356.672,421.121z M383.752,408.134l-44.924,54.234h-5.236l44.822-54.234H383.752
		z M350.236,421.121c0-3.312-0.547-6.024-1.639-8.14c-1.092-2.114-2.703-3.172-4.836-3.172c-2.184,0-3.816,1.058-4.895,3.172
		c-1.08,2.115-1.619,4.828-1.619,8.14c0,3.389,0.547,6.121,1.639,8.197s2.703,3.114,4.836,3.114s3.752-1.038,4.855-3.114
		C349.684,427.242,350.236,424.51,350.236,421.121z M386.266,449.495c0,4.469-1.207,7.935-3.619,10.397s-5.521,3.694-9.33,3.694
		s-6.914-1.231-9.313-3.694c-2.4-2.463-3.6-5.929-3.6-10.397c0-4.215,1.174-7.617,3.523-10.207c2.348-2.59,5.49-3.885,9.426-3.885
		c3.885,0,7.008,1.295,9.369,3.885S386.266,445.28,386.266,449.495z M379.828,449.495c0-3.312-0.545-6.024-1.637-8.14
		c-1.092-2.114-2.705-3.172-4.838-3.172c-2.184,0-3.814,1.058-4.895,3.172c-1.078,2.115-1.617,4.828-1.617,8.14
		c0,3.389,0.545,6.121,1.637,8.197s2.705,3.114,4.838,3.114s3.75-1.038,4.855-3.114
		C379.275,455.616,379.828,452.884,379.828,449.495z"/>
	<path d="M471.961,430.833c-1.498,0.127-3.008,0.426-4.531,0.895c-1.523,0.471-2.691,1.213-3.504,2.229
		c-0.533,0.609-1.072,1.511-1.617,2.704s-1.197,2.603-1.959,4.228c-0.76,1.625-1.531,3.225-2.318,4.799
		c-0.785,1.574-1.799,3.148-3.041,4.723c1.016,1.219,2.258,2.546,3.729,3.98c1.473,1.435,2.729,2.469,3.768,3.104
		c1.016,0.584,2.455,1.079,4.318,1.485c1.865,0.406,3.393,0.635,4.586,0.686v2.704h-15.691l-5.676-6.475
		c-0.838,0.914-1.797,1.86-2.875,2.838c-1.08,0.978-2.215,1.821-3.408,2.532c-1.32,0.762-2.648,1.358-3.98,1.79
		c-1.334,0.432-2.9,0.647-4.703,0.647c-1.879,0-3.746-0.273-5.6-0.819c-1.854-0.545-3.541-1.415-5.064-2.608
		c-1.473-1.168-2.666-2.666-3.58-4.494s-1.371-4.012-1.371-6.551c0-3.148,0.83-5.999,2.494-8.55
		c1.662-2.553,4.768-5.263,9.313-8.132c-2.057-2.717-3.656-5.065-4.799-7.046s-1.715-4.202-1.715-6.665
		c0-1.752,0.35-3.357,1.047-4.817c0.699-1.46,1.684-2.736,2.953-3.828c1.168-0.99,2.59-1.765,4.266-2.323s3.377-0.838,5.104-0.838
		c2.031,0,3.814,0.323,5.35,0.972c1.537,0.646,2.787,1.491,3.752,2.532c0.889,0.965,1.568,2.082,2.037,3.352
		c0.471,1.27,0.705,2.539,0.705,3.809c0,3.047-0.943,5.669-2.828,7.864c-1.887,2.197-4.488,4.171-7.805,5.923
		c2.385,3.225,4.719,6.164,7,8.817c2.283,2.653,4.479,5.262,6.584,7.826c1.695-2.717,3.012-5.275,3.947-7.674
		c0.936-2.4,1.404-4.514,1.404-6.342c0-0.813-0.59-1.453-1.771-1.924c-1.18-0.469-2.811-0.92-4.893-1.352v-2.704h20.375V430.833z
		 M448.006,453.685c-2.361-2.996-5.021-6.277-7.98-9.846c-2.957-3.566-5.324-6.582-7.102-9.045
		c-2.057,1.422-3.512,3.092-4.361,5.008c-0.852,1.918-1.275,4.107-1.275,6.57c0,3.453,0.982,6.316,2.951,8.588
		c1.967,2.273,4.602,3.409,7.902,3.409c1.854,0,3.676-0.399,5.465-1.2C445.396,456.37,446.863,455.208,448.006,453.685z
		 M445.035,418.455c0-2.59-0.57-4.576-1.709-5.96s-2.76-2.076-4.861-2.076c-1.189,0-2.178,0.241-2.961,0.724
		c-0.785,0.482-1.457,1.092-2.014,1.828c-0.506,0.711-0.873,1.473-1.102,2.285s-0.342,1.536-0.342,2.171
		c0,1.752,0.457,3.523,1.371,5.313c0.912,1.791,2.332,3.955,4.262,6.494c2.604-1.473,4.479-3.066,5.629-4.779
		C444.459,422.739,445.035,420.74,445.035,418.455z"/>
</g>
</svg>
