<?xml version="1.0" encoding="utf-8"?>
<!-- Generator: Adobe Illustrator 16.0.0, SVG Export Plug-In . SVG Version: 6.00 Build 0)  -->
<!DOCTYPE svg PUBLIC "-//W3C//DTD SVG 1.1//EN" "http://www.w3.org/Graphics/SVG/1.1/DTD/svg11.dtd">
<svg version="1.1" id="Layer_1" xmlns="http://www.w3.org/2000/svg" xmlns:xlink="http://www.w3.org/1999/xlink" x="0px" y="0px"
	 width="500px" height="500px" viewBox="0 0 500 500" enable-background="new 0 0 500 500" xml:space="preserve">
<g>
	<path d="M39.884,85.003H27.56l19.969-56.006h13.495l19.734,56.006H68.043l-3.588-11.544H43.784L39.884,85.003z M46.904,63.786
		h14.274l-6.942-22.153h-0.156L46.904,63.786z"/>
	<path d="M98.305,28.997h27.223c13.729,0,17.239,8.58,17.239,14.353c0,8.034-4.524,10.296-6.864,11.466
		c6.864,2.574,8.658,8.034,8.658,13.572c0,4.446-1.872,8.659-4.836,11.544c-3.198,3.12-6.24,5.07-17.707,5.07H98.305V28.997z
		 M109.538,50.916h13.729c4.602,0,8.269-1.794,8.269-6.24c0-4.602-3.276-6.006-8.581-6.006h-13.417V50.916z M109.538,75.331h14.353
		c5.694,0,8.97-2.496,8.97-8.19c0-4.914-4.212-6.786-8.424-6.786h-14.898V75.331z"/>
	<path d="M200.408,47.328c-0.937-3.354-2.73-9.672-12.403-9.672c-5.616,0-13.884,3.744-13.884,19.579
		c0,10.063,3.978,19.111,13.884,19.111c6.474,0,10.999-3.666,12.403-10.53h11.7c-2.34,12.168-10.296,20.67-24.337,20.67
		c-14.898,0-25.585-10.062-25.585-29.407c0-19.579,11.311-29.563,25.741-29.563c16.771,0,23.557,11.544,24.181,19.813H200.408z"/>
	<path d="M231.06,28.997h24.728c18.876,0,22.776,16.068,22.776,26.677c0,12.013-4.759,29.329-23.245,29.329H231.06V28.997z
		 M242.526,75.331h11.388c9.517,0,12.715-9.594,12.715-18.799c0-16.537-7.879-17.863-12.871-17.863h-11.232V75.331z"/>
	<path d="M338.623,38.903h-29.719v11.778h27.301v9.906h-27.301v14.509h31.045v9.906h-42.512V28.997h41.186V38.903z"/>
	<path d="M371.225,85.003h-11.701V28.997h39.861v9.906h-28.16V51.54h24.648v9.907h-24.648V85.003z"/>
	<path d="M443.531,54.816h23.4v30.187h-7.801l-1.17-7.021c-2.963,3.433-7.254,8.502-17.473,8.502
		c-13.494,0-25.74-9.672-25.74-29.329c0-15.21,8.424-29.641,27.223-29.641h0.156c17.16,0,23.947,11.154,24.57,18.877h-11.699
		c0-2.184-3.979-9.205-12.246-9.205c-8.348,0-16.07,5.772-16.07,20.125c0,15.289,8.348,19.267,16.303,19.267
		c2.574,0,11.154-1.014,13.572-12.325h-13.025V54.816z"/>
	<path d="M43.238,153.486v25.117H31.538v-56.006h11.701v21.217h21.841v-21.217h11.7v56.006h-11.7v-25.117H43.238z"/>
	<path d="M115.569,178.603h-11.7v-56.006h11.7V178.603z"/>
	<path d="M174.876,162.378c0,11.856-6.162,17.628-17.395,17.628c-18.643,0-18.643-11.856-18.643-22.542h10.921
		c0,8.814,0.624,13.104,6.864,13.104c6.084,0,6.552-3.9,6.552-8.19v-39.782h11.701V162.378z"/>
	<path d="M215.54,178.603h-11.701v-56.006h11.701v22.777l21.373-22.777h15.132L229.19,145.53l24.181,33.073h-15.054L221,154.032
		l-5.46,5.616V178.603z"/>
	<path d="M287.559,168.463h27.848v10.14h-39.548v-56.006h11.7V168.463z"/>
	<path d="M393.822,178.603h-10.92v-46.802h-0.156l-10.453,46.802h-11.467l-10.217-46.802h-0.156v46.802h-10.922v-56.006h17.084
		l10.141,44.15h0.154l9.984-44.15h16.928V178.603z"/>
	<path d="M455.779,122.597h10.92v56.006h-11.701l-22.854-39.938h-0.156v39.938h-10.922v-56.006h12.326l22.23,39.002h0.156V122.597z"
		/>
	<path d="M56.343,214.715c7.41,0,26.911,3.198,26.911,29.485s-19.5,29.485-26.911,29.485c-7.411,0-26.911-3.198-26.911-29.485
		S48.932,214.715,56.343,214.715z M56.343,263.779c6.318,0,15.21-3.9,15.21-19.579s-8.893-19.579-15.21-19.579
		c-6.318,0-15.21,3.9-15.21,19.579S50.024,263.779,56.343,263.779z"/>
	<path d="M127.946,272.203h-11.7v-56.006h25.585c10.842,0,17.395,6.942,17.395,17.94c0,5.07-2.808,17.862-17.862,17.862h-13.417
		V272.203z M138.789,242.328c8.736,0,8.736-6.24,8.736-8.736c0-5.46-3.042-7.723-10.296-7.723h-9.283v16.459H138.789z"/>
	<path d="M237.302,276.26l-6.63-6.318c-5.304,3.119-11.077,3.744-14.353,3.744c-7.411,0-26.911-3.198-26.911-29.485
		s19.5-29.485,26.911-29.485c7.41,0,26.911,3.198,26.911,29.485c0,9.204-2.418,15.601-5.85,19.969l6.084,5.772L237.302,276.26z
		 M223.027,250.674l5.928,5.539c1.56-2.887,2.574-6.787,2.574-12.013c0-15.679-8.893-19.579-15.21-19.579
		c-6.318,0-15.21,3.9-15.21,19.579s8.892,19.579,15.21,19.579c1.95,0,4.212-0.391,6.318-1.482l-5.616-5.305L223.027,250.674z"/>
	<path d="M276.223,216.197h28.314c14.898,0,17.629,10.998,17.629,15.834c0,6.162-3.121,11.466-8.658,13.338
		c4.602,2.028,7.098,3.744,7.098,14.196c0,8.19,0,10.219,2.496,11.154v1.482h-12.947c-0.781-2.652-1.248-5.538-1.248-11.311
		c0-7.645-0.469-10.608-9.127-10.608h-12.091v21.919h-11.466V216.197z M301.417,240.846c6.085,0,9.048-2.106,9.048-7.644
		c0-2.964-1.326-7.333-8.189-7.333h-14.587v14.977H301.417z"/>
	<path d="M364.518,254.965c0.078,3.119,1.637,9.048,11.855,9.048c5.539,0,11.701-1.326,11.701-7.254
		c0-4.368-4.213-5.538-10.141-6.942l-6.006-1.404c-9.049-2.106-17.785-4.134-17.785-16.458c0-6.24,3.354-17.239,21.529-17.239
		c17.16,0,21.762,11.232,21.84,18.097h-11.232c-0.311-2.496-1.248-8.424-11.465-8.424c-4.447,0-9.752,1.638-9.752,6.708
		c0,4.368,3.588,5.304,5.93,5.85l13.65,3.354c7.645,1.872,14.664,4.992,14.664,15.055c0,16.849-17.16,18.331-22.074,18.331
		c-20.438,0-23.947-11.779-23.947-18.721H364.518z"/>
	<path d="M454.061,272.203h-11.701v-46.1h-16.926v-9.906h45.553v9.906h-16.926V272.203z"/>
	<path d="M76.779,346.224c0,14.743-8.892,21.062-23.011,21.062c-5.148,0-12.792-1.248-17.785-6.787
		c-3.042-3.432-4.212-7.956-4.368-13.572v-37.129H43.55v36.35c0,7.8,4.524,11.232,9.984,11.232c8.034,0,11.311-3.9,11.311-10.687
		v-36.896h11.934V346.224z"/>
	<path d="M143.156,309.797h12.168l-19.033,56.006h-11.154l-18.877-56.006h12.559l12.012,42.434h0.156L143.156,309.797z"/>
	<path d="M180.516,309.797h12.48c7.176,30.655,7.878,34.555,8.893,40.951h0.156c1.014-5.85,1.872-11.544,7.8-40.951h12.402
		c6.552,30.732,7.099,33.697,8.347,40.951h0.156c0.936-5.304,1.872-10.141,9.126-40.951h11.856l-15.756,56.006h-11.232
		c-5.772-27.457-6.786-32.917-8.658-43.682h-0.156c-1.716,10.765-2.652,14.82-8.658,43.682h-10.92L180.516,309.797z"/>
	<path d="M326.299,365.803h-14.273l-10.609-19.11l-11.311,19.11h-13.65l18.098-28.627l-17.084-27.379h13.963l9.984,18.097
		l10.219-18.097h13.494l-17.082,26.911L326.299,365.803z"/>
	<path d="M382.068,365.803h-11.701v-21.139l-19.344-34.867h13.807l11.621,24.337l11.078-24.337h13.26l-18.721,35.023V365.803z"/>
	<path d="M470.053,365.803h-43.76v-9.906l28.938-36.193h-28.158v-9.906h42.824v9.204l-29.33,36.896h29.486V365.803z"/>
	<path d="M41.912,443.881H36.14l-3.12-26.209v-14.274h12.012v14.274L41.912,443.881z M44.72,459.403H33.332v-10.998H44.72V459.403z"
		/>
	<path d="M126.964,416.813h6.864l-4.524,19.891c-0.234,0.937-0.546,2.263-0.546,3.276c0,0.937,0.312,1.639,1.17,1.639
		c4.134,0,8.814-5.227,8.814-13.729c0-12.715-9.282-19.735-21.294-19.735c-13.417,0-22.231,10.141-22.231,23.401
		c0,13.884,9.828,23.089,23.323,23.089c6.474,0,12.247-2.496,16.381-6.318h6.942c-5.46,8.034-14.041,12.559-23.791,12.559
		c-16.849,0-30.577-12.48-30.577-29.485c0-16.692,13.65-29.485,30.109-29.485c14.119,0,27.457,9.517,27.457,24.103
		c0,16.771-14.508,22.699-19.891,22.699c-2.262,0-4.291-1.326-4.446-4.134l-0.156-0.078c-2.028,2.262-5.148,4.212-8.19,4.212
		c-6.786,0-12.559-6.24-12.559-13.572c0-9.75,6.63-19.267,16.692-19.267c3.9,0,7.177,1.403,9.438,5.07L126.964,416.813z
		 M117.37,423.444c-5.382,0-9.126,5.694-9.126,10.53c0,4.056,2.262,6.942,6.084,6.942c5.538,0,9.282-5.694,9.282-10.843
		C123.61,426.252,121.036,423.444,117.37,423.444z"/>
	<path d="M219.424,443.881h-7.566l-2.184,15.522h-7.333l2.185-15.522h-7.566l-2.184,15.522h-7.333l2.184-15.522h-7.566l0.936-7.021
		h7.566l1.326-9.36h-7.566l0.936-7.021h7.566l2.184-15.522h7.332l-2.184,15.522h7.566l2.184-15.522h7.333l-2.184,15.522h7.566
		l-0.937,7.021h-7.566l-1.326,9.36h7.566L219.424,443.881z M199.221,427.5l-1.326,9.36h7.566l1.326-9.36H199.221z"/>
	<path d="M280.217,420.324c-0.468-7.177-3.354-8.035-6.396-8.035v14.587c7.332,2.34,11.076,4.29,13.027,6.162
		c4.211,3.979,4.289,8.971,4.289,10.921c0,7.176-4.445,16.068-17.316,16.771v7.645h-3.588v-7.645
		c-12.637-1.015-17.551-6.475-17.551-18.097H262.9c0.468,5.46,1.326,8.736,7.332,9.828V436.08
		c-7.645-2.027-16.381-5.07-16.381-15.834c0-8.503,5.305-16.068,16.381-16.225v-5.07h3.588v5.07
		c5.851,0.624,15.445,2.418,16.459,16.303H280.217z M270.232,412.289c-4.602,0.234-6.553,3.511-6.553,6.085
		c0,5.07,3.511,6.708,6.553,7.41V412.289z M273.82,452.461c2.574-0.156,6.865-1.638,6.865-7.645c0-4.523-3.744-6.552-6.865-7.41
		V452.461z"/>
	<path d="M336.408,404.021c7.721,0,14.195,6.396,14.195,14.196c0,7.878-6.475,14.196-14.195,14.196
		c-7.801,0-14.197-6.24-14.197-14.196C322.211,410.34,328.607,404.021,336.408,404.021z M336.408,424.38
		c3.354,0,6.162-2.729,6.162-6.162s-2.809-6.162-6.162-6.162c-3.355,0-6.162,2.729-6.162,6.162S333.053,424.38,336.408,424.38z
		 M341.867,460.886h-5.771l31.045-56.864h5.771L341.867,460.886z M372.99,431.946c7.723,0,14.197,6.396,14.197,14.196
		c0,7.879-6.475,14.197-14.197,14.197c-7.799,0-14.195-6.24-14.195-14.197C358.795,438.265,365.191,431.946,372.99,431.946z
		 M372.99,452.305c3.355,0,6.162-2.729,6.162-6.162c0-3.432-2.807-6.162-6.162-6.162c-3.354,0-6.162,2.73-6.162,6.162
		C366.828,449.575,369.637,452.305,372.99,452.305z"/>
	<path d="M470.365,459.403h-13.184l-3.82-4.758c-3.277,3.275-7.566,6.24-15.992,6.24c-10.686,0-17.473-7.566-17.473-15.913
		c0-5.382,1.482-10.687,10.766-16.303l1.17-0.702c-2.34-2.651-5.07-6.864-5.07-11.7c0-7.645,6.162-12.87,14.898-12.87
		c6.162,0,13.729,3.978,13.729,12.948c0,7.878-7.02,12.013-9.283,13.339l7.957,9.828c1.404-2.185,2.496-4.914,2.887-9.204h9.672
		c-0.703,7.566-2.652,11.934-6.396,16.849L470.365,459.403z M437.447,434.91c-4.602,3.354-6.629,4.914-6.629,9.36
		c0,2.185,1.715,7.41,8.268,7.41c3.588,0,6.787-2.184,8.658-3.899L437.447,434.91z M441.27,411.666c-2.418,0-4.523,1.56-4.523,4.523
		c0,1.872,1.404,4.135,4.057,7.021c2.963-1.872,5.146-4.056,5.146-6.942C445.949,413.147,443.922,411.666,441.27,411.666z"/>
</g>
</svg>
