<?xml version="1.0" encoding="utf-8"?>
<!-- Generator: Adobe Illustrator 16.0.0, SVG Export Plug-In . SVG Version: 6.00 Build 0)  -->
<!DOCTYPE svg PUBLIC "-//W3C//DTD SVG 1.1//EN" "http://www.w3.org/Graphics/SVG/1.1/DTD/svg11.dtd">
<svg version="1.1" id="Layer_1" xmlns="http://www.w3.org/2000/svg" xmlns:xlink="http://www.w3.org/1999/xlink" x="0px" y="0px"
	 width="500px" height="500px" viewBox="0 0 500 500" enable-background="new 0 0 500 500" xml:space="preserve">
<g>
	<path d="M66.18,88.28l-2.742-10.436H45.347L42.529,88.28H26l18.167-55.91h20.071l18.396,55.91H66.18z M60.315,65.504l-2.399-9.141
		c-0.559-2.031-1.238-4.659-2.038-7.884c-0.8-3.224-1.327-5.535-1.581-6.932c-0.229,1.295-0.68,3.428-1.352,6.398
		c-0.673,2.971-2.165,8.823-4.475,17.558H60.315z"/>
	<path d="M103.043,32.598h19.424c7.566,0,13.184,1.124,16.853,3.371c3.669,2.247,5.503,5.745,5.503,10.493
		c0,3.123-0.8,5.789-2.399,7.998s-3.708,3.631-6.322,4.266v0.381c3.453,0.914,5.954,2.438,7.503,4.57
		c1.548,2.133,2.323,4.9,2.323,8.303c0,5.053-1.898,9.033-5.694,11.94c-3.796,2.908-8.969,4.361-15.52,4.361h-21.671V32.598z
		 M118.087,53.964h4.532c2.158,0,3.828-0.444,5.008-1.333c1.181-0.889,1.771-2.209,1.771-3.961c0-3.123-2.361-4.685-7.084-4.685
		h-4.228V53.964z M118.087,64.971v11.692h5.294c4.697,0,7.046-1.98,7.046-5.941c0-1.853-0.628-3.275-1.885-4.266
		s-3.079-1.485-5.465-1.485H118.087z"/>
	<path d="M194.788,44.138c-3.58,0-6.374,1.466-8.379,4.399c-2.006,2.933-3.009,6.976-3.009,12.13
		c0,10.715,4.075,16.072,12.226,16.072c2.462,0,4.85-0.343,7.16-1.028c2.31-0.686,4.633-1.51,6.97-2.476v12.721
		c-4.646,2.057-9.902,3.085-15.768,3.085c-8.404,0-14.848-2.438-19.329-7.313c-4.481-4.875-6.722-11.921-6.722-21.138
		c0-5.764,1.085-10.829,3.256-15.196c2.171-4.367,5.294-7.725,9.369-10.074c4.075-2.348,8.868-3.523,14.377-3.523
		c6.018,0,11.769,1.308,17.253,3.923l-4.608,11.845c-2.057-0.965-4.113-1.777-6.17-2.438
		C199.358,44.468,197.149,44.138,194.788,44.138z"/>
	<path d="M282.268,59.258c0,9.293-2.559,16.453-7.674,21.48c-5.117,5.027-12.309,7.541-21.576,7.541h-18.015V32.598h19.271
		c8.937,0,15.837,2.285,20.7,6.855C279.836,44.024,282.268,50.626,282.268,59.258z M266.652,59.792c0-5.104-1.01-8.887-3.027-11.35
		c-2.02-2.462-5.085-3.694-9.198-3.694h-4.38V75.94h3.352c4.57,0,7.922-1.327,10.055-3.98
		C265.586,69.307,266.652,65.251,266.652,59.792z"/>
	<path d="M339.697,88.28h-33.059V32.598h33.059v12.073h-18.016v8.76h16.682v12.073h-16.682v10.512h18.016V88.28z"/>
	<path d="M378.654,88.28H363.84V32.598h32.906v12.073h-18.092v10.626h16.682v12.073h-16.682V88.28z"/>
	<path d="M442.635,55.678h24.033V85.69c-6.525,2.234-13.699,3.352-21.52,3.352c-8.582,0-15.215-2.488-19.898-7.465
		c-4.686-4.976-7.027-12.073-7.027-21.29c0-8.988,2.564-15.983,7.693-20.985c5.129-5.002,12.314-7.503,21.557-7.503
		c3.504,0,6.811,0.33,9.922,0.99c3.109,0.661,5.82,1.499,8.131,2.514l-4.762,11.807c-4.012-1.98-8.416-2.971-13.215-2.971
		c-4.393,0-7.789,1.428-10.188,4.285c-2.4,2.856-3.6,6.938-3.6,12.245c0,5.205,1.086,9.173,3.256,11.902
		c2.172,2.729,5.301,4.094,9.389,4.094c2.234,0,4.291-0.215,6.17-0.647v-8.722h-9.941V55.678z"/>
	<path d="M79.739,181.879h-15.12V159.18H47.137v22.699h-15.12v-55.682h15.12v20.643h17.481v-20.643h15.12V181.879z"/>
	<path d="M107.138,181.879v-55.682h15.12v55.682H107.138z"/>
	<path d="M145.276,199.361c-2.742,0-5.345-0.267-7.808-0.8v-11.692c0.813,0.152,1.676,0.324,2.59,0.514s1.904,0.286,2.971,0.286
		c2.488,0,4.266-0.749,5.332-2.247c1.066-1.499,1.6-4.062,1.6-7.693v-51.53h15.12v50.235c0,7.541-1.651,13.248-4.951,17.12
		C156.829,197.424,151.878,199.361,145.276,199.361z"/>
	<path d="M240.049,181.879h-16.986l-11.007-21.29l-4.456,2.666v18.624h-15.12v-55.682h15.12v24.185
		c0.762-1.498,2.298-3.872,4.608-7.122l11.692-17.063h16.453l-17.558,24.946L240.049,181.879z"/>
	<path d="M261.431,181.879v-55.682h15.044v43.532h21.442v12.149H261.431z"/>
	<path d="M346.453,181.879l-11.387-40.104h-0.344c0.533,6.831,0.801,12.137,0.801,15.92v24.185h-13.33v-55.682h20.033l11.615,39.533
		h0.305l11.389-39.533h20.07v55.682h-13.824v-24.413c0-1.27,0.02-2.679,0.057-4.228c0.039-1.548,0.209-5.345,0.514-11.388h-0.342
		l-11.236,40.028H346.453z"/>
	<path d="M465.982,181.879h-19.729l-20.338-39.229h-0.344c0.482,6.17,0.725,10.88,0.725,14.13v25.099h-13.33v-55.682h19.652
		l20.262,38.695h0.229c-0.355-5.611-0.533-10.118-0.533-13.521v-25.175h13.406V181.879z"/>
	<path d="M84.119,247.563c0,9.369-2.298,16.491-6.894,21.366c-4.596,4.875-11.325,7.313-20.186,7.313
		c-8.735,0-15.431-2.45-20.09-7.351c-4.66-4.9-6.989-12.035-6.989-21.404c0-9.268,2.317-16.345,6.951-21.233
		c4.633-4.888,11.369-7.332,20.205-7.332c8.861,0,15.577,2.425,20.147,7.274C81.833,231.046,84.119,238.168,84.119,247.563z
		 M45.804,247.563c0,10.766,3.745,16.148,11.235,16.148c3.809,0,6.633-1.308,8.474-3.923c1.841-2.614,2.761-6.69,2.761-12.226
		c0-5.561-0.933-9.667-2.799-12.321c-1.866-2.653-4.653-3.98-8.36-3.98C49.575,231.262,45.804,236.695,45.804,247.563z"/>
	<path d="M160.286,237.508c0,6.221-1.834,11.026-5.503,14.416c-3.669,3.389-8.88,5.084-15.634,5.084h-4.228v18.472h-15.044v-55.682
		h19.271c7.033,0,12.314,1.537,15.844,4.608C158.521,227.479,160.286,231.846,160.286,237.508z M134.92,244.744h2.742
		c2.26,0,4.056-0.634,5.389-1.904c1.333-1.27,2-3.021,2-5.256c0-3.757-2.082-5.637-6.246-5.637h-3.885V244.744z"/>
	<path d="M246.964,247.563c0,12.619-4.012,21.125-12.035,25.518l13.597,15.653h-18.738l-9.826-12.378l-0.038-0.038v-0.038
		l-0.038-0.038c-8.735,0-15.431-2.45-20.09-7.351c-4.66-4.9-6.989-12.035-6.989-21.404c0-9.268,2.317-16.345,6.951-21.233
		c4.633-4.888,11.369-7.332,20.205-7.332c8.861,0,15.577,2.425,20.147,7.274C244.679,231.046,246.964,238.168,246.964,247.563z
		 M208.65,247.563c0,10.766,3.745,16.148,11.235,16.148c3.809,0,6.633-1.308,8.474-3.923c1.841-2.614,2.761-6.69,2.761-12.226
		c0-5.561-0.933-9.667-2.799-12.321c-1.866-2.653-4.653-3.98-8.36-3.98C212.42,231.262,208.65,236.695,208.65,247.563z"/>
	<path d="M297.766,255.218v20.262h-15.043v-55.682h18.242c15.133,0,22.699,5.484,22.699,16.453c0,6.45-3.148,11.439-9.445,14.968
		l16.225,24.261h-17.063l-11.807-20.262H297.766z M297.766,243.906h2.818c5.256,0,7.885-2.323,7.885-6.97
		c0-3.833-2.578-5.751-7.732-5.751h-2.971V243.906z"/>
	<path d="M397.623,258.569c0,3.453-0.877,6.519-2.629,9.198c-1.752,2.679-4.277,4.76-7.578,6.246
		c-3.301,1.484-7.174,2.228-11.617,2.228c-3.707,0-6.816-0.261-9.33-0.78c-2.514-0.521-5.129-1.429-7.846-2.724v-13.406
		c2.869,1.473,5.852,2.622,8.949,3.446c3.098,0.826,5.941,1.238,8.531,1.238c2.234,0,3.873-0.387,4.914-1.162
		c1.041-0.773,1.561-1.771,1.561-2.989c0-0.762-0.209-1.429-0.627-1.999c-0.42-0.572-1.094-1.148-2.02-1.733
		c-0.928-0.584-3.396-1.776-7.408-3.58c-3.631-1.65-6.354-3.25-8.168-4.799c-1.816-1.548-3.162-3.326-4.037-5.332
		c-0.877-2.005-1.314-4.38-1.314-7.122c0-5.128,1.865-9.127,5.598-11.997c3.732-2.869,8.861-4.304,15.387-4.304
		c5.764,0,11.643,1.333,17.635,3.999l-4.609,11.616c-5.205-2.386-9.699-3.58-13.482-3.58c-1.955,0-3.377,0.343-4.266,1.028
		s-1.332,1.537-1.332,2.552c0,1.092,0.564,2.07,1.695,2.933c1.129,0.863,4.195,2.438,9.197,4.723
		c4.799,2.158,8.131,4.475,9.998,6.951C396.689,251.695,397.623,254.813,397.623,258.569z"/>
	<path d="M456.498,275.479h-15.043V232.1h-13.598v-12.302h42.199V232.1h-13.559V275.479z"/>
	<path d="M79.358,313.398v33.516c0,7.287-2.063,12.93-6.189,16.93c-4.126,3.998-10.074,5.998-17.843,5.998
		c-7.592,0-13.425-1.942-17.5-5.827s-6.113-9.471-6.113-16.758v-33.858h15.12v32.678c0,3.936,0.736,6.792,2.209,8.569
		c1.472,1.777,3.643,2.666,6.513,2.666c3.072,0,5.3-0.882,6.684-2.647c1.384-1.764,2.076-4.652,2.076-8.664v-32.602H79.358z"/>
	<path d="M141.509,313.398h16.834L140.1,369.08h-17.71l-18.167-55.682h16.91l7.579,28.222c1.574,6.271,2.438,10.639,2.59,13.102
		c0.177-1.777,0.533-3.999,1.066-6.665s1.003-4.761,1.409-6.284L141.509,313.398z"/>
	<path d="M243.689,369.08h-17.786l-5.332-24.261c-0.254-1.016-0.654-3.034-1.2-6.056c-0.546-3.021-0.946-5.548-1.2-7.579
		c-0.204,1.65-0.533,3.701-0.99,6.151s-0.908,4.703-1.352,6.76c-0.444,2.057-2.292,10.385-5.542,24.984h-17.786l-13.787-55.682
		h14.511l6.056,27.917c1.371,6.17,2.31,11.083,2.818,14.739c0.33-2.59,0.92-6.106,1.771-10.55c0.851-4.443,1.644-8.125,2.38-11.045
		l4.913-21.062h13.939l4.761,21.062c0.813,3.377,1.638,7.274,2.476,11.692s1.396,7.719,1.676,9.902
		c0.33-2.818,1.231-7.706,2.704-14.663l6.17-27.993H257.4L243.689,369.08z"/>
	<path d="M333.947,369.08h-17.404l-10.855-17.405l-10.74,17.405h-17.023l18.471-28.488l-17.367-27.193h16.682l10.055,17.215
		l9.674-17.215h17.178l-17.635,28.374L333.947,369.08z"/>
	<path d="M379.266,334.041l9.598-20.643h16.301l-18.32,33.935v21.747h-15.158v-21.29l-18.318-34.392h16.377L379.266,334.041z"/>
	<path d="M470.057,369.08h-43.379v-9.293l24.107-34.239h-23.537v-12.149h42.199v9.255l-24.107,34.277h24.717V369.08z"/>
	<path d="M43.633,443.027H31.065l-1.942-36.029h16.453L43.633,443.027z M29.275,456.357c0-2.311,0.686-4.106,2.057-5.389
		s3.364-1.924,5.979-1.924c2.59,0,4.551,0.642,5.884,1.924s2,3.078,2,5.389c0,2.285-0.692,4.069-2.076,5.352
		c-1.384,1.281-3.32,1.923-5.808,1.923c-2.514,0-4.481-0.642-5.903-1.923C29.985,460.427,29.275,458.643,29.275,456.357z"/>
	<path d="M139.422,433.887c0,3.58-0.616,6.919-1.847,10.017c-1.232,3.098-2.939,5.522-5.123,7.274
		c-2.184,1.752-4.672,2.628-7.465,2.628c-2.006,0-3.822-0.399-5.446-1.2c-1.625-0.799-2.895-1.91-3.809-3.332h-0.571
		c-2.717,3.021-6.018,4.532-9.902,4.532c-4.646,0-8.214-1.358-10.702-4.075c-2.489-2.717-3.732-6.513-3.732-11.388
		c0-3.58,0.787-6.747,2.361-9.503c1.574-2.754,3.847-4.875,6.817-6.359c2.971-1.486,6.411-2.229,10.321-2.229
		c2.057,0,4.323,0.209,6.798,0.629c2.476,0.418,4.742,0.983,6.798,1.694l-0.8,16.072l-0.076,3.58c0,2.184,0.622,3.275,1.866,3.275
		c1.32,0,2.393-1.104,3.218-3.313c0.825-2.209,1.238-5.002,1.238-8.379c0-6.068-1.714-10.753-5.142-14.054s-8.29-4.951-14.587-4.951
		c-4.824,0-9.021,1.003-12.587,3.009c-3.567,2.006-6.291,4.882-8.169,8.627c-1.879,3.745-2.818,8.131-2.818,13.158
		c0,6.475,1.809,11.471,5.427,14.986c3.618,3.518,8.728,5.275,15.33,5.275c2.945,0,6.125-0.317,9.541-0.952
		c3.415-0.635,6.76-1.536,10.036-2.704v8.722c-5.688,2.412-12.035,3.618-19.043,3.618c-9.852,0-17.59-2.57-23.213-7.713
		c-5.624-5.141-8.436-12.27-8.436-21.385c0-6.424,1.453-12.181,4.361-17.271c2.907-5.091,6.918-9.014,12.035-11.77
		c5.116-2.754,10.912-4.132,17.386-4.132c5.941,0,11.191,1.13,15.749,3.39c4.557,2.26,8.061,5.479,10.512,9.654
		C138.197,423.496,139.422,428.352,139.422,433.887z M101.527,438.267c0,2.539,0.463,4.38,1.39,5.522
		c0.927,1.143,2.152,1.714,3.675,1.714c1.955,0,3.39-0.787,4.304-2.361s1.51-4.367,1.79-8.379l0.381-5.941
		c-1.016-0.152-1.879-0.229-2.59-0.229c-2.742,0-4.919,0.851-6.532,2.552C102.333,432.846,101.527,435.22,101.527,438.267z"/>
	<path d="M206.189,431.716l-1.143,6.398h9.255v9.674h-11.045l-2.818,14.892h-10.207l2.78-14.892h-6.398l-2.704,14.892H173.74
		l2.742-14.892h-8.569v-9.674h10.436l1.181-6.398h-9.064v-9.902h10.931l2.742-14.815h10.207l-2.818,14.815h6.322l2.742-14.815
		h10.207l-2.78,14.815h8.722v9.902H206.189z M188.518,438.114h6.284l1.181-6.398h-6.322L188.518,438.114z"/>
	<path d="M261.303,460.09c-5.561-0.254-10.918-1.498-16.072-3.732v-12.645c2.945,1.498,6.145,2.749,9.598,3.752
		s6.487,1.504,9.103,1.504c2.157,0,3.738-0.26,4.741-0.781c1.004-0.52,1.505-1.39,1.505-2.608c0-0.838-0.362-1.549-1.085-2.133
		c-0.725-0.584-1.93-1.244-3.619-1.98c-1.688-0.736-3.967-1.625-6.836-2.666c-3.225-1.193-5.827-2.532-7.808-4.019
		c-1.98-1.484-3.422-3.147-4.323-4.988c-0.901-1.841-1.352-4.133-1.352-6.875c0-4.189,1.346-7.465,4.037-9.826
		s6.729-3.821,12.111-4.38v-5.218h7.884v5.142c5.052,0.279,10.144,1.523,15.272,3.732l-4.532,10.854
		c-5.308-2.387-10.093-3.58-14.358-3.58c-2.031,0-3.46,0.248-4.285,0.742c-0.824,0.496-1.237,1.226-1.237,2.19
		c0,0.838,0.298,1.53,0.896,2.075c0.596,0.547,1.631,1.156,3.104,1.828c1.473,0.674,3.517,1.454,6.132,2.343
		c5.307,1.879,9.115,4.019,11.426,6.417c2.31,2.4,3.466,5.491,3.466,9.274c0,4.266-1.352,7.731-4.057,10.397
		c-2.703,2.666-6.646,4.316-11.825,4.951v7.351h-7.884V460.09z"/>
	<path d="M341.895,423.604c0,5.586-1.256,9.909-3.77,12.969s-6.094,4.589-10.74,4.589c-4.367,0-7.826-1.581-10.379-4.741
		c-2.551-3.162-3.828-7.434-3.828-12.816c0-5.586,1.244-9.883,3.732-12.893c2.488-3.008,5.98-4.513,10.475-4.513
		c4.443,0,7.973,1.562,10.588,4.685S341.895,418.246,341.895,423.604z M324.643,423.756c0,2.92,0.24,5.027,0.723,6.322
		s1.207,1.942,2.172,1.942s1.682-0.635,2.152-1.904c0.469-1.27,0.703-3.39,0.703-6.36c0-2.92-0.234-5.027-0.703-6.322
		c-0.471-1.295-1.188-1.942-2.152-1.942c-0.99,0-1.721,0.66-2.189,1.98C324.877,418.792,324.643,420.887,324.643,423.756z
		 M369.66,406.998l-30.889,55.682h-11.311l30.887-55.682H369.66z M384.246,445.77c0,5.561-1.264,9.871-3.789,12.93
		c-2.527,3.061-6.1,4.59-10.721,4.59c-4.367,0-7.826-1.58-10.379-4.742c-2.551-3.16-3.828-7.42-3.828-12.777
		c0-5.586,1.244-9.883,3.732-12.893c2.488-3.008,5.98-4.513,10.475-4.513c4.443,0,7.973,1.562,10.588,4.685
		S384.246,440.412,384.246,445.77z M366.994,445.922c0,2.92,0.24,5.027,0.723,6.322s1.207,1.942,2.172,1.942
		c1.092,0,1.848-0.743,2.266-2.228c0.42-1.486,0.629-3.498,0.629-6.037s-0.209-4.551-0.629-6.037
		c-0.418-1.484-1.174-2.228-2.266-2.228c-0.99,0-1.721,0.66-2.189,1.98C367.229,440.958,366.994,443.053,366.994,445.922z"/>
	<path d="M453.146,462.68l-3.77-3.885c-2.285,1.447-4.158,2.444-5.617,2.99c-1.461,0.546-3.1,0.958-4.914,1.237
		c-1.816,0.279-3.891,0.419-6.227,0.419c-4.012,0-7.561-0.686-10.645-2.057c-3.086-1.371-5.447-3.288-7.084-5.751
		c-1.639-2.463-2.457-5.269-2.457-8.417c0-6.652,3.453-11.743,10.359-15.272c-1.574-1.777-2.799-3.662-3.676-5.655
		c-0.875-1.993-1.314-4.247-1.314-6.761c0-4.063,1.568-7.287,4.705-9.674c3.135-2.387,7.445-3.58,12.93-3.58
		c5.357,0,9.527,1.188,12.512,3.562c2.982,2.374,4.475,5.604,4.475,9.692c0,2.818-0.807,5.427-2.418,7.827
		c-1.613,2.398-4.158,4.652-7.637,6.76l7.578,7.198c1.904-2.92,3.225-6.221,3.961-9.902h15.463
		c-0.762,3.504-1.961,7.015-3.598,10.53c-1.639,3.518-3.486,6.532-5.543,9.046l12.188,11.692H453.146z M427.781,446.15
		c0,1.6,0.572,2.907,1.715,3.923s2.652,1.523,4.531,1.523c1.447,0,2.717-0.19,3.809-0.571s1.93-0.813,2.514-1.295l-9.445-9.598
		C428.822,441.682,427.781,443.688,427.781,446.15z M439.018,419.528c0-1.244-0.361-2.139-1.086-2.685
		c-0.723-0.546-1.631-0.819-2.723-0.819c-1.066,0-2,0.317-2.799,0.952c-0.801,0.635-1.201,1.65-1.201,3.047
		c0,1.904,1.117,3.872,3.352,5.903c1.447-0.813,2.553-1.783,3.314-2.913S439.018,420.722,439.018,419.528z"/>
</g>
</svg>
