<?xml version="1.0" encoding="utf-8"?>
<!-- Generator: Adobe Illustrator 16.0.0, SVG Export Plug-In . SVG Version: 6.00 Build 0)  -->
<!DOCTYPE svg PUBLIC "-//W3C//DTD SVG 1.1//EN" "http://www.w3.org/Graphics/SVG/1.1/DTD/svg11.dtd">
<svg version="1.1" id="Layer_1" xmlns="http://www.w3.org/2000/svg" xmlns:xlink="http://www.w3.org/1999/xlink" x="0px" y="0px"
	 width="500px" height="500px" viewBox="0 0 500 500" enable-background="new 0 0 500 500" xml:space="preserve">
<g>
	<path d="M73.683,48.587h-2.628c-0.229-0.914-0.643-2-1.241-3.256s-1.266-2.443-2.004-3.561c-0.764-1.167-1.597-2.19-2.5-3.066
		s-1.775-1.377-2.615-1.504c-0.789-0.101-1.781-0.177-2.977-0.229c-1.196-0.051-2.304-0.076-3.321-0.076h-2.214v43.228
		c0,0.838,0.177,1.606,0.533,2.304c0.355,0.699,0.977,1.238,1.866,1.619c0.457,0.178,1.415,0.419,2.875,0.724
		c1.46,0.305,2.596,0.47,3.409,0.495v2.704H37.349v-2.704c0.71-0.051,1.796-0.152,3.256-0.305c1.46-0.152,2.469-0.343,3.028-0.571
		c0.838-0.33,1.453-0.806,1.847-1.428c0.394-0.622,0.59-1.453,0.59-2.495v-43.57h-2.209c-0.787,0-1.765,0.019-2.933,0.057
		c-1.168,0.038-2.285,0.121-3.352,0.248c-0.838,0.102-1.708,0.604-2.609,1.504c-0.901,0.901-1.733,1.923-2.495,3.066
		s-1.435,2.355-2.019,3.637c-0.584,1.282-0.99,2.342-1.219,3.18h-2.666V33.924h47.112V48.587z"/>
	<path d="M133.935,87.968h-22.433v-2.704c0.609-0.051,1.491-0.127,2.647-0.229c1.155-0.101,1.948-0.253,2.38-0.457
		c0.762-0.305,1.32-0.768,1.676-1.39c0.355-0.622,0.533-1.428,0.533-2.418V61.536H93.335v18.814c0,0.889,0.146,1.638,0.438,2.247
		c0.292,0.609,0.87,1.143,1.733,1.6c0.432,0.229,1.2,0.457,2.304,0.686s1.974,0.356,2.609,0.381v2.704H77.987v-2.704
		c0.609-0.051,1.491-0.127,2.647-0.229c1.155-0.101,1.948-0.253,2.38-0.457c0.762-0.305,1.32-0.768,1.676-1.39
		c0.355-0.622,0.533-1.428,0.533-2.418v-39c0-0.813-0.166-1.555-0.495-2.228c-0.33-0.672-0.901-1.2-1.714-1.581
		c-0.686-0.33-1.518-0.622-2.495-0.876c-0.978-0.253-1.822-0.406-2.533-0.457v-2.704h22.433v2.704
		c-0.711,0.025-1.581,0.14-2.609,0.343c-1.028,0.204-1.796,0.394-2.304,0.571c-0.863,0.305-1.441,0.813-1.733,1.523
		c-0.292,0.711-0.438,1.485-0.438,2.323v16.758h25.403V41.77c0-0.813-0.166-1.555-0.495-2.228c-0.33-0.672-0.901-1.2-1.714-1.581
		c-0.686-0.33-1.518-0.622-2.495-0.876c-0.978-0.253-1.822-0.406-2.533-0.457v-2.704h22.433v2.704
		c-0.711,0.025-1.581,0.14-2.609,0.343c-1.028,0.204-1.796,0.394-2.304,0.571c-0.863,0.305-1.441,0.813-1.733,1.523
		c-0.292,0.711-0.438,1.485-0.438,2.323v38.962c0,0.889,0.146,1.638,0.438,2.247c0.292,0.609,0.87,1.143,1.733,1.6
		c0.432,0.229,1.2,0.457,2.304,0.686s1.974,0.356,2.609,0.381V87.968z"/>
	<path d="M186.989,72.048l-1.028,15.92h-44.865v-2.704c0.762-0.051,1.777-0.158,3.047-0.324c1.27-0.165,2.095-0.336,2.476-0.514
		c0.813-0.381,1.377-0.876,1.695-1.485c0.317-0.609,0.476-1.384,0.476-2.323V41.77c0-0.838-0.14-1.581-0.419-2.228
		c-0.28-0.647-0.863-1.174-1.752-1.581c-0.686-0.33-1.606-0.622-2.761-0.876c-1.156-0.253-2.076-0.406-2.761-0.457v-2.704h41.818
		v13.025h-2.856c-0.508-1.929-1.606-3.98-3.294-6.151c-1.689-2.171-3.294-3.357-4.818-3.561c-0.787-0.101-1.727-0.177-2.818-0.229
		c-1.092-0.051-2.336-0.076-3.732-0.076h-8.493v21.48h6.094c1.955,0,3.383-0.184,4.285-0.552c0.901-0.368,1.695-0.984,2.38-1.847
		c0.558-0.736,1.034-1.72,1.428-2.952c0.394-1.231,0.653-2.393,0.781-3.485h2.856v21.176h-2.856
		c-0.102-1.219-0.375-2.507-0.819-3.866c-0.444-1.358-0.908-2.342-1.39-2.952c-0.787-0.99-1.682-1.638-2.685-1.942
		c-1.003-0.305-2.33-0.457-3.98-0.457h-6.094v16.198c0,1.623,0.114,2.902,0.343,3.84s0.672,1.648,1.333,2.129
		c0.66,0.482,1.562,0.792,2.704,0.932s2.767,0.209,4.875,0.209c0.838,0,1.942,0,3.313,0s2.526-0.051,3.466-0.152
		c0.965-0.101,1.961-0.286,2.99-0.552s1.758-0.628,2.19-1.085c1.167-1.219,2.393-3.066,3.675-5.542
		c1.282-2.476,2.101-4.297,2.457-5.465H186.989z"/>
	<path d="M267.707,40.322c2.386,2.489,4.252,5.491,5.598,9.007c1.346,3.517,2.02,7.408,2.02,11.673c0,3.403-0.445,6.551-1.334,9.445
		s-2.146,5.484-3.77,7.77c-1.549,2.184-3.391,4.088-5.523,5.713c-2.133,1.625-4.52,2.908-7.16,3.847
		c0.051,2.793,1.054,5.3,3.01,7.522c1.955,2.222,4.062,3.333,6.322,3.333c2.081,0,3.668-0.07,4.76-0.209
		c1.092-0.14,1.994-0.273,2.705-0.4v3.009c-1.143,0.33-2.571,0.679-4.285,1.047c-1.714,0.368-4.094,0.552-7.141,0.552
		c-1.701,0-3.365-0.248-4.99-0.743s-3.098-1.289-4.418-2.38c-1.32-1.092-2.418-2.476-3.294-4.151s-1.441-3.732-1.695-6.17
		c-3.631-0.127-6.995-0.908-10.093-2.342c-3.098-1.434-5.751-3.396-7.96-5.884c-2.234-2.514-3.974-5.465-5.218-8.855
		c-1.244-3.39-1.866-7.09-1.866-11.102c0-4.393,0.686-8.309,2.057-11.75c1.371-3.44,3.262-6.417,5.675-8.931
		c2.386-2.488,5.161-4.393,8.322-5.713c3.161-1.32,6.468-1.98,9.921-1.98c3.581,0,6.957,0.673,10.131,2.019
		C262.654,35.994,265.396,37.885,267.707,40.322z M262.031,78.637c1.422-2.31,2.457-4.926,3.104-7.846
		c0.647-2.919,0.972-6.183,0.972-9.788c0-3.707-0.362-7.109-1.086-10.207c-0.724-3.098-1.784-5.738-3.18-7.922
		c-1.396-2.158-3.148-3.84-5.256-5.046c-2.108-1.206-4.52-1.809-7.237-1.809c-3.047,0-5.637,0.699-7.77,2.095
		c-2.133,1.396-3.872,3.263-5.218,5.599c-1.27,2.234-2.215,4.85-2.837,7.846c-0.623,2.996-0.933,6.145-0.933,9.445
		c0,3.656,0.33,6.957,0.99,9.902c0.66,2.946,1.701,5.561,3.123,7.846c1.371,2.234,3.098,3.98,5.18,5.237
		c2.082,1.257,4.57,1.885,7.465,1.885c2.717,0,5.167-0.634,7.35-1.904C258.883,82.699,260.66,80.922,262.031,78.637z"/>
	<path d="M336.756,36.628c-0.711,0.025-1.752,0.178-3.123,0.457c-1.371,0.28-2.488,0.699-3.352,1.257
		c-0.863,0.584-1.459,1.79-1.789,3.618s-0.496,4.063-0.496,6.703v23.499c0,2.996-0.621,5.599-1.865,7.808s-2.883,4.024-4.914,5.446
		c-2.006,1.371-4.119,2.355-6.34,2.952c-2.223,0.596-4.35,0.895-6.381,0.895c-3.25,0-6.145-0.425-8.684-1.276s-4.672-2-6.398-3.447
		c-1.701-1.447-2.983-3.104-3.846-4.97c-0.863-1.866-1.295-3.814-1.295-5.846V41.77c0-0.889-0.146-1.631-0.438-2.228
		c-0.292-0.596-0.882-1.148-1.771-1.657c-0.635-0.355-1.447-0.641-2.438-0.857c-0.99-0.215-1.804-0.349-2.438-0.4v-2.704h22.508
		v2.704c-0.711,0.025-1.605,0.14-2.685,0.343s-1.872,0.394-2.38,0.571c-0.863,0.305-1.441,0.812-1.733,1.522
		c-0.292,0.711-0.438,1.484-0.438,2.322v29.835c0,1.446,0.158,2.962,0.477,4.548c0.317,1.586,0.945,3.063,1.885,4.433
		c0.99,1.396,2.336,2.538,4.037,3.425c1.701,0.888,4.037,1.332,7.008,1.332c2.793,0,5.135-0.444,7.027-1.332
		c1.891-0.888,3.383-2.055,4.475-3.501c1.041-1.37,1.777-2.803,2.209-4.3s0.648-3.006,0.648-4.529V49.148
		c0-2.816-0.203-5.118-0.609-6.907c-0.406-1.789-1.004-2.962-1.791-3.521c-0.889-0.634-2.102-1.129-3.637-1.484
		c-1.537-0.355-2.711-0.558-3.523-0.609v-2.704h22.09V36.628z"/>
	<path d="M364.711,87.968h-24.336v-2.704c0.686-0.051,1.676-0.127,2.971-0.229c1.295-0.101,2.209-0.253,2.742-0.457
		c0.838-0.33,1.447-0.781,1.828-1.352s0.57-1.365,0.57-2.38V41.693c0-0.889-0.139-1.631-0.418-2.228
		c-0.279-0.596-0.939-1.098-1.98-1.504c-0.762-0.305-1.721-0.59-2.877-0.857c-1.154-0.267-2.1-0.425-2.836-0.476v-2.704h24.336
		v2.704c-0.787,0.025-1.727,0.121-2.818,0.286c-1.092,0.166-2.043,0.375-2.855,0.628c-0.965,0.305-1.613,0.8-1.943,1.485
		s-0.494,1.447-0.494,2.285v39.114c0,0.838,0.184,1.581,0.551,2.228c0.369,0.647,0.998,1.162,1.887,1.542
		c0.533,0.204,1.402,0.425,2.607,0.667c1.207,0.242,2.229,0.375,3.066,0.4V87.968z"/>
	<path d="M395.273,89.263c-3.221,0-6.311-0.636-9.266-1.905c-2.955-1.27-5.576-3.1-7.857-5.488c-2.26-2.388-4.061-5.303-5.404-8.747
		c-1.346-3.442-2.018-7.324-2.018-11.643c0-4.319,0.66-8.238,1.979-11.758c1.32-3.519,3.146-6.548,5.48-9.089
		c2.307-2.515,5.035-4.458,8.18-5.831c3.146-1.373,6.508-2.059,10.084-2.059c2.664,0,5.072,0.33,7.229,0.99
		c2.156,0.661,4.211,1.587,6.164,2.78l1.561-2.59h3.047l0.344,19.271h-3.123c-0.406-1.879-1.016-3.917-1.826-6.113
		c-0.813-2.196-1.764-4.056-2.854-5.58c-1.217-1.727-2.662-3.079-4.336-4.056c-1.674-0.977-3.59-1.466-5.744-1.466
		c-2.461,0-4.75,0.546-6.867,1.639c-2.117,1.093-3.949,2.707-5.496,4.841c-1.471,2.059-2.625,4.676-3.463,7.852
		c-0.836,3.177-1.254,6.721-1.254,10.634c0,3.456,0.438,6.626,1.313,9.51c0.873,2.884,2.123,5.419,3.748,7.604
		c1.621,2.16,3.543,3.85,5.762,5.07c2.219,1.22,4.699,1.829,7.438,1.829c2.055,0,3.945-0.324,5.67-0.971s3.221-1.504,4.488-2.571
		c1.268-1.117,2.383-2.386,3.348-3.809c0.965-1.422,1.75-2.971,2.359-4.646l2.855,1.371c-2.182,5.357-5.074,9.185-8.676,11.483
		C404.533,88.114,400.246,89.263,395.273,89.263z"/>
	<path d="M474.018,87.968h-15.158c-2.92-4.519-6.164-9.007-9.73-13.463c-3.568-4.456-7.307-8.779-11.217-12.968h-0.99v18.814
		c0,0.838,0.158,1.587,0.477,2.247c0.316,0.661,0.895,1.194,1.732,1.6c0.406,0.178,1.162,0.394,2.268,0.647
		c1.104,0.254,2.023,0.394,2.76,0.419v2.704h-22.432v-2.704c0.584-0.051,1.434-0.127,2.551-0.229
		c1.117-0.101,1.904-0.253,2.361-0.457c0.762-0.33,1.314-0.819,1.658-1.466c0.342-0.647,0.514-1.428,0.514-2.342v-39
		c0-0.863-0.146-1.612-0.438-2.247c-0.293-0.634-0.871-1.155-1.734-1.562c-0.686-0.33-1.498-0.622-2.438-0.876
		c-0.939-0.253-1.764-0.406-2.475-0.457v-2.704h22.432v2.704c-0.711,0.025-1.6,0.14-2.666,0.343
		c-1.066,0.204-1.854,0.394-2.361,0.571c-0.863,0.305-1.447,0.813-1.752,1.523c-0.305,0.711-0.457,1.485-0.457,2.323v18.662h0.762
		c2.285-1.929,4.533-3.942,6.742-6.037s4.215-4.183,6.018-6.265c2.006-2.31,3.471-4.157,4.398-5.542
		c0.926-1.384,1.391-2.609,1.391-3.675c0-0.381-0.236-0.691-0.705-0.933c-0.471-0.241-1.01-0.438-1.619-0.59
		c-0.711-0.152-1.346-0.248-1.904-0.286s-1.016-0.07-1.371-0.095v-2.704h20.262v2.704c-0.076,0-0.24,0.013-0.494,0.038
		c-0.254,0.025-0.547,0.051-0.875,0.076c-0.355,0.025-0.711,0.076-1.066,0.152s-0.813,0.166-1.371,0.267
		c-0.887,0.204-1.807,0.527-2.76,0.971c-0.951,0.444-1.73,0.997-2.34,1.657c-2.613,2.971-5.34,6.044-8.18,9.22
		c-2.838,3.176-5.652,6.072-8.439,8.689c3.863,4.366,7.059,8.122,9.588,11.269s5.219,6.51,8.064,10.088
		c1.088,1.371,2.174,2.47,3.262,3.294c1.086,0.825,2.021,1.441,2.807,1.847c0.656,0.33,1.477,0.584,2.463,0.762
		c0.986,0.178,1.809,0.28,2.465,0.305V87.968z"/>
	<path d="M68.046,156.393c1.574,1.066,2.881,2.463,3.923,4.189c1.041,1.727,1.562,3.822,1.562,6.284
		c0,2.514-0.546,4.698-1.638,6.551c-1.092,1.854-2.514,3.377-4.266,4.57c-1.701,1.168-3.625,2.057-5.77,2.666
		c-2.146,0.609-4.361,0.914-6.646,0.914H29.618v-2.704c0.609-0.051,1.498-0.158,2.666-0.324c1.167-0.165,2.005-0.362,2.514-0.59
		c0.787-0.355,1.346-0.832,1.676-1.428c0.33-0.596,0.495-1.365,0.495-2.304V135.37c0-0.863-0.146-1.625-0.438-2.285
		c-0.292-0.66-0.87-1.193-1.733-1.6c-0.762-0.381-1.613-0.672-2.552-0.876c-0.939-0.203-1.727-0.33-2.361-0.381v-2.704h24.946
		c1.929,0,3.776,0.19,5.542,0.571c1.765,0.381,3.447,1.054,5.046,2.019c1.498,0.889,2.729,2.095,3.694,3.618
		c0.965,1.523,1.447,3.377,1.447,5.561c0,1.904-0.343,3.599-1.028,5.084s-1.651,2.761-2.895,3.828
		c-1.168,1.016-2.508,1.873-4.018,2.571c-1.511,0.699-3.142,1.238-4.894,1.619v0.343c1.548,0.178,3.281,0.565,5.199,1.162
		C64.841,154.495,66.548,155.327,68.046,156.393z M58.835,148.237c0.937-1.094,1.589-2.29,1.957-3.587
		c0.367-1.297,0.551-2.836,0.551-4.617c0-2.976-0.811-5.31-2.432-7.001c-1.621-1.691-4.179-2.538-7.675-2.538
		c-0.811,0-1.831,0.019-3.059,0.057s-2.261,0.07-3.097,0.095v20.795h4.826c2.077,0,3.857-0.267,5.338-0.801
		C56.727,150.106,57.923,149.306,58.835,148.237z M64.124,165.496c0-3.199-1.073-5.827-3.218-7.884
		c-2.146-2.057-5.212-3.085-9.198-3.085c-1.625,0-2.996,0.019-4.113,0.057c-1.118,0.038-1.956,0.07-2.514,0.095v19.043
		c0,1.6,0.647,2.806,1.942,3.618c1.295,0.813,3.098,1.219,5.408,1.219c3.783,0,6.678-1.104,8.684-3.313
		C63.12,173.037,64.124,169.787,64.124,165.496z"/>
	<path d="M169.939,181.568h-14.553c-3.222-5.052-6.132-9.42-8.732-13.102c-2.6-3.681-5.422-7.478-8.465-11.388h-5.536v17.139
		c0,0.889,0.139,1.67,0.419,2.342c0.279,0.673,0.876,1.187,1.79,1.542c0.457,0.178,1.257,0.343,2.399,0.495s2.107,0.242,2.895,0.267
		v2.704h-22.852v-2.704c0.609-0.051,1.491-0.139,2.647-0.267c1.155-0.127,1.961-0.292,2.418-0.495
		c0.762-0.33,1.314-0.813,1.657-1.447c0.343-0.634,0.514-1.447,0.514-2.438v-39.076c0-0.889-0.127-1.676-0.381-2.361
		c-0.254-0.686-0.851-1.206-1.79-1.562c-0.635-0.229-1.46-0.438-2.476-0.628c-1.016-0.19-1.879-0.311-2.59-0.362v-2.704h24.946
		c2.285,0,4.431,0.235,6.437,0.705c2.005,0.47,3.821,1.225,5.446,2.266c1.574,1.016,2.831,2.342,3.771,3.98
		c0.939,1.638,1.409,3.612,1.409,5.922c0,2.082-0.318,3.923-0.952,5.522c-0.635,1.6-1.575,2.984-2.818,4.151
		c-1.143,1.092-2.514,2.038-4.113,2.837s-3.365,1.479-5.294,2.038c2.666,3.529,4.881,6.5,6.646,8.912
		c1.765,2.413,3.929,5.345,6.494,8.798c1.117,1.523,2.126,2.647,3.028,3.371c0.901,0.724,1.796,1.314,2.685,1.771
		c0.66,0.33,1.485,0.584,2.476,0.762c0.99,0.178,1.815,0.28,2.476,0.305V181.568z M149.906,141.294c0-3.27-0.939-5.862-2.818-7.776
		c-1.879-1.914-4.532-2.871-7.96-2.871h-6.475v23.156h4.989c3.504,0,6.423-1.121,8.76-3.365
		C148.738,148.195,149.906,145.147,149.906,141.294z"/>
	<path d="M252.256,133.922c2.387,2.489,4.252,5.491,5.599,9.007c1.346,3.517,2.019,7.408,2.019,11.673
		c0,4.291-0.686,8.188-2.057,11.692s-3.275,6.488-5.713,8.95c-2.361,2.438-5.104,4.317-8.227,5.637s-6.45,1.98-9.979,1.98
		c-3.758,0-7.23-0.705-10.417-2.114c-3.187-1.409-5.922-3.371-8.208-5.884c-2.285-2.462-4.082-5.452-5.389-8.969
		c-1.308-3.517-1.961-7.28-1.961-11.292c0-4.393,0.686-8.309,2.057-11.75c1.371-3.44,3.262-6.417,5.675-8.931
		c2.386-2.488,5.161-4.393,8.322-5.713c3.161-1.32,6.468-1.98,9.921-1.98c3.58,0,6.957,0.673,10.131,2.019
		C247.203,129.594,249.945,131.485,252.256,133.922z M246.581,172.237c1.422-2.31,2.457-4.926,3.104-7.846
		c0.647-2.919,0.971-6.183,0.971-9.788c0-3.707-0.362-7.109-1.085-10.207c-0.724-3.098-1.784-5.738-3.18-7.922
		c-1.396-2.158-3.148-3.84-5.256-5.046c-2.108-1.206-4.52-1.809-7.236-1.809c-3.047,0-5.637,0.699-7.77,2.095
		c-2.133,1.396-3.872,3.263-5.218,5.599c-1.27,2.234-2.215,4.85-2.837,7.846c-0.623,2.996-0.933,6.145-0.933,9.445
		c0,3.656,0.33,6.957,0.99,9.902c0.66,2.946,1.701,5.561,3.123,7.846c1.371,2.234,3.098,3.98,5.18,5.237
		c2.082,1.257,4.57,1.885,7.465,1.885c2.717,0,5.167-0.634,7.351-1.904C243.433,176.299,245.21,174.522,246.581,172.237z"/>
	<path d="M376.734,130.228c-0.635,0.025-1.371,0.171-2.209,0.438s-1.613,0.616-2.324,1.047c-0.889,0.559-1.605,1.2-2.15,1.923
		c-0.547,0.724-1.023,1.733-1.43,3.028c-1.803,5.865-3.896,12.715-6.283,20.547c-2.387,7.833-4.965,16.181-7.732,25.042H351.1
		l-13.645-41.625l-14.182,41.625h-3.363c-2.514-8.887-5.117-18.11-7.809-27.669s-4.494-15.964-5.408-19.214
		c-0.229-0.787-0.564-1.485-1.008-2.095c-0.445-0.609-1.049-1.167-1.811-1.676c-0.635-0.432-1.377-0.755-2.228-0.971
		c-0.851-0.215-1.618-0.349-2.304-0.4v-2.704h22.029v2.704c-1.93,0.102-3.574,0.292-4.932,0.571
		c-1.357,0.28-2.037,0.749-2.037,1.409c0,0.254,0.039,0.59,0.115,1.009s0.139,0.756,0.189,1.009
		c0.584,2.234,1.617,5.929,3.102,11.083c1.482,5.154,3.684,12.872,6.6,23.154l13.488-40.178h3.729l13.609,41.034
		c1.834-6.307,3.414-11.82,4.738-16.538c1.324-4.718,2.42-8.755,3.287-12.113c0.611-2.365,0.992-3.986,1.145-4.862
		s0.229-1.619,0.229-2.228c0-0.863-0.59-1.586-1.771-2.171c-1.18-0.584-3.09-0.977-5.73-1.181v-2.704h19.602V130.228z"/>
	<path d="M471.352,130.228c-0.711,0.025-1.803,0.229-3.275,0.609s-2.525,0.775-3.16,1.181c-0.914,0.635-1.531,1.854-1.848,3.656
		c-0.318,1.803-0.477,4.088-0.477,6.855v39.571h-3.313l-32.754-44.218v27.879c0,3.123,0.195,5.522,0.59,7.198
		c0.393,1.676,0.996,2.87,1.809,3.58c0.584,0.559,1.791,1.08,3.619,1.562c1.828,0.482,3.033,0.737,3.617,0.762v2.704h-22.166v-2.704
		c0.686-0.051,1.842-0.298,3.467-0.743c1.625-0.444,2.641-0.844,3.047-1.2c0.889-0.71,1.498-1.796,1.828-3.256
		c0.33-1.46,0.494-3.955,0.494-7.484v-26.622c0-1.167-0.203-2.336-0.609-3.504c-0.406-1.167-0.951-2.069-1.637-2.704
		c-0.914-0.838-2.152-1.555-3.715-2.152c-1.561-0.596-2.824-0.92-3.789-0.971v-2.704h15.441l30.377,41.201v-25.703
		c0-3.148-0.203-5.566-0.609-7.254s-0.99-2.812-1.752-3.37c-0.711-0.482-1.873-0.952-3.486-1.409
		c-1.611-0.457-2.836-0.71-3.674-0.762v-2.704h21.975V130.228z"/>
	<path d="M71.665,234.645h-2.856c-0.533-2.005-1.644-4.151-3.333-6.437c-1.689-2.285-3.308-3.542-4.856-3.771
		c-0.787-0.101-1.72-0.177-2.799-0.229c-1.08-0.051-2.304-0.076-3.675-0.076h-9.064v21.709h6.224c1.883,0,3.346-0.196,4.39-0.59
		c1.044-0.394,1.935-0.996,2.673-1.809c0.509-0.558,0.973-1.428,1.393-2.609c0.42-1.181,0.694-2.443,0.821-3.79h2.856v21.252h-2.856
		c-0.076-1.117-0.337-2.386-0.783-3.809c-0.446-1.422-0.923-2.45-1.432-3.085c-0.764-0.939-1.725-1.581-2.883-1.923
		c-1.158-0.343-2.552-0.514-4.18-0.514h-6.224v18.594c0,0.836,0.165,1.584,0.495,2.244c0.33,0.659,0.914,1.191,1.752,1.597
		c0.381,0.177,1.206,0.393,2.476,0.646c1.27,0.254,2.234,0.395,2.895,0.419v2.704H29.275v-2.704
		c0.762-0.051,1.777-0.134,3.047-0.247c1.27-0.115,2.095-0.261,2.476-0.438c0.762-0.329,1.314-0.819,1.657-1.466
		c0.343-0.648,0.514-1.429,0.514-2.343v-39c0-0.838-0.14-1.581-0.419-2.228c-0.28-0.647-0.863-1.174-1.752-1.581
		c-0.686-0.33-1.606-0.622-2.761-0.876c-1.156-0.253-2.076-0.406-2.761-0.457v-2.704h42.39V234.645z"/>
	<path d="M120.11,227.522c2.386,2.489,4.252,5.491,5.599,9.007c1.346,3.517,2.019,7.408,2.019,11.673
		c0,4.291-0.686,8.188-2.057,11.692s-3.275,6.487-5.713,8.95c-2.361,2.438-5.104,4.316-8.227,5.637s-6.45,1.98-9.979,1.98
		c-3.758,0-7.23-0.705-10.417-2.113c-3.187-1.41-5.922-3.371-8.208-5.885c-2.285-2.463-4.082-5.452-5.389-8.969
		c-1.308-3.518-1.961-7.281-1.961-11.293c0-4.393,0.686-8.309,2.057-11.75c1.371-3.44,3.262-6.417,5.675-8.931
		c2.386-2.488,5.161-4.393,8.322-5.713c3.161-1.32,6.468-1.98,9.921-1.98c3.58,0,6.957,0.673,10.131,2.019
		C115.057,223.194,117.799,225.085,120.11,227.522z M114.435,265.837c1.422-2.31,2.457-4.926,3.104-7.846
		c0.647-2.919,0.971-6.183,0.971-9.788c0-3.707-0.362-7.109-1.085-10.207c-0.724-3.098-1.784-5.738-3.18-7.922
		c-1.396-2.158-3.148-3.84-5.256-5.046c-2.108-1.206-4.52-1.809-7.236-1.809c-3.047,0-5.637,0.699-7.77,2.095
		c-2.133,1.396-3.872,3.263-5.218,5.599c-1.27,2.234-2.215,4.85-2.837,7.846c-0.623,2.996-0.933,6.145-0.933,9.445
		c0,3.656,0.33,6.957,0.99,9.902c0.66,2.945,1.701,5.561,3.123,7.846c1.371,2.234,3.098,3.98,5.18,5.236
		c2.082,1.258,4.57,1.886,7.465,1.886c2.717,0,5.167-0.634,7.351-1.904C111.287,269.899,113.064,268.122,114.435,265.837z"/>
	<path d="M186.265,275.168h-25.289v-2.704c2.081-0.051,3.763-0.247,5.044-0.591c1.282-0.342,1.923-0.869,1.923-1.58
		c0-0.381-0.292-1.168-0.876-2.361c-0.584-1.193-1.333-2.527-2.247-4.001c-1.015-1.626-2.221-3.539-3.617-5.737
		s-2.779-4.301-4.149-6.309c-2.235,2.947-4.774,6.498-7.619,10.652c-2.845,4.156-4.267,6.601-4.267,7.337
		c0,0.838,0.387,1.454,1.162,1.847c0.774,0.395,2.482,0.643,5.124,0.743v2.704h-20.186v-2.704c0.66-0.051,1.504-0.146,2.533-0.286
		c1.028-0.139,1.872-0.374,2.533-0.704c1.32-0.71,2.38-1.479,3.18-2.304c0.8-0.825,1.605-1.797,2.418-2.914
		c1.624-2.236,3.704-5.023,6.241-8.363s4.783-6.382,6.737-9.125c-1.474-2.157-3.354-4.892-5.641-8.205
		c-2.287-3.312-4.727-6.859-7.318-10.641c-1.09-1.6-1.945-2.729-2.566-3.39c-0.622-0.66-1.451-1.231-2.49-1.714
		c-0.608-0.279-1.451-0.501-2.528-0.667c-1.077-0.165-1.932-0.272-2.565-0.324v-2.704h25.022v2.704
		c-1.469,0.051-2.996,0.235-4.581,0.552c-1.584,0.318-2.377,0.806-2.377,1.466c0,0.482,0.317,1.327,0.952,2.533
		c0.635,1.206,1.384,2.495,2.248,3.866c0.889,1.423,1.879,2.998,2.972,4.725s2.426,3.721,4.001,5.981
		c2.866-3.886,5.339-7.391,7.419-10.515c2.08-3.125,3.12-5.156,3.12-6.096c0-0.813-0.477-1.409-1.43-1.79
		c-0.954-0.381-2.561-0.622-4.822-0.724v-2.704h20.147v2.704c-0.635,0.025-1.466,0.121-2.495,0.286
		c-1.028,0.166-1.885,0.4-2.571,0.705c-1.32,0.635-2.304,1.32-2.952,2.057c-0.647,0.737-1.517,1.804-2.608,3.202
		c-2.03,2.62-3.902,5.08-5.615,7.381s-3.775,5.105-6.186,8.41c2.031,2.891,4.295,6.175,6.795,9.853
		c2.5,3.678,4.892,7.189,7.176,10.537c0.787,1.141,1.688,2.227,2.704,3.254c1.015,1.029,1.841,1.733,2.476,2.114
		c0.609,0.356,1.428,0.577,2.457,0.667c1.028,0.089,1.898,0.146,2.609,0.171V275.168z"/>
	<path d="M247.292,223.828c-0.711,0.025-1.594,0.121-2.647,0.286c-1.054,0.166-1.949,0.375-2.685,0.628
		c-0.863,0.305-1.447,0.813-1.752,1.523c-0.305,0.711-0.457,1.485-0.457,2.323v32.03c0,1.676-0.337,3.453-1.009,5.332
		c-0.673,1.879-1.657,3.555-2.952,5.027c-1.499,1.727-3.282,3.072-5.351,4.037c-2.07,0.965-4.437,1.447-7.103,1.447
		c-4.139,0-7.497-1.162-10.074-3.484c-2.577-2.324-3.866-5.453-3.866-9.389c0-1.727,0.444-3.256,1.333-4.59
		c0.889-1.332,2.184-1.999,3.885-1.999c1.523,0,2.748,0.425,3.675,1.276c0.927,0.851,1.39,1.975,1.39,3.37
		c0,0.813-0.166,1.625-0.495,2.438c-0.33,0.813-0.699,1.536-1.104,2.171c-0.381,0.584-0.813,1.27-1.295,2.057
		c-0.482,0.787-0.825,1.498-1.028,2.133c0.533,0.838,1.365,1.574,2.495,2.209c1.129,0.635,2.647,0.952,4.551,0.952
		c1.853,0,3.371-0.425,4.551-1.276c1.181-0.85,2.063-1.986,2.647-3.408c0.558-1.32,0.958-2.945,1.2-4.875
		c0.241-1.93,0.362-4.088,0.362-6.475V228.97c0-0.889-0.146-1.631-0.438-2.228c-0.292-0.596-0.895-1.124-1.809-1.581
		c-0.787-0.406-1.771-0.717-2.952-0.933c-1.181-0.215-2.152-0.349-2.914-0.4v-2.704h23.842V223.828z"/>
	<path d="M307.734,223.828c-0.711,0.025-1.752,0.178-3.123,0.457c-1.371,0.28-2.488,0.699-3.352,1.257
		c-0.863,0.584-1.46,1.79-1.789,3.618c-0.33,1.828-0.496,4.063-0.496,6.703v23.499c0,2.996-0.622,5.599-1.865,7.808
		c-1.244,2.209-2.883,4.024-4.914,5.446c-2.006,1.371-4.119,2.355-6.341,2.952c-2.222,0.596-4.349,0.895-6.38,0.895
		c-3.25,0-6.145-0.426-8.684-1.275c-2.539-0.852-4.672-2-6.398-3.447c-1.701-1.447-2.983-3.104-3.846-4.971
		c-0.863-1.865-1.295-3.814-1.295-5.846V228.97c0-0.889-0.146-1.631-0.438-2.228c-0.292-0.596-0.882-1.148-1.771-1.657
		c-0.635-0.355-1.447-0.641-2.438-0.857c-0.99-0.215-1.804-0.349-2.438-0.4v-2.704h22.508v2.704
		c-0.711,0.025-1.605,0.14-2.685,0.343s-1.872,0.394-2.38,0.571c-0.863,0.305-1.441,0.812-1.733,1.522
		c-0.292,0.711-0.438,1.484-0.438,2.322v29.835c0,1.446,0.158,2.962,0.477,4.548c0.317,1.586,0.945,3.063,1.885,4.434
		c0.99,1.396,2.336,2.537,4.037,3.425s4.037,1.332,7.008,1.332c2.793,0,5.136-0.444,7.027-1.332
		c1.891-0.888,3.383-2.055,4.475-3.501c1.041-1.37,1.777-2.803,2.209-4.301c0.432-1.496,0.648-3.006,0.648-4.528v-22.149
		c0-2.816-0.204-5.118-0.609-6.907c-0.406-1.789-1.004-2.962-1.791-3.521c-0.889-0.634-2.101-1.129-3.637-1.484
		c-1.537-0.355-2.711-0.558-3.523-0.609v-2.704h22.09V223.828z"/>
	<path d="M377.127,275.168h-23.879v-2.704c0.863-0.024,1.973-0.114,3.332-0.267c1.357-0.152,2.291-0.367,2.799-0.647
		c0.787-0.481,1.365-1.034,1.732-1.657c0.369-0.621,0.553-1.402,0.553-2.342v-39.305h-0.57l-18.434,46.046h-1.904l-17.559-46.998
		h-0.494v32.259c0,3.123,0.195,5.498,0.59,7.122c0.393,1.625,0.996,2.794,1.809,3.504c0.559,0.533,1.715,1.042,3.467,1.523
		c1.752,0.482,2.895,0.737,3.428,0.762v2.704h-21.824v-2.704c1.143-0.101,2.342-0.292,3.6-0.571
		c1.256-0.279,2.229-0.698,2.914-1.257c0.889-0.71,1.498-1.803,1.828-3.275c0.33-1.472,0.494-3.936,0.494-7.389v-27.65
		c0-1.6-0.189-2.907-0.57-3.923c-0.381-1.015-0.928-1.841-1.639-2.476c-0.787-0.686-1.752-1.193-2.895-1.523
		c-1.143-0.33-2.271-0.52-3.389-0.571v-2.704h18.426l15.482,40.565l13.215-33.934c0.482-1.245,0.895-2.547,1.236-3.906
		c0.344-1.359,0.527-2.268,0.553-2.725h17.623v2.704c-0.711,0.025-1.619,0.14-2.723,0.343c-1.105,0.204-1.91,0.394-2.418,0.571
		c-0.863,0.305-1.447,0.813-1.752,1.523c-0.305,0.711-0.457,1.485-0.457,2.323v38.962c0,0.889,0.152,1.638,0.457,2.247
		s0.889,1.143,1.752,1.6c0.457,0.254,1.27,0.489,2.438,0.704c1.168,0.217,2.094,0.338,2.779,0.362V275.168z"/>
	<path d="M425.764,234.454c0,2.818-0.553,5.313-1.656,7.484c-1.105,2.171-2.635,3.967-4.59,5.389
		c-1.93,1.422-4.051,2.463-6.361,3.123c-2.311,0.661-4.76,0.99-7.35,0.99h-6.057v16.377c0,0.89,0.146,1.67,0.439,2.343
		c0.291,0.672,0.895,1.187,1.809,1.542c0.457,0.178,1.262,0.343,2.418,0.495c1.154,0.152,2.215,0.242,3.18,0.267v2.704h-23.193
		v-2.704c0.609-0.051,1.49-0.14,2.646-0.267c1.154-0.127,1.961-0.291,2.418-0.495c0.762-0.329,1.314-0.813,1.658-1.447
		c0.342-0.634,0.514-1.447,0.514-2.438v-39c0-0.889-0.127-1.688-0.381-2.399c-0.254-0.71-0.852-1.244-1.791-1.6
		c-0.965-0.33-1.922-0.565-2.875-0.705c-0.951-0.139-1.771-0.234-2.457-0.286v-2.704h24.68c5.027,0,9.109,1.213,12.246,3.637
		C424.195,227.186,425.764,230.417,425.764,234.454z M414.186,243.671c0.863-1.219,1.434-2.481,1.713-3.79
		c0.279-1.308,0.42-2.481,0.42-3.523c0-1.447-0.172-2.919-0.514-4.418c-0.344-1.498-0.934-2.805-1.771-3.923
		c-0.889-1.193-2.057-2.12-3.504-2.78c-1.447-0.66-3.25-0.99-5.408-0.99h-5.371v23.88h3.885c2.742,0,4.971-0.425,6.686-1.276
		C412.033,246,413.322,244.941,414.186,243.671z"/>
	<path d="M465.602,250.374c1.143,1.271,1.986,2.66,2.531,4.171c0.547,1.51,0.82,3.27,0.82,5.274c0,4.774-1.766,8.709-5.295,11.807
		c-3.529,3.099-7.908,4.646-13.139,4.646c-2.412,0-4.824-0.375-7.236-1.124c-2.412-0.748-4.494-1.656-6.246-2.723l-1.639,2.78
		h-3.047l-0.533-18.51h3.086c0.635,2.285,1.377,4.349,2.227,6.188c0.852,1.842,1.975,3.562,3.371,5.161
		c1.32,1.499,2.863,2.691,4.627,3.58c1.766,0.89,3.816,1.333,6.152,1.333c1.752,0,3.281-0.229,4.588-0.686
		c1.309-0.458,2.369-1.107,3.182-1.945c0.813-0.84,1.414-1.824,1.809-2.957c0.393-1.131,0.59-2.434,0.59-3.908
		c0-2.161-0.609-4.176-1.828-6.045s-3.033-3.286-5.445-4.252c-1.65-0.657-3.543-1.385-5.676-2.181
		c-2.133-0.796-3.973-1.549-5.521-2.257c-3.047-1.371-5.416-3.167-7.104-5.387c-1.689-2.221-2.533-5.122-2.533-8.701
		c0-2.056,0.42-3.972,1.258-5.749s2.031-3.363,3.58-4.759c1.473-1.32,3.211-2.354,5.217-3.103s4.102-1.124,6.285-1.124
		c2.488,0,4.715,0.381,6.684,1.143c1.967,0.762,3.764,1.651,5.389,2.666l1.563-2.59h3.047l0.305,17.938h-3.086
		c-0.559-2.057-1.188-4.024-1.885-5.903c-0.699-1.879-1.605-3.58-2.723-5.104c-1.092-1.472-2.426-2.647-4-3.523
		s-3.504-1.314-5.789-1.314c-2.412,0-4.469,0.775-6.17,2.323c-1.701,1.549-2.551,3.441-2.551,5.675c0,2.336,0.545,4.272,1.637,5.808
		c1.092,1.537,2.68,2.799,4.762,3.79c1.854,0.889,3.674,1.657,5.465,2.304c1.789,0.647,3.523,1.339,5.199,2.076
		c1.523,0.661,2.988,1.409,4.398,2.247C463.334,248.279,464.561,249.257,465.602,250.374z"/>
	<path d="M73.378,321.122c2.386,2.488,4.252,5.491,5.599,9.007c1.346,3.518,2.019,7.408,2.019,11.674
		c0,4.291-0.686,8.188-2.057,11.692s-3.275,6.487-5.713,8.95c-2.361,2.438-5.104,4.316-8.227,5.637s-6.45,1.98-9.979,1.98
		c-3.758,0-7.23-0.705-10.417-2.113c-3.187-1.41-5.922-3.371-8.208-5.885c-2.285-2.463-4.082-5.452-5.389-8.969
		c-1.308-3.517-1.961-7.281-1.961-11.293c0-4.393,0.686-8.309,2.057-11.75c1.371-3.439,3.262-6.417,5.675-8.931
		c2.386-2.488,5.161-4.393,8.322-5.713c3.161-1.319,6.468-1.98,9.921-1.98c3.58,0,6.957,0.673,10.131,2.019
		C68.326,316.793,71.068,318.685,73.378,321.122z M67.704,359.437c1.422-2.311,2.457-4.926,3.104-7.846s0.971-6.183,0.971-9.788
		c0-3.707-0.362-7.109-1.085-10.207s-1.784-5.738-3.18-7.922c-1.396-2.158-3.148-3.84-5.256-5.047
		c-2.108-1.205-4.52-1.809-7.236-1.809c-3.047,0-5.637,0.698-7.77,2.095s-3.872,3.263-5.218,5.599
		c-1.27,2.234-2.215,4.85-2.837,7.846c-0.623,2.996-0.933,6.145-0.933,9.445c0,3.656,0.33,6.957,0.99,9.902
		c0.66,2.945,1.701,5.561,3.123,7.846c1.371,2.234,3.098,3.98,5.18,5.236c2.082,1.258,4.57,1.886,7.465,1.886
		c2.717,0,5.167-0.635,7.351-1.904C64.555,363.499,66.333,361.722,67.704,359.437z"/>
	<path d="M137.629,317.428c-0.661,0.025-1.46,0.172-2.399,0.438c-0.939,0.268-1.714,0.591-2.323,0.972
		c-0.863,0.533-1.556,1.219-2.076,2.057c-0.521,0.838-1.035,1.828-1.542,2.971c-1.701,4.037-4.253,10.328-7.655,18.872
		c-3.403,8.544-6.907,17.449-10.512,26.717h-3.161c-3.656-9.826-7.186-19.297-10.588-28.412c-3.403-9.115-5.713-15.272-6.932-18.472
		c-0.305-0.787-0.711-1.479-1.219-2.075c-0.508-0.597-1.181-1.162-2.019-1.695c-0.686-0.432-1.447-0.755-2.285-0.971
		s-1.612-0.35-2.323-0.4v-2.704h22.364v2.704c-1.904,0.102-3.511,0.292-4.819,0.571c-1.308,0.279-1.961,0.774-1.961,1.485
		c0,0.279,0.051,0.609,0.152,0.99s0.19,0.686,0.267,0.914c0.94,2.488,2.463,6.547,4.57,12.175c2.107,5.629,5.104,13.64,8.988,24.032
		c1.93-4.7,4.151-10.253,6.665-16.656c2.514-6.402,4.203-10.8,5.066-13.188c0.838-2.312,1.326-3.912,1.466-4.801
		c0.139-0.889,0.209-1.612,0.209-2.171c0-0.584-0.261-1.072-0.781-1.467c-0.521-0.393-1.213-0.729-2.076-1.009
		c-0.838-0.254-1.689-0.444-2.552-0.571c-0.864-0.127-1.74-0.229-2.628-0.305v-2.704h20.102V317.428z"/>
	<path d="M185.199,352.848l-1.028,15.92h-44.865v-2.704c0.762-0.051,1.777-0.158,3.047-0.323c1.27-0.165,2.095-0.337,2.476-0.515
		c0.813-0.381,1.377-0.876,1.695-1.485c0.317-0.609,0.476-1.384,0.476-2.323v-38.848c0-0.838-0.14-1.581-0.419-2.228
		c-0.28-0.648-0.863-1.175-1.752-1.581c-0.686-0.33-1.606-0.622-2.761-0.876c-1.156-0.254-2.076-0.406-2.761-0.457v-2.704h41.818
		v13.025h-2.856c-0.508-1.93-1.606-3.979-3.294-6.151c-1.689-2.17-3.294-3.357-4.818-3.561c-0.787-0.102-1.727-0.178-2.818-0.229
		c-1.092-0.051-2.336-0.076-3.732-0.076h-8.493v21.48h6.094c1.955,0,3.383-0.184,4.285-0.553c0.901-0.367,1.695-0.983,2.38-1.847
		c0.558-0.736,1.034-1.72,1.428-2.952c0.394-1.23,0.653-2.393,0.781-3.484h2.856v21.176h-2.856
		c-0.102-1.219-0.375-2.507-0.819-3.865c-0.444-1.358-0.908-2.343-1.39-2.952c-0.787-0.99-1.682-1.638-2.685-1.942
		c-1.003-0.305-2.33-0.457-3.98-0.457h-6.094v16.198c0,1.622,0.114,2.902,0.343,3.84c0.229,0.938,0.672,1.648,1.333,2.13
		c0.66,0.481,1.562,0.793,2.704,0.932c1.143,0.14,2.767,0.209,4.875,0.209c0.838,0,1.942,0,3.313,0s2.526-0.051,3.466-0.152
		c0.965-0.102,1.961-0.285,2.99-0.553c1.028-0.266,1.758-0.628,2.19-1.085c1.167-1.219,2.393-3.065,3.675-5.542
		c1.282-2.475,2.101-4.297,2.457-5.465H185.199z"/>
	<path d="M243.356,368.768h-14.553c-3.222-5.053-6.132-9.42-8.732-13.102c-2.6-3.682-5.422-7.478-8.465-11.388h-5.536v17.139
		c0,0.889,0.139,1.67,0.419,2.343c0.279,0.673,0.876,1.187,1.79,1.542c0.457,0.178,1.257,0.343,2.399,0.495s2.107,0.241,2.895,0.267
		v2.704h-22.852v-2.704c0.609-0.051,1.491-0.14,2.647-0.267c1.155-0.127,1.961-0.292,2.418-0.495
		c0.762-0.33,1.314-0.813,1.657-1.447s0.514-1.447,0.514-2.438v-39.076c0-0.889-0.127-1.676-0.381-2.361
		c-0.254-0.686-0.851-1.206-1.79-1.562c-0.635-0.229-1.46-0.438-2.476-0.629c-1.016-0.189-1.879-0.311-2.59-0.361v-2.704h24.946
		c2.285,0,4.431,0.235,6.437,0.704c2.005,0.471,3.821,1.226,5.446,2.267c1.574,1.016,2.831,2.343,3.771,3.979
		c0.939,1.639,1.409,3.612,1.409,5.923c0,2.082-0.318,3.923-0.952,5.522c-0.635,1.6-1.575,2.983-2.818,4.151
		c-1.143,1.092-2.514,2.038-4.113,2.837c-1.6,0.801-3.365,1.479-5.294,2.038c2.666,3.529,4.881,6.5,6.646,8.912
		c1.765,2.412,3.929,5.345,6.494,8.798c1.117,1.523,2.126,2.646,3.028,3.371c0.901,0.723,1.796,1.313,2.685,1.771
		c0.66,0.33,1.485,0.584,2.476,0.762s1.815,0.279,2.476,0.305V368.768z M223.323,328.493c0-3.27-0.939-5.862-2.818-7.775
		c-1.879-1.914-4.532-2.871-7.96-2.871h-6.475v23.156h4.989c3.504,0,6.423-1.121,8.76-3.364
		C222.155,335.395,223.323,332.347,223.323,328.493z"/>
	<path d="M356.904,329.387h-2.629c-0.229-0.914-0.643-2-1.24-3.256c-0.598-1.258-1.266-2.444-2.004-3.562
		c-0.764-1.168-1.598-2.19-2.5-3.065c-0.904-0.877-1.775-1.378-2.615-1.505c-0.789-0.102-1.781-0.178-2.977-0.229
		c-1.197-0.051-2.305-0.076-3.322-0.076h-2.213v43.228c0,0.838,0.178,1.606,0.533,2.305s0.977,1.237,1.865,1.618
		c0.457,0.178,1.416,0.419,2.877,0.724c1.459,0.305,2.596,0.47,3.408,0.495v2.704H320.57v-2.704
		c0.711-0.051,1.795-0.152,3.256-0.305c1.459-0.152,2.469-0.343,3.027-0.571c0.838-0.33,1.453-0.806,1.848-1.428
		c0.393-0.622,0.59-1.454,0.59-2.495v-43.57h-2.209c-0.787,0-1.764,0.019-2.932,0.058c-1.168,0.037-2.285,0.12-3.352,0.247
		c-0.838,0.102-1.709,0.604-2.609,1.505c-0.902,0.901-1.732,1.923-2.494,3.065s-1.436,2.355-2.02,3.638s-0.99,2.342-1.219,3.18
		h-2.666v-14.663h47.113V329.387z"/>
	<path d="M417.156,368.768h-22.434v-2.704c0.609-0.051,1.492-0.127,2.646-0.229c1.156-0.102,1.949-0.254,2.381-0.457
		c0.762-0.305,1.32-0.768,1.676-1.39s0.533-1.429,0.533-2.419v-19.233h-25.402v18.814c0,0.889,0.145,1.638,0.438,2.247
		c0.291,0.609,0.869,1.143,1.732,1.6c0.432,0.229,1.199,0.457,2.305,0.686c1.104,0.229,1.975,0.355,2.609,0.381v2.704h-22.434
		v-2.704c0.609-0.051,1.492-0.127,2.646-0.229c1.156-0.102,1.949-0.254,2.381-0.457c0.762-0.305,1.32-0.768,1.676-1.39
		s0.533-1.429,0.533-2.419v-39c0-0.813-0.164-1.555-0.494-2.228s-0.902-1.2-1.715-1.581c-0.686-0.33-1.518-0.622-2.494-0.876
		c-0.979-0.254-1.822-0.406-2.533-0.457v-2.704h22.434v2.704c-0.711,0.025-1.582,0.14-2.609,0.343
		c-1.029,0.203-1.797,0.394-2.305,0.571c-0.863,0.305-1.441,0.813-1.732,1.523c-0.293,0.711-0.438,1.485-0.438,2.323v16.758h25.402
		v-16.377c0-0.813-0.164-1.555-0.494-2.228s-0.902-1.2-1.715-1.581c-0.686-0.33-1.518-0.622-2.494-0.876
		c-0.979-0.254-1.822-0.406-2.533-0.457v-2.704h22.434v2.704c-0.711,0.025-1.582,0.14-2.609,0.343
		c-1.029,0.203-1.797,0.394-2.305,0.571c-0.863,0.305-1.441,0.813-1.732,1.523c-0.293,0.711-0.438,1.485-0.438,2.323v38.962
		c0,0.889,0.145,1.638,0.438,2.247c0.291,0.609,0.869,1.143,1.732,1.6c0.432,0.229,1.199,0.457,2.305,0.686
		c1.104,0.229,1.975,0.355,2.609,0.381V368.768z"/>
	<path d="M470.209,352.848l-1.027,15.92h-44.865v-2.704c0.762-0.051,1.777-0.158,3.047-0.323s2.094-0.337,2.475-0.515
		c0.813-0.381,1.377-0.876,1.695-1.485c0.316-0.609,0.477-1.384,0.477-2.323v-38.848c0-0.838-0.141-1.581-0.42-2.228
		c-0.279-0.648-0.863-1.175-1.752-1.581c-0.686-0.33-1.605-0.622-2.76-0.876c-1.156-0.254-2.076-0.406-2.762-0.457v-2.704h41.818
		v13.025h-2.857c-0.508-1.93-1.605-3.979-3.293-6.151c-1.689-2.17-3.295-3.357-4.818-3.561c-0.787-0.102-1.727-0.178-2.818-0.229
		s-2.336-0.076-3.732-0.076h-8.494v21.48h6.094c1.955,0,3.383-0.184,4.285-0.553c0.9-0.367,1.695-0.983,2.381-1.847
		c0.559-0.736,1.033-1.72,1.428-2.952c0.393-1.23,0.654-2.393,0.781-3.484h2.855v21.176h-2.855
		c-0.102-1.219-0.375-2.507-0.818-3.865c-0.445-1.358-0.908-2.343-1.391-2.952c-0.787-0.99-1.684-1.638-2.686-1.942
		c-1.004-0.305-2.33-0.457-3.98-0.457h-6.094v16.198c0,1.622,0.115,2.902,0.344,3.84c0.229,0.938,0.672,1.648,1.332,2.13
		s1.563,0.793,2.705,0.932c1.143,0.14,2.768,0.209,4.875,0.209c0.838,0,1.941,0,3.313,0s2.527-0.051,3.467-0.152
		c0.965-0.102,1.961-0.285,2.99-0.553c1.027-0.266,1.758-0.628,2.189-1.085c1.168-1.219,2.393-3.065,3.676-5.542
		c1.281-2.475,2.1-4.297,2.455-5.465H470.209z"/>
	<path d="M73.112,446.296l-1.143,16.072H29.732v-2.704c0.609-0.051,1.491-0.14,2.647-0.267c1.155-0.127,1.961-0.292,2.418-0.495
		c0.762-0.33,1.314-0.813,1.657-1.447s0.514-1.447,0.514-2.438v-38.695c0-0.863-0.146-1.625-0.438-2.285
		c-0.292-0.66-0.87-1.193-1.733-1.6c-0.584-0.305-1.403-0.603-2.457-0.896c-1.054-0.291-1.923-0.463-2.609-0.514v-2.704h22.813
		v2.704c-0.711,0.025-1.632,0.152-2.761,0.381c-1.13,0.229-1.949,0.432-2.457,0.609c-0.863,0.305-1.454,0.825-1.771,1.562
		c-0.318,0.736-0.476,1.523-0.476,2.361v36.296c0,1.676,0.082,2.978,0.248,3.904c0.165,0.927,0.552,1.644,1.162,2.151
		c0.584,0.457,1.453,0.756,2.609,0.896c1.155,0.14,2.774,0.209,4.856,0.209c0.939,0,1.917-0.025,2.933-0.076
		c1.015-0.051,1.98-0.152,2.895-0.305c0.889-0.152,1.708-0.361,2.457-0.629c0.749-0.266,1.301-0.603,1.657-1.009
		c1.041-1.168,2.253-2.938,3.637-5.313c1.384-2.373,2.342-4.297,2.875-5.77H73.112z"/>
	<path d="M127.194,462.368h-22.464v-2.704c1.98-0.127,3.625-0.381,4.932-0.762c1.308-0.381,1.961-0.851,1.961-1.409
		c0-0.229-0.025-0.508-0.076-0.838c-0.051-0.33-0.126-0.622-0.228-0.876l-4.476-12.111H87.871c-0.711,1.777-1.29,3.326-1.735,4.646
		c-0.445,1.32-0.846,2.539-1.202,3.656c-0.331,1.092-0.56,1.98-0.687,2.666c-0.127,0.686-0.19,1.244-0.19,1.676
		c0,1.016,0.8,1.803,2.399,2.361s3.403,0.889,5.409,0.99v2.704H71.512v-2.704c0.661-0.051,1.485-0.196,2.476-0.438
		c0.99-0.24,1.803-0.564,2.438-0.971c1.015-0.686,1.803-1.402,2.361-2.152c0.558-0.748,1.104-1.783,1.638-3.104
		c2.717-6.779,5.713-14.396,8.988-22.852s6.195-15.983,8.76-22.585h3.047l18.015,46.617c0.381,0.99,0.813,1.79,1.295,2.399
		c0.482,0.609,1.155,1.206,2.019,1.79c0.584,0.355,1.346,0.654,2.285,0.896c0.939,0.241,1.727,0.374,2.361,0.399V462.368z
		 M105.451,440.278l-8.187-20.973l-8.069,20.973H105.451z"/>
	<path d="M180.895,462.368h-25.289v-2.704c2.081-0.051,3.763-0.247,5.044-0.591c1.282-0.342,1.923-0.869,1.923-1.58
		c0-0.381-0.292-1.168-0.876-2.361c-0.584-1.193-1.333-2.526-2.247-4.001c-1.015-1.626-2.221-3.539-3.617-5.737
		s-2.779-4.301-4.149-6.309c-2.235,2.947-4.774,6.499-7.619,10.653s-4.267,6.6-4.267,7.336c0,0.838,0.387,1.454,1.162,1.847
		c0.774,0.395,2.482,0.642,5.124,0.743v2.704h-20.186v-2.704c0.66-0.051,1.504-0.146,2.533-0.286
		c1.028-0.139,1.872-0.374,2.533-0.704c1.32-0.711,2.38-1.479,3.18-2.304s1.605-1.797,2.418-2.915
		c1.624-2.234,3.704-5.022,6.241-8.362s4.783-6.382,6.737-9.125c-1.474-2.157-3.354-4.893-5.641-8.205
		c-2.287-3.313-4.727-6.858-7.318-10.641c-1.09-1.6-1.945-2.729-2.566-3.39c-0.622-0.66-1.451-1.231-2.49-1.714
		c-0.608-0.279-1.451-0.501-2.528-0.666s-1.932-0.273-2.565-0.324v-2.704h25.022v2.704c-1.469,0.051-2.996,0.235-4.581,0.553
		c-1.584,0.317-2.377,0.806-2.377,1.466c0,0.482,0.317,1.327,0.952,2.532c0.635,1.207,1.384,2.496,2.248,3.867
		c0.889,1.423,1.879,2.998,2.972,4.725s2.426,3.721,4.001,5.981c2.866-3.886,5.339-7.391,7.419-10.515s3.12-5.156,3.12-6.096
		c0-0.813-0.477-1.409-1.43-1.79c-0.954-0.381-2.561-0.622-4.822-0.724v-2.704h20.147v2.704c-0.635,0.025-1.466,0.121-2.495,0.285
		c-1.028,0.166-1.885,0.4-2.571,0.705c-1.32,0.635-2.304,1.32-2.952,2.057s-1.517,1.804-2.608,3.202
		c-2.03,2.62-3.902,5.08-5.615,7.381c-1.713,2.302-3.775,5.104-6.186,8.41c2.031,2.891,4.295,6.175,6.795,9.853
		c2.5,3.678,4.892,7.189,7.176,10.537c0.787,1.142,1.688,2.227,2.704,3.254c1.015,1.029,1.841,1.733,2.476,2.114
		c0.609,0.355,1.428,0.578,2.457,0.667s1.898,0.146,2.609,0.171V462.368z"/>
	<path d="M230.864,411.028c-0.432,0.025-1.118,0.197-2.057,0.514c-0.939,0.318-1.613,0.629-2.019,0.934
		c-0.99,0.609-1.663,1.079-2.019,1.409c-0.356,0.33-1.042,1.193-2.057,2.59c-1.98,2.793-3.809,5.624-5.484,8.493
		s-3.771,6.513-6.284,10.931c-0.939,1.625-1.562,2.933-1.866,3.923s-0.457,2.425-0.457,4.304v10.321
		c0,0.914,0.184,1.708,0.552,2.381c0.368,0.673,0.996,1.212,1.885,1.618c0.533,0.203,1.485,0.451,2.856,0.743
		s2.476,0.45,3.313,0.476v2.704H191.94v-2.704c0.71-0.051,1.777-0.146,3.199-0.286c1.422-0.139,2.412-0.323,2.971-0.552
		c0.914-0.381,1.542-0.901,1.885-1.562s0.514-1.473,0.514-2.438v-13.14c0-0.406-0.248-1.148-0.743-2.228s-1.085-2.279-1.771-3.6
		c-1.523-2.945-3.212-6.132-5.065-9.56c-1.854-3.428-3.466-6.36-4.837-8.798c-0.838-1.447-1.581-2.539-2.228-3.275
		s-1.39-1.384-2.228-1.942c-0.609-0.381-1.339-0.673-2.19-0.876s-1.619-0.33-2.304-0.381v-2.704h23.063v2.704
		c-2.59,0.051-4.418,0.228-5.485,0.531s-1.6,0.734-1.6,1.29c0,0.152,0.076,0.418,0.229,0.798s0.368,0.861,0.646,1.444
		c0.329,0.66,0.722,1.416,1.178,2.266c0.456,0.851,0.887,1.67,1.292,2.456c1.19,2.259,2.407,4.512,3.648,6.759
		c1.242,2.246,2.863,5.172,4.864,8.776c3.984-6.421,7.021-11.427,9.115-15.019c2.093-3.591,3.14-5.741,3.14-6.45
		c0-0.584-0.216-1.053-0.647-1.407c-0.432-0.354-1.003-0.633-1.714-0.836c-0.737-0.202-1.537-0.336-2.399-0.399
		c-0.863-0.063-1.663-0.133-2.399-0.209v-2.704h18.79V411.028z"/>
	<path d="M354.467,435.67c0,4.596-0.863,8.582-2.59,11.959s-3.975,6.145-6.742,8.303c-2.793,2.158-5.928,3.771-9.406,4.837
		s-7.072,1.6-10.779,1.6h-22.395v-2.704c0.736,0,1.695-0.069,2.875-0.21c1.182-0.139,1.963-0.298,2.344-0.476
		c0.762-0.33,1.313-0.819,1.656-1.466c0.342-0.648,0.514-1.429,0.514-2.343v-39c0-0.863-0.146-1.638-0.438-2.323
		c-0.293-0.686-0.869-1.231-1.732-1.638c-0.787-0.381-1.639-0.66-2.553-0.838s-1.701-0.292-2.361-0.343v-2.704h23.613
		c3.25,0,6.449,0.502,9.598,1.505s5.891,2.354,8.227,4.056c3.174,2.26,5.662,5.218,7.465,8.874S354.467,430.719,354.467,435.67z
		 M345.135,435.651c0-3.628-0.482-6.908-1.447-9.838c-0.965-2.931-2.373-5.486-4.227-7.668c-1.752-2.081-3.904-3.717-6.457-4.909
		c-2.551-1.192-5.389-1.789-8.512-1.789c-1.041,0-2.215,0.019-3.523,0.058c-1.307,0.037-2.277,0.069-2.912,0.095v41.519
		c0,2.309,0.672,3.907,2.018,4.795s3.416,1.332,6.209,1.332c3.225,0,6.043-0.57,8.455-1.712s4.367-2.728,5.865-4.758
		c1.574-2.131,2.723-4.598,3.445-7.401C344.773,442.57,345.135,439.33,345.135,435.651z"/>
	<path d="M404.777,414.723c2.387,2.488,4.254,5.491,5.6,9.007c1.346,3.518,2.018,7.408,2.018,11.674
		c0,4.291-0.686,8.188-2.057,11.692s-3.275,6.487-5.713,8.95c-2.361,2.438-5.104,4.316-8.227,5.637s-6.449,1.98-9.979,1.98
		c-3.758,0-7.23-0.705-10.416-2.113c-3.188-1.41-5.922-3.371-8.207-5.885c-2.285-2.463-4.082-5.452-5.391-8.969
		c-1.307-3.517-1.961-7.281-1.961-11.293c0-4.393,0.686-8.309,2.057-11.75c1.371-3.439,3.264-6.417,5.676-8.931
		c2.387-2.488,5.16-4.393,8.32-5.713c3.162-1.32,6.469-1.98,9.922-1.98c3.58,0,6.957,0.673,10.131,2.019
		S402.467,412.285,404.777,414.723z M399.104,453.037c1.422-2.311,2.455-4.926,3.104-7.846c0.646-2.92,0.971-6.183,0.971-9.788
		c0-3.707-0.361-7.109-1.086-10.207c-0.723-3.098-1.783-5.738-3.18-7.922c-1.396-2.158-3.148-3.84-5.256-5.047
		c-2.107-1.205-4.52-1.809-7.236-1.809c-3.047,0-5.637,0.698-7.77,2.095s-3.871,3.263-5.217,5.599
		c-1.27,2.234-2.217,4.85-2.838,7.846c-0.623,2.996-0.934,6.145-0.934,9.445c0,3.656,0.33,6.957,0.99,9.902s1.701,5.561,3.123,7.846
		c1.371,2.234,3.098,3.98,5.18,5.236c2.082,1.258,4.57,1.886,7.465,1.886c2.717,0,5.168-0.635,7.352-1.904
		S397.732,455.322,399.104,453.037z"/>
	<path d="M471.467,440.812c-0.609,0.076-1.43,0.197-2.457,0.361c-1.029,0.166-1.859,0.4-2.494,0.705
		c-0.762,0.381-1.303,0.921-1.619,1.619c-0.318,0.698-0.477,1.517-0.477,2.456v4.189c0,3.047,0.02,5.104,0.057,6.17
		c0.039,1.066,0.084,1.942,0.135,2.628c-3.377,1.523-6.742,2.691-10.094,3.504s-6.639,1.219-9.863,1.219
		c-3.453,0-6.779-0.648-9.979-1.943c-3.199-1.296-5.992-3.138-8.379-5.526c-2.412-2.413-4.33-5.349-5.752-8.804
		s-2.133-7.317-2.133-11.586c0-4.116,0.68-7.934,2.037-11.452c1.359-3.52,3.283-6.574,5.771-9.167
		c2.412-2.54,5.287-4.515,8.625-5.926c3.34-1.41,6.914-2.115,10.723-2.115c3.047,0,5.699,0.368,7.959,1.104s4.254,1.625,5.98,2.666
		l1.561-2.59h3.047l0.344,18.891h-3.123c-0.535-2.082-1.195-4.132-1.982-6.151c-0.789-2.018-1.807-3.827-3.051-5.427
		c-1.246-1.6-2.766-2.876-4.557-3.827c-1.793-0.953-3.934-1.429-6.424-1.429c-2.721,0-5.148,0.553-7.283,1.658
		s-3.992,2.75-5.568,4.936c-1.551,2.109-2.744,4.74-3.584,7.891c-0.838,3.15-1.258,6.67-1.258,10.558c0,3.431,0.414,6.664,1.24,9.7
		s2.027,5.66,3.604,7.871c1.576,2.261,3.547,4.04,5.91,5.336c2.365,1.296,5.047,1.943,8.047,1.943c2.238,0,4.277-0.343,6.121-1.028
		s3.146-1.409,3.908-2.171c0.205-1.32,0.313-2.653,0.324-3.999c0.014-1.346,0.02-2.488,0.02-3.428v-2.971
		c0-1.066-0.146-2.012-0.438-2.838c-0.293-0.824-0.895-1.428-1.809-1.809c-0.838-0.381-1.975-0.666-3.41-0.857
		c-1.434-0.189-2.557-0.311-3.369-0.361v-2.78h23.689V440.812z"/>
</g>
</svg>
