<?xml version="1.0" encoding="utf-8"?>
<!-- Generator: Adobe Illustrator 16.0.0, SVG Export Plug-In . SVG Version: 6.00 Build 0)  -->
<!DOCTYPE svg PUBLIC "-//W3C//DTD SVG 1.1//EN" "http://www.w3.org/Graphics/SVG/1.1/DTD/svg11.dtd">
<svg version="1.1" id="Layer_1" xmlns="http://www.w3.org/2000/svg" xmlns:xlink="http://www.w3.org/1999/xlink" x="0px" y="0px"
	 width="500px" height="500px" viewBox="0 0 500 500" enable-background="new 0 0 500 500" xml:space="preserve">
<g>
	<path d="M45.524,48.901H29.549v-10.65h43.499v10.65H57.073V90.75H45.524V48.901z"/>
	<path d="M81.899,38.251h11.549v20.774h21.299V38.251h11.549V90.75h-11.549V69.675H93.448V90.75H81.899V38.251z"/>
	<path d="M138.898,38.251h39.598v10.275h-28.124v10.649h24.749V69.45h-24.749v11.025h28.499V90.75h-39.973V38.251z"/>
	<path d="M264.649,87.149c-4.425,2.85-9.749,4.5-15.599,4.5c-16.199,0-27.824-12.074-27.824-26.999V64.5
		c0-14.924,11.775-27.149,27.974-27.149s27.823,12.075,27.823,26.999v0.15c0,5.475-1.649,10.725-4.649,15.075l5.399,4.575
		l-7.35,8.174L264.649,87.149z M256.1,79.575L247.55,72.3l7.35-8.25l8.624,7.799c0.976-2.175,1.425-4.575,1.425-7.2V64.5
		c0-9-6.6-16.499-15.899-16.499c-9.3,0-15.75,7.35-15.75,16.349v0.15c0,9,6.6,16.5,15.899,16.5
		C251.75,81,254.075,80.475,256.1,79.575z"/>
	<path d="M286.476,68.25V38.251h11.55V67.95c0,8.55,4.275,12.975,11.324,12.975c7.051,0,11.324-4.275,11.324-12.6V38.251h11.551
		v29.624c0,15.899-8.926,23.699-23.025,23.699C295.101,91.575,286.476,83.7,286.476,68.25z"/>
	<path d="M344.525,38.251h11.549V90.75h-11.549V38.251z"/>
	<path d="M366.875,64.65V64.5c0-14.924,11.25-27.149,27.375-27.149c9.898,0,15.824,3.3,20.699,8.1l-7.35,8.475
		c-4.051-3.675-8.176-5.924-13.426-5.924c-8.85,0-15.223,7.35-15.223,16.349v0.15c0,9,6.225,16.5,15.223,16.5
		c6,0,9.676-2.4,13.801-6.15l7.35,7.425c-5.4,5.775-11.4,9.375-21.525,9.375C378.35,91.649,366.875,79.725,366.875,64.65z"/>
	<path d="M424.551,38.251H436.1v22.949l21.299-22.949h13.949l-21.373,22.274l22.35,30.224h-13.875L442.174,68.4l-6.074,6.3V90.75
		h-11.549V38.251z"/>
	<path d="M33.299,128.251h24.374c6,0,10.725,1.65,13.725,4.65c2.399,2.4,3.6,5.325,3.6,8.925v0.15c0,5.925-3.15,9.225-6.9,11.325
		c6.075,2.325,9.825,5.85,9.825,12.899v0.15c0,9.6-7.8,14.399-19.649,14.399H33.299V128.251z M55.198,149.476
		c5.1,0,8.325-1.65,8.325-5.55v-0.15c0-3.45-2.7-5.399-7.575-5.399H44.549v11.099H55.198z M58.273,170.625
		c5.1,0,8.174-1.8,8.174-5.7v-0.15c0-3.525-2.625-5.7-8.549-5.7h-13.35v11.55H58.273z"/>
	<path d="M120.818,128.251h23.999c6.675,0,11.85,1.875,15.299,5.325c2.925,2.925,4.5,7.049,4.5,12v0.15
		c0,8.475-4.575,13.799-11.25,16.274l12.824,18.749h-13.5l-11.25-16.799h-0.15h-8.925v16.799h-11.549V128.251z M144.067,153.75
		c5.625,0,8.85-3,8.85-7.425v-0.15c0-4.95-3.45-7.5-9.075-7.5h-11.475v15.074H144.067z"/>
	<path d="M206.086,154.65v-0.15c0-14.924,11.775-27.149,27.974-27.149s27.824,12.075,27.824,26.999v0.15
		c0,14.924-11.775,27.149-27.974,27.149C217.711,181.649,206.086,169.575,206.086,154.65z M249.81,154.65v-0.15
		c0-9-6.6-16.499-15.899-16.499c-9.3,0-15.75,7.35-15.75,16.349v0.15c0,9,6.6,16.5,15.899,16.5S249.81,163.65,249.81,154.65z"/>
	<path d="M298.481,128.251h12.374L321.73,163.8l11.775-35.699h9.898L355.18,163.8l10.873-35.549h12.076l-17.926,52.873h-10.049
		l-11.85-34.349l-11.85,34.349h-10.049L298.481,128.251z"/>
	<path d="M420.051,128.251h10.648l24.6,32.324v-32.324h11.4v52.498h-9.826l-25.424-33.374v33.374h-11.398V128.251z"/>
	<path d="M33.299,218.251h39.973v10.5H44.849v11.175h25.049v10.5H44.849v20.325H33.299V218.251z"/>
	<path d="M80.173,244.65v-0.15c0-14.924,11.775-27.149,27.974-27.149s27.824,12.075,27.824,26.999v0.15
		c0,14.924-11.774,27.149-27.974,27.149S80.173,259.575,80.173,244.65z M123.897,244.65v-0.15c0-9-6.6-16.499-15.899-16.499
		c-9.3,0-15.75,7.35-15.75,16.349v0.15c0,9,6.6,16.5,15.899,16.5S123.897,253.65,123.897,244.65z"/>
	<path d="M156.823,244.051l-17.549-25.799h13.5l11.025,17.024l11.099-17.024h13.125L170.473,243.9l18.299,26.85h-13.5l-11.774-18
		l-11.85,18h-13.125L156.823,244.051z"/>
	<path d="M211.85,263.625l7.275-8.1c3,3.3,5.925,5.25,9.6,5.25c4.35,0,7.05-2.625,7.05-8.7v-33.824h11.85V252.6
		c0,6.226-1.8,10.875-4.95,14.025c-3.225,3.225-7.95,4.875-13.649,4.875C220.85,271.5,215.45,267.899,211.85,263.625z"/>
	<path d="M258.574,248.25v-29.999h11.551v29.699c0,8.55,4.274,12.975,11.324,12.975c7.049,0,11.324-4.274,11.324-12.6v-30.074h11.55
		v29.624c0,15.9-8.925,23.699-23.024,23.699S258.574,263.699,258.574,248.25z"/>
	<path d="M316.1,218.251h12.449l13.801,22.199l13.799-22.199h12.449v52.499h-11.475v-34.274L342.35,258.9h-0.301l-14.625-22.2
		v34.049H316.1V218.251z"/>
	<path d="M381.199,218.251h21.449c12.525,0,20.1,7.425,20.1,18.149v0.15c0,12.149-9.449,18.449-21.225,18.449h-8.773v15.75h-11.551
		V218.251z M401.898,244.726c5.775,0,9.15-3.45,9.15-7.95v-0.15c0-5.175-3.6-7.95-9.375-7.95h-8.924v16.049H401.898z"/>
	<path d="M427.699,263.1l6.824-8.174c4.725,3.899,9.676,6.374,15.676,6.374c4.725,0,7.574-1.875,7.574-4.95V256.2
		c0-2.925-1.801-4.425-10.574-6.675c-10.574-2.7-17.4-5.625-17.4-16.049v-0.15c0-9.525,7.65-15.825,18.375-15.825
		c7.65,0,14.174,2.4,19.498,6.675l-5.998,8.7c-4.65-3.225-9.225-5.175-13.65-5.175c-4.424,0-6.75,2.025-6.75,4.575v0.15
		c0,3.45,2.25,4.575,11.324,6.899c10.65,2.775,16.65,6.6,16.65,15.75v0.149c0,10.426-7.949,16.275-19.275,16.275
		C442.023,271.5,434,268.725,427.699,263.1z"/>
	<path d="M30.974,334.651v-0.15c0-14.925,11.775-27.149,27.974-27.149s27.824,12.075,27.824,27v0.149
		c0,14.925-11.774,27.149-27.974,27.149S30.974,349.575,30.974,334.651z M74.698,334.651v-0.15c0-9-6.6-16.499-15.899-16.499
		c-9.3,0-15.75,7.35-15.75,16.35v0.149c0,9,6.6,16.499,15.899,16.499S74.698,343.65,74.698,334.651z"/>
	<path d="M89.174,308.252h12.75l13.725,36.974l13.725-36.974h12.449l-21.224,52.873h-10.2L89.174,308.252z"/>
	<path d="M149.924,308.252h39.598v10.275h-28.124v10.649h24.749v10.274h-24.749v11.024h28.499v10.274h-39.973V308.252z"/>
	<path d="M200.174,308.252h23.999c6.675,0,11.85,1.875,15.299,5.325c2.925,2.925,4.5,7.05,4.5,11.999v0.15
		c0,8.475-4.575,13.799-11.25,16.274l12.824,18.749h-13.5l-11.25-16.799h-0.15h-8.925v16.799h-11.549V308.252z M223.423,333.751
		c5.625,0,8.85-3,8.85-7.425v-0.149c0-4.95-3.45-7.5-9.075-7.5h-11.475v15.074H223.423z"/>
	<path d="M335.676,318.902h-15.975v-10.65h43.498v10.65h-15.975v41.848h-11.549V318.902z"/>
	<path d="M372.051,308.252H383.6v20.774h21.299v-20.774h11.551v52.498h-11.551v-21.074H383.6v21.074h-11.549V308.252z"/>
	<path d="M429.051,308.252h39.598v10.275h-28.123v10.649h24.748v10.274h-24.748v11.024h28.498v10.274h-39.973V308.252z"/>
	<path d="M33.299,398.252h11.549v41.998h26.174v10.5H33.299V398.252z"/>
	<path d="M97.723,397.877h10.65l22.499,52.873h-12.075l-4.8-11.774H91.798l-4.8,11.774H75.224L97.723,397.877z M109.873,428.776
		l-6.975-17.024l-6.975,17.024H109.873z"/>
	<path d="M151.798,424.051l-17.549-25.799h13.5l11.024,17.024l11.1-17.024h13.125l-17.549,25.649l18.299,26.849h-13.5
		l-11.774-17.999l-11.85,17.999h-13.125L151.798,424.051z"/>
	<path d="M204.898,430.051l-20.174-31.799h13.5l12.524,21.074l12.75-21.074h13.125l-20.174,31.574v20.924h-11.549V430.051z"/>
	<path d="M298.1,398.252h20.475c16.5,0,27.898,11.325,27.898,26.1v0.149c0,14.774-11.398,26.249-27.898,26.249H298.1V398.252z
		 M318.574,440.325c9.449,0,15.824-6.374,15.824-15.674v-0.15c0-9.3-6.375-15.824-15.824-15.824h-8.924v31.648H318.574z"/>
	<path d="M354.424,424.651v-0.15c0-14.924,11.775-27.148,27.975-27.148s27.824,12.074,27.824,26.999v0.149
		c0,14.925-11.775,27.149-27.975,27.149S354.424,439.575,354.424,424.651z M398.148,424.651v-0.15c0-9-6.6-16.499-15.9-16.499
		c-9.299,0-15.748,7.35-15.748,16.35v0.149c0,9,6.6,16.499,15.898,16.499S398.148,433.65,398.148,424.651z"/>
	<path d="M418.174,424.651v-0.15c0-14.924,11.625-27.148,27.523-27.148c9.449,0,15.15,2.55,20.625,7.199l-7.275,8.774
		c-4.051-3.375-7.65-5.324-13.725-5.324c-8.4,0-15.074,7.425-15.074,16.35v0.149c0,9.6,6.6,16.649,15.898,16.649
		c4.201,0,7.951-1.05,10.875-3.149v-7.5h-11.625v-9.975h22.801v22.799c-5.4,4.575-12.826,8.325-22.426,8.325
		C429.424,451.65,418.174,440.176,418.174,424.651z"/>
</g>
</svg>
