<?xml version="1.0" encoding="utf-8"?>
<!-- Generator: Adobe Illustrator 16.0.0, SVG Export Plug-In . SVG Version: 6.00 Build 0)  -->
<!DOCTYPE svg PUBLIC "-//W3C//DTD SVG 1.1//EN" "http://www.w3.org/Graphics/SVG/1.1/DTD/svg11.dtd">
<svg version="1.1" id="Layer_1" xmlns="http://www.w3.org/2000/svg" xmlns:xlink="http://www.w3.org/1999/xlink" x="0px" y="0px"
	 width="500px" height="500px" viewBox="0 0 500 500" enable-background="new 0 0 500 500" xml:space="preserve">
<g>
	<path d="M56.335,84.285H44.786V38.781H28.078v-9.779h44.965v9.779H56.335V84.285z"/>
	<path d="M91.062,59.493v24.792H79.513V29.002h11.549v20.943h21.559V29.002h11.55v55.283h-11.55V59.493H91.062z"/>
	<path d="M176.144,38.781h-29.335v11.626h26.949v9.778h-26.949v14.321h30.645v9.778H135.49V29.002h40.654V38.781z"/>
	<path d="M276.342,88.289l-6.545-6.237c-5.236,3.08-10.934,3.696-14.168,3.696c-7.314,0-26.563-3.157-26.563-29.104
		c0-25.947,19.249-29.104,26.563-29.104c7.315,0,26.564,3.157,26.564,29.104c0,9.085-2.387,15.399-5.775,19.711l6.006,5.698
		L276.342,88.289z M262.252,63.034l5.852,5.467c1.539-2.849,2.541-6.699,2.541-11.857c0-15.476-8.778-19.326-15.016-19.326
		c-6.236,0-15.014,3.85-15.014,19.326s8.778,19.326,15.014,19.326c1.926,0,4.158-0.385,6.237-1.463l-5.544-5.236L262.252,63.034z"/>
	<path d="M334.939,64.959c0,14.552-8.777,20.789-22.715,20.789c-5.082,0-12.627-1.232-17.555-6.699
		c-3.003-3.388-4.158-7.854-4.313-13.397v-36.65h11.781v35.88c0,7.7,4.465,11.087,9.855,11.087c7.93,0,11.164-3.85,11.164-10.548
		V29.002h11.781V64.959z"/>
	<path d="M356.885,84.285h-11.549V29.002h11.549V84.285z"/>
	<path d="M402.93,47.096c-0.924-3.311-2.695-9.547-12.242-9.547c-5.543,0-13.705,3.696-13.705,19.326
		c0,9.933,3.926,18.864,13.705,18.864c6.391,0,10.855-3.619,12.242-10.395h11.549c-2.309,12.011-10.162,20.404-24.021,20.404
		c-14.707,0-25.256-9.933-25.256-29.027c0-19.326,11.164-29.182,25.41-29.182c16.553,0,23.252,11.396,23.867,19.557H402.93z"/>
	<path d="M435.654,84.285h-11.549V29.002h11.549v22.483l21.098-22.483h14.938l-22.561,22.637l23.869,32.646h-14.861l-17.092-24.254
		l-5.391,5.544V84.285z"/>
	<path d="M32.851,121.402h26.872c13.551,0,17.016,8.47,17.016,14.167c0,7.931-4.466,10.164-6.775,11.318
		c6.775,2.541,8.546,7.931,8.546,13.397c0,4.389-1.848,8.546-4.774,11.395c-3.157,3.08-6.16,5.005-17.478,5.005H32.851V121.402z
		 M43.938,143.038H57.49c4.543,0,8.162-1.771,8.162-6.16c0-4.543-3.234-5.929-8.469-5.929H43.938V143.038z M43.938,167.138h14.167
		c5.621,0,8.854-2.464,8.854-8.084c0-4.851-4.158-6.699-8.315-6.699H43.938V167.138z"/>
	<path d="M126.448,121.402h27.95c14.706,0,17.401,10.856,17.401,15.63c0,6.083-3.08,11.318-8.546,13.166
		c4.542,2.002,7.006,3.696,7.006,14.014c0,8.084,0,10.086,2.464,11.01v1.463h-12.781c-0.77-2.618-1.232-5.467-1.232-11.165
		c0-7.545-0.462-10.471-9.008-10.471h-11.935v21.636h-11.318V121.402z M151.318,145.733c6.006,0,8.932-2.079,8.932-7.546
		c0-2.926-1.309-7.237-8.084-7.237h-14.398v14.783H151.318z"/>
	<path d="M242.605,119.939c7.315,0,26.564,3.157,26.564,29.104s-19.25,29.104-26.564,29.104c-7.314,0-26.563-3.157-26.563-29.104
		S235.291,119.939,242.605,119.939z M242.605,168.37c6.237,0,15.014-3.85,15.014-19.326s-8.777-19.326-15.014-19.326
		c-6.236,0-15.014,3.85-15.014,19.326S236.369,168.37,242.605,168.37z"/>
	<path d="M307.947,121.402h12.318c7.084,30.26,7.777,34.109,8.779,40.423h0.152c1.002-5.774,1.85-11.395,7.701-40.423h12.242
		c6.467,30.336,7.006,33.262,8.238,40.423h0.154c0.924-5.235,1.848-10.009,9.008-40.423h11.703l-15.553,55.283h-11.088
		c-5.697-27.103-6.699-32.492-8.547-43.118h-0.152c-1.695,10.625-2.619,14.629-8.547,43.118h-10.779L307.947,121.402z"/>
	<path d="M456.982,121.402h10.779v55.283h-11.549l-22.561-39.422h-0.154v39.422h-10.779v-55.283h12.166l21.943,38.498h0.154V121.402
		z"/>
	<path d="M44.4,269.085H32.851v-55.283h39.345v9.779H44.4v12.473h24.331v9.778H44.4V269.085z"/>
	<path d="M103.997,212.339c7.315,0,26.564,3.157,26.564,29.104s-19.249,29.104-26.564,29.104c-7.314,0-26.563-3.157-26.563-29.104
		S96.683,212.339,103.997,212.339z M103.997,260.77c6.237,0,15.014-3.85,15.014-19.326c0-15.476-8.777-19.326-15.014-19.326
		c-6.236,0-15.014,3.85-15.014,19.326C88.983,256.92,97.761,260.77,103.997,260.77z"/>
	<path d="M180.381,269.085h-14.09l-10.471-18.864l-11.165,18.864h-13.474l17.863-28.257l-16.862-27.026h13.782l9.855,17.863
		l10.086-17.863h13.32l-16.862,26.564L180.381,269.085z"/>
	<path d="M245.003,253.07c0,11.703-6.083,17.4-17.17,17.4c-18.402,0-18.402-11.703-18.402-22.251h10.779
		c0,8.701,0.616,12.935,6.776,12.935c6.006,0,6.468-3.85,6.468-8.084v-39.269h11.549V253.07z"/>
	<path d="M300.674,249.759c0,14.552-8.778,20.789-22.715,20.789c-5.082,0-12.627-1.231-17.555-6.698
		c-3.003-3.389-4.158-7.854-4.313-13.397v-36.65h11.781v35.88c0,7.7,4.466,11.087,9.855,11.087c7.93,0,11.164-3.85,11.164-10.548
		v-36.419h11.781V249.759z"/>
	<path d="M365.043,269.085h-10.779v-46.197h-0.152l-10.318,46.197h-11.318l-10.086-46.197h-0.154v46.197h-10.779v-55.283h16.861
		l10.01,43.58h0.154l9.855-43.58h16.707V269.085z"/>
	<path d="M387.684,269.085h-11.549v-55.283h25.254c10.703,0,17.17,6.853,17.17,17.709c0,5.005-2.771,17.632-17.631,17.632h-13.244
		V269.085z M398.387,239.596c8.623,0,8.623-6.16,8.623-8.624c0-5.39-3.002-7.623-10.164-7.623h-9.162v16.246H398.387z"/>
	<path d="M435.73,252.068c0.078,3.08,1.617,8.932,11.705,8.932c5.467,0,11.549-1.309,11.549-7.16c0-4.312-4.158-5.467-10.01-6.853
		l-5.928-1.386c-8.932-2.079-17.557-4.081-17.557-16.246c0-6.16,3.311-17.016,21.252-17.016c16.939,0,21.48,11.087,21.559,17.863
		h-11.088c-0.309-2.464-1.232-8.315-11.318-8.315c-4.389,0-9.625,1.617-9.625,6.622c0,4.312,3.543,5.235,5.852,5.774l13.475,3.311
		c7.547,1.848,14.477,4.928,14.477,14.86c0,16.631-16.939,18.094-21.791,18.094c-20.172,0-23.637-11.626-23.637-18.479H435.73z"/>
	<path d="M56.951,304.739c7.315,0,26.564,3.157,26.564,29.104s-19.249,29.104-26.564,29.104c-7.314,0-26.563-3.157-26.563-29.104
		S49.636,304.739,56.951,304.739z M56.951,353.17c6.237,0,15.015-3.85,15.015-19.326s-8.778-19.326-15.015-19.326
		c-6.236,0-15.014,3.85-15.014,19.326S50.714,353.17,56.951,353.17z"/>
	<path d="M120.938,306.202h12.012l-18.787,55.283h-11.011l-18.633-55.283h12.396l11.857,41.886h0.154L120.938,306.202z"/>
	<path d="M180.92,315.98h-29.335v11.627h26.949v9.778h-26.949v14.321h30.645v9.778h-41.963v-55.283h40.654V315.98z"/>
	<path d="M191.625,306.202h27.95c14.706,0,17.401,10.856,17.401,15.63c0,6.083-3.08,11.318-8.546,13.167
		c4.542,2.002,7.006,3.695,7.006,14.013c0,8.085,0,10.087,2.464,11.011v1.463h-12.781c-0.77-2.618-1.232-5.467-1.232-11.164
		c0-7.546-0.462-10.472-9.008-10.472h-11.935v21.636h-11.318V306.202z M216.494,330.533c6.006,0,8.932-2.079,8.932-7.546
		c0-2.926-1.309-7.237-8.084-7.237h-14.398v14.783H216.494z"/>
	<path d="M348.336,361.485h-11.549V315.98h-16.709v-9.778h44.967v9.778h-16.709V361.485z"/>
	<path d="M383.063,336.692v24.793h-11.549v-55.283h11.549v20.943h21.561v-20.943h11.549v55.283h-11.549v-24.793H383.063z"/>
	<path d="M468.145,315.98h-29.336v11.627h26.949v9.778h-26.949v14.321h30.645v9.778H427.49v-55.283h40.654V315.98z"/>
	<path d="M44.4,443.875h27.488v10.01H32.851v-55.283H44.4V443.875z"/>
	<path d="M87.751,453.885H75.586l19.711-55.283h13.32l19.48,55.283h-12.55l-3.542-11.396H91.601L87.751,453.885z M94.681,432.941
		h14.09l-6.853-21.866h-0.154L94.681,432.941z"/>
	<path d="M179.917,453.885h-14.09l-10.471-18.864l-11.165,18.864h-13.474l17.863-28.258l-16.862-27.025H145.5l9.855,17.863
		l10.086-17.863h13.32L161.9,425.165L179.917,453.885z"/>
	<path d="M212.796,453.885h-11.549v-20.866l-19.095-34.417h13.628l11.472,24.022l10.934-24.022h13.089l-18.479,34.571V453.885z"/>
	<path d="M303.445,398.602h24.408c18.633,0,22.482,15.861,22.482,26.333c0,11.857-4.697,28.95-22.943,28.95h-23.947V398.602z
		 M314.764,444.337h11.242c9.393,0,12.551-9.47,12.551-18.556c0-16.323-7.777-17.632-12.705-17.632h-11.088V444.337z"/>
	<path d="M383.139,397.139c7.314,0,26.563,3.157,26.563,29.104s-19.248,29.104-26.563,29.104s-26.564-3.157-26.564-29.104
		S375.824,397.139,383.139,397.139z M383.139,445.569c6.236,0,15.014-3.85,15.014-19.326c0-15.476-8.777-19.326-15.014-19.326
		s-15.014,3.851-15.014,19.326C368.125,441.72,376.902,445.569,383.139,445.569z"/>
	<path d="M444.893,424.087h23.1v29.798h-7.701l-1.154-6.93c-2.926,3.388-7.16,8.393-17.246,8.393c-13.32,0-25.41-9.548-25.41-28.95
		c0-15.015,8.316-29.259,26.873-29.259h0.152c16.939,0,23.639,11.011,24.254,18.633h-11.549c0-2.155-3.928-9.085-12.088-9.085
		c-8.238,0-15.861,5.697-15.861,19.864c0,15.092,8.238,19.019,16.092,19.019c2.541,0,11.01-1.001,13.396-12.165h-12.857V424.087z"/>
</g>
</svg>
