<?xml version="1.0" encoding="utf-8"?>
<!-- Generator: Adobe Illustrator 16.0.0, SVG Export Plug-In . SVG Version: 6.00 Build 0)  -->
<!DOCTYPE svg PUBLIC "-//W3C//DTD SVG 1.1//EN" "http://www.w3.org/Graphics/SVG/1.1/DTD/svg11.dtd">
<svg version="1.1" id="Layer_1" xmlns="http://www.w3.org/2000/svg" xmlns:xlink="http://www.w3.org/1999/xlink" x="0px" y="0px"
	 width="500px" height="500px" viewBox="0 0 500 500" enable-background="new 0 0 500 500" xml:space="preserve">
<g>
	<path d="M56.719,85.003H45.018v-46.1H28.091v-9.906h45.554v9.906H56.719V85.003z"/>
	<path d="M91.896,59.886v25.117H80.195V28.997h11.701v21.217h21.841V28.997h11.7v56.006h-11.7V59.886H91.896z"/>
	<path d="M178.085,38.903h-29.719v11.778h27.301v9.906h-27.301v14.509h31.045v9.906H136.9V28.997h41.186V38.903z"/>
	<path d="M273.793,89.059l-6.631-6.318c-5.304,3.12-11.076,3.744-14.352,3.744c-7.411,0-26.912-3.198-26.912-29.485
		s19.501-29.485,26.912-29.485c7.41,0,26.91,3.198,26.91,29.485c0,9.204-2.418,15.601-5.85,19.969l6.084,5.772L273.793,89.059z
		 M259.518,63.474l5.929,5.538c1.56-2.886,2.574-6.786,2.574-12.012c0-15.679-8.892-19.579-15.21-19.579
		c-6.319,0-15.211,3.9-15.211,19.579s8.893,19.579,15.211,19.579c1.949,0,4.211-0.39,6.318-1.482l-5.617-5.304L259.518,63.474z"/>
	<path d="M333.15,65.424c0,14.743-8.893,21.061-23.01,21.061c-5.148,0-12.793-1.248-17.785-6.786
		c-3.042-3.432-4.213-7.957-4.368-13.573V28.997h11.935v36.349c0,7.8,4.523,11.232,9.984,11.232c8.033,0,11.311-3.9,11.311-10.687
		V28.997h11.934V65.424z"/>
	<path d="M355.379,85.003h-11.701V28.997h11.701V85.003z"/>
	<path d="M402.023,47.328c-0.936-3.354-2.73-9.672-12.402-9.672c-5.617,0-13.885,3.744-13.885,19.579
		c0,10.063,3.979,19.111,13.885,19.111c6.475,0,10.998-3.666,12.402-10.53h11.699c-2.34,12.168-10.295,20.67-24.336,20.67
		c-14.898,0-25.586-10.062-25.586-29.407c0-19.579,11.311-29.563,25.742-29.563c16.77,0,23.557,11.544,24.18,19.813H402.023z"/>
	<path d="M435.17,85.003h-11.699V28.997h11.699v22.776l21.373-22.776h15.133L448.82,51.93l24.182,33.073h-15.055l-17.316-24.571
		l-5.461,5.616V85.003z"/>
	<path d="M32.928,122.597h27.223c13.729,0,17.238,8.581,17.238,14.353c0,8.035-4.524,10.297-6.864,11.467
		c6.864,2.574,8.659,8.034,8.659,13.572c0,4.446-1.872,8.658-4.836,11.544c-3.198,3.12-6.24,5.07-17.707,5.07H32.928V122.597z
		 M44.16,144.516h13.729c4.602,0,8.268-1.794,8.268-6.24c0-4.602-3.276-6.006-8.58-6.006H44.16V144.516z M44.16,168.931h14.353
		c5.694,0,8.97-2.496,8.97-8.19c0-4.914-4.212-6.786-8.424-6.786H44.16V168.931z"/>
	<path d="M126.292,122.597h28.315c14.899,0,17.629,10.999,17.629,15.835c0,6.162-3.12,11.466-8.659,13.338
		c4.603,2.028,7.099,3.744,7.099,14.197c0,8.19,0,10.218,2.496,11.154v1.482h-12.949c-0.78-2.652-1.248-5.538-1.248-11.311
		c0-7.644-0.468-10.608-9.126-10.608h-12.09v21.919h-11.466V122.597z M151.487,147.246c6.084,0,9.048-2.106,9.048-7.645
		c0-2.964-1.326-7.332-8.19-7.332h-14.586v14.977H151.487z"/>
	<path d="M242.513,121.115c7.41,0,26.911,3.198,26.911,29.485c0,26.287-19.5,29.485-26.911,29.485s-26.911-3.198-26.911-29.485
		C215.602,124.313,235.103,121.115,242.513,121.115z M242.513,170.179c6.318,0,15.21-3.9,15.21-19.579
		c0-15.679-8.892-19.579-15.21-19.579s-15.211,3.9-15.211,19.579C227.302,166.278,236.195,170.179,242.513,170.179z"/>
	<path d="M307.252,122.597h12.48c7.176,30.655,7.879,34.556,8.893,40.952h0.156c1.014-5.85,1.871-11.544,7.801-40.952h12.402
		c6.553,30.733,7.098,33.697,8.346,40.952h0.156c0.936-5.304,1.871-10.14,9.127-40.952h11.855l-15.756,56.006H351.48
		c-5.773-27.457-6.787-32.917-8.658-43.682h-0.156c-1.717,10.764-2.652,14.821-8.658,43.682h-10.92L307.252,122.597z"/>
	<path d="M456.779,122.597h10.92v56.006h-11.701l-22.854-39.938h-0.156v39.938h-10.922v-56.006h12.326l22.23,39.002h0.156V122.597z"
		/>
	<path d="M44.628,272.203H32.928v-56.006h39.859v9.906H44.628v12.636h24.648v9.907H44.628V272.203z"/>
	<path d="M105,214.715c7.41,0,26.911,3.198,26.911,29.485s-19.5,29.485-26.911,29.485c-7.411,0-26.911-3.198-26.911-29.485
		S97.589,214.715,105,214.715z M105,263.779c6.318,0,15.21-3.9,15.21-19.579s-8.893-19.579-15.21-19.579
		c-6.318,0-15.21,3.9-15.21,19.579S98.682,263.779,105,263.779z"/>
	<path d="M182.378,272.203h-14.275l-10.608-19.111l-11.31,19.111h-13.651l18.097-28.627l-17.083-27.379h13.962l9.984,18.097
		l10.219-18.097h13.494l-17.083,26.911L182.378,272.203z"/>
	<path d="M242.046,255.979c0,11.856-6.162,17.629-17.395,17.629c-18.643,0-18.643-11.856-18.643-22.543h10.921
		c0,8.814,0.624,13.104,6.864,13.104c6.084,0,6.552-3.9,6.552-8.19v-39.781h11.701V255.979z"/>
	<path d="M298.44,252.625c0,14.742-8.892,21.061-23.011,21.061c-5.148,0-12.793-1.248-17.785-6.787
		c-3.041-3.432-4.211-7.956-4.367-13.572v-37.129h11.934v36.35c0,7.8,4.524,11.232,9.984,11.232c8.035,0,11.311-3.9,11.311-10.688
		v-36.895h11.935V252.625z"/>
	<path d="M363.646,272.203h-10.92v-46.802h-0.156l-10.451,46.802h-11.467l-10.219-46.802h-0.156v46.802h-10.92v-56.006h17.082
		l10.141,44.149h0.156l9.984-44.149h16.926V272.203z"/>
	<path d="M386.578,272.203h-11.701v-56.006h25.584c10.844,0,17.396,6.942,17.396,17.94c0,5.07-2.809,17.862-17.863,17.862h-13.416
		V272.203z M397.42,242.328c8.736,0,8.736-6.24,8.736-8.736c0-5.46-3.043-7.723-10.297-7.723h-9.281v16.459H397.42z"/>
	<path d="M435.248,254.965c0.078,3.119,1.639,9.048,11.857,9.048c5.537,0,11.699-1.326,11.699-7.254
		c0-4.368-4.211-5.538-10.139-6.942l-6.008-1.404c-9.047-2.106-17.783-4.134-17.783-16.458c0-6.24,3.354-17.239,21.527-17.239
		c17.162,0,21.764,11.232,21.842,18.097h-11.232c-0.313-2.496-1.248-8.424-11.467-8.424c-4.445,0-9.75,1.638-9.75,6.708
		c0,4.368,3.588,5.304,5.928,5.85l13.65,3.354c7.645,1.872,14.664,4.992,14.664,15.055c0,16.849-17.16,18.331-22.074,18.331
		c-20.438,0-23.947-11.779-23.947-18.721H435.248z"/>
	<path d="M57.343,308.314c7.41,0,26.911,3.198,26.911,29.485s-19.5,29.485-26.911,29.485c-7.411,0-26.911-3.198-26.911-29.485
		S49.932,308.314,57.343,308.314z M57.343,357.379c6.318,0,15.21-3.9,15.21-19.579s-8.893-19.579-15.21-19.579
		c-6.318,0-15.21,3.9-15.21,19.579S51.024,357.379,57.343,357.379z"/>
	<path d="M122.162,309.797h12.168l-19.033,56.006h-11.154l-18.877-56.006h12.559l12.012,42.434h0.156L122.162,309.797z"/>
	<path d="M182.924,319.703h-29.719v11.778h27.301v9.906h-27.301v14.509h31.045v9.906h-42.512v-56.006h41.186V319.703z"/>
	<path d="M193.764,309.797h28.315c14.898,0,17.629,10.998,17.629,15.834c0,6.162-3.12,11.467-8.658,13.339
		c4.602,2.028,7.098,3.744,7.098,14.196c0,8.19,0,10.219,2.496,11.154v1.482h-12.949c-0.78-2.652-1.248-5.538-1.248-11.311
		c0-7.645-0.468-10.608-9.126-10.608H205.23v21.919h-11.466V309.797z M218.958,334.445c6.084,0,9.048-2.105,9.048-7.645
		c0-2.964-1.326-7.332-8.19-7.332H205.23v14.977H218.958z"/>
	<path d="M346.721,365.803h-11.699v-46.1h-16.928v-9.906h45.555v9.906h-16.928V365.803z"/>
	<path d="M381.898,340.686v25.117h-11.699v-56.006h11.699v21.217h21.842v-21.217h11.701v56.006H403.74v-25.117H381.898z"/>
	<path d="M468.088,319.703h-29.719v11.778h27.301v9.906h-27.301v14.509h31.045v9.906h-42.512v-56.006h41.186V319.703z"/>
	<path d="M44.628,449.263h27.847v10.141H32.928v-56.006h11.701V449.263z"/>
	<path d="M88.542,459.403H76.217l19.969-56.006h13.495l19.734,56.006H116.7l-3.588-11.544H92.441L88.542,459.403z M95.562,438.187
		h14.274l-6.942-22.153h-0.156L95.562,438.187z"/>
	<path d="M176.681,459.403h-43.759v-9.906l28.939-36.193h-28.159v-9.906h42.824v9.204l-29.329,36.896h29.485V459.403z"/>
	<path d="M210.844,459.403h-11.701v-21.139l-19.345-34.867h13.807l11.623,24.337l11.076-24.337h13.261l-18.721,35.023V459.403z"/>
	<path d="M301.244,403.397h24.727c18.877,0,22.777,16.068,22.777,26.677c0,12.013-4.758,29.329-23.244,29.329h-24.26V403.397z
		 M312.711,449.73H324.1c9.516,0,12.715-9.594,12.715-18.798c0-16.537-7.879-17.863-12.871-17.863h-11.232V449.73z"/>
	<path d="M381.975,401.915c7.41,0,26.91,3.198,26.91,29.485s-19.5,29.485-26.91,29.485s-26.912-3.198-26.912-29.485
		S374.564,401.915,381.975,401.915z M381.975,450.979c6.318,0,15.211-3.899,15.211-19.578s-8.893-19.579-15.211-19.579
		s-15.211,3.9-15.211,19.579S375.656,450.979,381.975,450.979z"/>
	<path d="M444.529,429.216h23.402v30.188h-7.801l-1.17-7.021c-2.965,3.433-7.254,8.503-17.473,8.503
		c-13.494,0-25.742-9.673-25.742-29.329c0-15.211,8.426-29.642,27.225-29.642h0.156c17.16,0,23.945,11.154,24.57,18.877h-11.701
		c0-2.185-3.979-9.204-12.246-9.204c-8.346,0-16.068,5.771-16.068,20.124c0,15.289,8.346,19.267,16.303,19.267
		c2.574,0,11.154-1.014,13.572-12.324h-13.027V429.216z"/>
</g>
</svg>
