<?xml version="1.0" encoding="utf-8"?>
<!-- Generator: Adobe Illustrator 16.0.0, SVG Export Plug-In . SVG Version: 6.00 Build 0)  -->
<!DOCTYPE svg PUBLIC "-//W3C//DTD SVG 1.1//EN" "http://www.w3.org/Graphics/SVG/1.1/DTD/svg11.dtd">
<svg version="1.1" id="Layer_1" xmlns="http://www.w3.org/2000/svg" xmlns:xlink="http://www.w3.org/1999/xlink" x="0px" y="0px"
	 width="500px" height="500px" viewBox="0 0 500 500" enable-background="new 0 0 500 500" xml:space="preserve">
<g>
	<path d="M45.867,76.522V35.78H34.656v13.867h-6.719V28.983H71.96v20.664h-6.719V35.78H54.07v40.742h7.07v6.797H38.914v-6.797
		H45.867z"/>
	<path d="M81.179,76.522V35.78h-6.172v-6.797h20.781v6.797h-6.406v15.547h23.633V35.78h-6.367v-6.797h20.781v6.797h-6.211v40.742
		h6.211v6.797h-20.781v-6.797h6.367V58.124H89.382v18.398h6.406v6.797H75.007v-6.797H81.179z"/>
	<path d="M138.718,76.522V35.78h-7.031v-6.797h45.156V45.35h-6.719v-9.57h-23.203v16.172h20.195v6.797h-20.195v17.773h23.203v-9.883
		h6.719v16.68h-45.156v-6.797H138.718z"/>
	<path d="M257.063,83.905l1.602,0.703c4.244,1.744,7.512,2.617,9.805,2.617c0.729,0,1.68-0.117,2.852-0.352l-2.891,6.719
		c-0.781,0.13-1.498,0.195-2.148,0.195c-2.578,0-6.133-1.098-10.664-3.291c-3.906-1.88-6.98-2.82-9.219-2.82
		c-2.318,0-4.18,0.644-5.586,1.932l-2.305-3.32c1.536-1.667,3.541-2.761,6.016-3.281c-4.375-1.38-8.08-3.6-11.113-6.66
		c-3.034-3.06-5.15-6.354-6.348-9.883c-1.198-3.528-1.797-7.037-1.797-10.527c0-7.682,2.539-14.238,7.617-19.668
		s11.836-8.145,20.274-8.145c8.438,0,15.26,2.644,20.469,7.93c5.207,5.287,7.813,11.953,7.813,20c0,4.271-0.82,8.34-2.461,12.207
		s-4.453,7.338-8.438,10.41C266.555,81.744,262.063,83.488,257.063,83.905z M234.21,55.936c0,5.964,1.744,10.964,5.234,15
		c3.489,4.037,8.072,6.055,13.75,6.055c5.625,0,10.246-2.063,13.867-6.191c3.619-4.127,5.43-9.056,5.43-14.785
		c0-5.781-1.844-10.67-5.527-14.668c-3.686-3.997-8.314-5.996-13.887-5.996c-5.547,0-10.079,1.967-13.594,5.898
		C235.968,45.181,234.21,50.077,234.21,55.936z"/>
	<path d="M299.016,35.78v27.188c0,4.219,0.215,7.136,0.645,8.75c0.43,1.615,1.504,2.988,3.223,4.121s3.932,1.699,6.641,1.699
		c3.229,0,5.703-0.488,7.422-1.465s2.857-2.291,3.418-3.945c0.559-1.653,0.84-4.576,0.84-8.77V35.78h-6.289v-6.797h21.25v6.797
		h-6.797v28.398c0,3.828-0.164,6.608-0.488,8.34c-0.326,1.732-1.205,3.542-2.637,5.43c-1.434,1.889-3.451,3.398-6.055,4.531
		c-2.605,1.133-5.77,1.699-9.492,1.699c-4.115,0-7.539-0.527-10.273-1.582s-4.793-2.467-6.172-4.238
		c-1.381-1.771-2.299-3.658-2.754-5.664c-0.457-2.005-0.684-5.117-0.684-9.336V35.78h-6.719v-6.797h21.367v6.797H299.016z"/>
	<path d="M345.578,76.522V35.78h-5.859v-6.797h19.922v6.797h-5.859v40.742h5.859v6.797h-19.922v-6.797H345.578z"/>
	<path d="M412.102,61.209l7.07,3.945c-1.59,6.042-4.799,10.723-9.629,14.043c-4.832,3.32-10.385,4.98-16.66,4.98
		c-8.23,0-14.832-2.669-19.805-8.008c-4.975-5.338-7.461-11.939-7.461-19.805c0-8.619,2.5-15.481,7.5-20.586
		c5-5.104,11.523-7.656,19.57-7.656c7.109,0,13.086,1.94,17.93,5.82v-4.961h7.031v17.461h-7.031
		c-1.563-3.541-3.973-6.282-7.227-8.223c-3.256-1.939-6.68-2.91-10.273-2.91c-5.418,0-9.863,1.953-13.34,5.859
		s-5.215,8.842-5.215,14.805c0,6.12,1.861,11.12,5.586,15c3.723,3.881,8.137,5.82,13.242,5.82c4.191,0,8.008-1.348,11.445-4.043
		S410.695,66.209,412.102,61.209z"/>
	<path d="M431.242,76.522V35.78h-6.797v-6.797h21.992v6.797h-6.992v40.742h6.25v6.797h-21.25v-6.797H431.242z M439.719,54.627
		l17.422-18.848h-6.211v-6.797h21.289v6.797h-5.781l-16.729,18.848l17.197,21.895h5.82v6.797h-22.07v-6.797h5.859L439.719,54.627z"
		/>
	<path d="M35.476,172.522V131.78h-6.68v-6.797h18.086c4.974,0,8.704,0.3,11.191,0.898c2.486,0.6,4.681,2.116,6.582,4.551
		c1.9,2.436,2.852,5.293,2.852,8.574c0,2.526-0.566,4.805-1.699,6.836s-2.793,3.568-4.98,4.609c3.021,1.042,5.345,2.768,6.973,5.176
		c1.627,2.409,2.441,5.163,2.441,8.262c0,2.683-0.605,5.117-1.816,7.305s-2.819,3.881-4.824,5.078
		c-2.006,1.198-4.199,2.006-6.582,2.422c-2.383,0.417-5.632,0.625-9.746,0.625H28.796v-6.797H35.476z M43.679,147.6h5.117
		c3.906,0,6.634-0.684,8.184-2.051c1.549-1.367,2.324-3.379,2.324-6.035c0-5.156-3.503-7.734-10.508-7.734h-5.117V147.6z
		 M43.679,172.522h3.086c4.036,0,6.992-0.201,8.867-0.605c1.875-0.403,3.404-1.354,4.59-2.852c1.185-1.497,1.777-3.418,1.777-5.762
		c0-2.135-0.566-3.926-1.699-5.371s-2.592-2.408-4.375-2.891c-1.784-0.481-4.304-0.723-7.559-0.723h-4.688V172.522z"/>
	<path d="M121.253,172.522V131.78h-7.461v-6.797h22.07c4.609,0,8.268,0.358,10.977,1.074c2.708,0.717,4.947,2.227,6.719,4.531
		c1.771,2.305,2.656,5.175,2.656,8.612c0,7.187-3.733,11.705-11.2,13.553l9.599,19.768h6.641v6.797h-11.769l-12.372-25.391h-7.656
		v18.594h6.953v6.797h-22.617v-6.797H121.253z M129.457,147.131h6.406c3.099,0,5.384-0.201,6.855-0.605
		c1.471-0.403,2.676-1.224,3.613-2.461c0.938-1.236,1.406-2.896,1.406-4.98c0-1.771-0.476-3.268-1.426-4.492
		c-0.951-1.224-2.123-1.998-3.516-2.324c-1.394-0.325-3.522-0.488-6.387-0.488h-6.953V147.131z"/>
	<path d="M202.617,151.897c0-7.891,2.578-14.492,7.734-19.805s11.875-7.969,20.156-7.969c8.359,0,15.169,2.656,20.43,7.969
		c5.26,5.313,7.891,11.967,7.891,19.961c0,8.151-2.676,14.877-8.028,20.176c-5.352,5.3-12.155,7.949-20.41,7.949
		c-5.261,0-10.098-1.256-14.512-3.77c-4.414-2.513-7.729-6.016-9.941-10.508C203.723,161.409,202.617,156.741,202.617,151.897z
		 M211.562,151.936c0,5.964,1.744,10.964,5.234,15c3.489,4.037,8.072,6.055,13.75,6.055c5.625,0,10.247-2.063,13.867-6.191
		c3.619-4.127,5.43-9.056,5.43-14.785c0-5.781-1.843-10.67-5.527-14.668c-3.686-3.997-8.314-5.996-13.887-5.996
		c-5.547,0-10.078,1.967-13.594,5.898C213.32,141.181,211.562,146.077,211.562,151.936z"/>
	<path d="M316.691,179.866l-13.844-48.086h-6.523v-6.797h20.781v6.797h-6.516l10.285,35.547l9.883-35.547h-6.465v-6.797h24.961
		v6.797h-6.387l9.922,35.547l10.09-35.547h-6.477v-6.797h20v6.797h-6.406l-13.57,48.086h-7.777l-12.227-42.969l-12.148,42.969
		H316.691z"/>
	<path d="M423.625,172.522V131.78h-7.773v-6.797h18.547l23.836,42.236V131.78h-7.695v-6.797h22.305v6.797h-8.008v48.086h-8.42
		l-26.072-46.377v39.033h7.773v6.797h-22.266v-6.797H423.625z"/>
	<path d="M35.32,268.521V227.78h-6.875v-6.797h42.148v16.367h-6.719v-9.57H43.523v16.094h17.539v6.797H43.523v17.851h6.953v6.797
		H28.445v-6.797H35.32z"/>
	<path d="M75.125,247.897c0-7.891,2.578-14.492,7.734-19.805s11.875-7.969,20.156-7.969c8.359,0,15.169,2.656,20.43,7.969
		c5.26,5.313,7.891,11.967,7.891,19.961c0,8.152-2.676,14.876-8.027,20.175c-5.352,5.301-12.155,7.949-20.41,7.949
		c-5.261,0-10.098-1.256-14.512-3.77c-4.414-2.512-7.729-6.016-9.941-10.508C76.231,257.408,75.125,252.74,75.125,247.897z
		 M84.07,247.936c0,5.964,1.744,10.964,5.234,15c3.489,4.037,8.072,6.055,13.75,6.055c5.625,0,10.247-2.063,13.867-6.191
		c3.619-4.127,5.43-9.055,5.43-14.785c0-5.781-1.843-10.67-5.527-14.668c-3.686-3.997-8.314-5.996-13.887-5.996
		c-5.547,0-10.078,1.967-13.594,5.898C85.828,237.181,84.07,242.077,84.07,247.936z"/>
	<path d="M137.351,268.521l13.84-20.388l-13.795-20.354h-6.998v-6.797h21.836v6.797h-6.133l9.486,13.877l9.42-13.877h-6.289v-6.797
		h20.859v6.797h-6.78l-13.301,19.595l14.456,21.147h7.07v6.797h-22.305v-6.797h6.292l-9.927-14.646l-9.942,14.646h6.585v6.797
		h-21.641v-6.797H137.351z"/>
	<path d="M232.687,291.451v-7.617c2.031,0.521,3.984,0.781,5.859,0.781c2.344,0,3.899-0.645,4.668-1.934
		c0.768-1.289,1.152-3.873,1.152-7.754V227.78h-6.953v-6.797h22.11v6.797h-6.953v47.539c0,4.088-0.307,7.193-0.918,9.316
		c-0.613,2.123-2.084,3.939-4.415,5.449c-2.331,1.51-5.098,2.266-8.301,2.266C236.723,292.35,234.64,292.051,232.687,291.451z"/>
	<path d="M276.516,227.78v27.187c0,4.219,0.215,7.137,0.645,8.75c0.43,1.615,1.504,2.988,3.223,4.121s3.932,1.699,6.641,1.699
		c3.229,0,5.703-0.488,7.422-1.465s2.857-2.291,3.418-3.945c0.559-1.652,0.84-4.576,0.84-8.77V227.78h-6.289v-6.797h21.25v6.797
		h-6.797v28.398c0,3.828-0.164,6.609-0.488,8.34c-0.326,1.732-1.205,3.543-2.637,5.43c-1.434,1.889-3.451,3.398-6.055,4.531
		c-2.605,1.133-5.77,1.699-9.492,1.699c-4.115,0-7.539-0.527-10.273-1.582s-4.793-2.467-6.172-4.238
		c-1.381-1.77-2.299-3.658-2.754-5.664c-0.457-2.004-0.684-5.117-0.684-9.336V227.78h-6.719v-6.797h21.367v6.797H276.516z"/>
	<path d="M323.156,268.521V227.78h-6.523v-6.797h18.594l14.297,37.246l14.453-37.246h18.789v6.797h-6.563v40.742h6.563v6.797
		h-20.469v-6.797h6.484V227.78l-18.75,48.085h-1.602l-18.555-48.085v40.742h5.977v6.797h-19.219v-6.797H323.156z"/>
	<path d="M393.117,268.521V227.78h-6.836v-6.797h19.414c5.703,0,9.973,0.404,12.813,1.211c2.838,0.808,5.215,2.637,7.129,5.488
		s2.871,6.218,2.871,10.098c0,3.1-0.633,5.879-1.895,8.34c-1.264,2.461-2.826,4.277-4.688,5.449
		c-1.863,1.172-3.959,1.961-6.289,2.363c-2.332,0.404-5.854,0.605-10.566,0.605h-3.75v13.984h7.031v6.797h-22.07v-6.797H393.117z
		 M401.32,247.975h4.688c5.338,0,9.035-0.762,11.094-2.285c2.057-1.523,3.086-4.212,3.086-8.066c0-2.447-0.547-4.479-1.641-6.094
		c-1.094-1.614-2.449-2.643-4.063-3.086c-1.615-0.442-4.311-0.664-8.086-0.664h-5.078V247.975z"/>
	<path d="M433.313,275.318v-19.727h6.797v4.805c3.254,5.912,7.512,8.867,12.773,8.867c2.682,0,4.947-0.82,6.797-2.461
		c1.848-1.641,2.773-3.789,2.773-6.445c0-2.578-0.756-4.434-2.266-5.566c-1.512-1.133-4.363-2.258-8.555-3.379
		c-4.871-1.301-8.477-2.532-10.82-3.691c-2.344-1.158-4.213-2.813-5.605-4.961c-1.395-2.148-2.09-4.693-2.09-7.637
		c0-4.557,1.516-8.196,4.551-10.918c3.033-2.721,6.842-4.082,11.426-4.082c4.348,0,8.385,1.406,12.109,4.219v-3.633h6.641v16.484
		h-6.641v-3.789c-2.787-4.192-6.629-6.289-11.523-6.289c-2.969,0-5.248,0.684-6.836,2.051c-1.59,1.367-2.383,3.002-2.383,4.902
		c0,1.459,0.402,2.741,1.211,3.848c0.807,1.107,1.836,1.921,3.086,2.441c1.25,0.521,3.711,1.249,7.383,2.184
		c4.793,1.247,8.27,2.411,10.432,3.491c2.16,1.082,4.021,2.885,5.584,5.413c1.563,2.526,2.344,5.431,2.344,8.713
		c0,4.637-1.635,8.467-4.902,11.488c-3.27,3.021-7.313,4.531-12.129,4.531c-4.949,0-9.402-1.783-13.359-5.352v4.492H433.313z"/>
	<path d="M30.984,343.896c0-7.891,2.578-14.492,7.734-19.805s11.875-7.969,20.156-7.969c8.359,0,15.169,2.656,20.43,7.969
		c5.26,5.313,7.891,11.967,7.891,19.961c0,8.151-2.676,14.877-8.027,20.176c-5.352,5.3-12.155,7.949-20.41,7.949
		c-5.261,0-10.098-1.256-14.512-3.77c-4.414-2.513-7.729-6.016-9.941-10.508C32.09,353.408,30.984,348.74,30.984,343.896z
		 M39.929,343.936c0,5.964,1.744,10.964,5.234,15c3.489,4.037,8.072,6.055,13.75,6.055c5.625,0,10.247-2.063,13.867-6.191
		c3.619-4.127,5.43-9.056,5.43-14.785c0-5.781-1.843-10.67-5.527-14.668c-3.686-3.997-8.314-5.996-13.887-5.996
		c-5.547,0-10.078,1.967-13.594,5.898C41.687,333.181,39.929,338.076,39.929,343.936z"/>
	<path d="M110.376,371.865l-18.255-48.086h-6.723v-6.797h21.445v6.797h-6.279l13.837,36.484l13.467-36.484h-6.338v-6.797h20.859
		v6.797h-6.597l-17.878,48.086H110.376z"/>
	<path d="M151.414,364.521v-40.742h-7.031v-6.797h45.156v16.367h-6.719v-9.57h-23.203v16.172h20.195v6.797h-20.195v17.773h23.203
		v-9.883h6.719v16.68h-45.156v-6.797H151.414z"/>
	<path d="M200.671,364.521v-40.742h-7.461v-6.797h22.07c4.609,0,8.268,0.358,10.977,1.074c2.708,0.717,4.947,2.227,6.719,4.531
		c1.771,2.305,2.656,5.175,2.656,8.612c0,7.187-3.733,11.704-11.2,13.554l9.599,19.768h6.641v6.797h-11.769l-12.372-25.391h-7.656
		v18.594h6.953v6.797H193.21v-6.797H200.671z M208.875,339.131h6.406c3.099,0,5.384-0.201,6.855-0.605
		c1.471-0.403,2.676-1.224,3.613-2.461c0.938-1.236,1.406-2.896,1.406-4.98c0-1.771-0.476-3.268-1.426-4.492
		c-0.951-1.224-2.123-1.998-3.516-2.324c-1.394-0.325-3.522-0.488-6.387-0.488h-6.953V339.131z"/>
	<path d="M339.367,364.521v-40.742h-11.211v13.867h-6.719v-20.664h44.023v20.664h-6.719v-13.867H347.57v40.742h7.07v6.797h-22.227
		v-6.797H339.367z"/>
	<path d="M374.68,364.521v-40.742h-6.172v-6.797h20.781v6.797h-6.406v15.547h23.633v-15.547h-6.367v-6.797h20.781v6.797h-6.211
		v40.742h6.211v6.797h-20.781v-6.797h6.367v-18.398h-23.633v18.398h6.406v6.797h-20.781v-6.797H374.68z"/>
	<path d="M432.219,364.521v-40.742h-7.031v-6.797h45.156v16.367h-6.719v-9.57h-23.203v16.172h20.195v6.797h-20.195v17.773h23.203
		v-9.883h6.719v16.68h-45.156v-6.797H432.219z"/>
	<path d="M35.164,460.521v-40.742h-7.031v-6.797h22.227v6.797h-6.68v40.742H60.32v-18.477h7.656v25.273H28.132v-6.797H35.164z"/>
	<path d="M106.591,448.217H87.016l-4.157,12.305h6.602v6.797H68.054v-6.797h6.575l14.835-41.406h-6.566v-6.133h27.773v6.133h-6.792
		l15.206,41.406h6.079v6.797h-21.289v-6.797h6.758L106.591,448.217z M104.543,441.85l-7.231-22.734H96.57l-7.527,22.734H104.543z"/>
	<path d="M132.625,460.521l13.84-20.389l-13.795-20.354h-6.998v-6.797h21.836v6.797h-6.133l9.486,13.877l9.42-13.877h-6.289v-6.797
		h20.859v6.797h-6.78l-13.301,19.595l14.456,21.147h7.07v6.797h-22.305v-6.797h6.292l-9.927-14.646l-9.942,14.646H147v6.797h-21.641
		v-6.797H132.625z"/>
	<path d="M198.992,460.521v-17.93l-16.172-22.813h-6.641v-6.797h22.344v6.797h-6.845l12.002,16.796l10.961-16.796h-6.821v-6.797
		h21.641v6.797h-7.188l-15.078,22.813v17.93h7.422v6.797h-22.93v-6.797H198.992z"/>
	<path d="M294.797,460.521v-40.742h-7.383v-6.797h21.016c5.807,0,10.279,0.3,13.418,0.898c3.137,0.6,6.178,1.953,9.121,4.063
		c2.941,2.109,5.293,5.007,7.051,8.691c1.758,3.686,2.637,7.885,2.637,12.598c0,5.365-0.848,10.026-2.539,13.984
		c-1.693,3.959-3.914,6.914-6.66,8.867c-2.748,1.953-6.016,3.314-9.805,4.082c-3.789,0.769-8.613,1.152-14.473,1.152h-19.766v-6.797
		H294.797z M303,460.521h4.297c4.791,0,8.586-0.299,11.387-0.898c2.799-0.599,5.162-1.621,7.09-3.066
		c1.926-1.445,3.488-3.626,4.688-6.543c1.197-2.916,1.797-6.354,1.797-10.313c0-4.713-0.984-8.711-2.949-11.992
		c-1.967-3.281-4.48-5.423-7.539-6.426c-3.061-1.002-7.768-1.504-14.121-1.504H303V460.521z"/>
	<path d="M348.703,439.896c0-7.891,2.578-14.492,7.734-19.805s11.875-7.969,20.156-7.969c8.359,0,15.168,2.656,20.43,7.969
		c5.26,5.313,7.891,11.967,7.891,19.961c0,8.151-2.676,14.877-8.027,20.176c-5.352,5.3-12.156,7.949-20.41,7.949
		c-5.262,0-10.098-1.256-14.512-3.77c-4.414-2.513-7.729-6.016-9.941-10.508C349.809,449.408,348.703,444.74,348.703,439.896z
		 M357.648,439.936c0,5.964,1.744,10.964,5.234,15c3.488,4.037,8.072,6.055,13.75,6.055c5.625,0,10.246-2.063,13.867-6.191
		c3.619-4.127,5.43-9.056,5.43-14.785c0-5.781-1.844-10.67-5.527-14.668c-3.686-3.997-8.314-5.996-13.887-5.996
		c-5.547,0-10.078,1.967-13.594,5.898C359.406,429.181,357.648,434.076,357.648,439.936z"/>
	<path d="M449.406,441.107h19.766c0.025,0.703,0.039,1.328,0.039,1.875c0,7.631-2.5,13.737-7.5,18.32
		c-5,4.584-11.602,6.875-19.805,6.875c-9.818,0-17.137-2.793-21.953-8.379c-4.818-5.586-7.227-12.193-7.227-19.824
		c0-7.994,2.461-14.635,7.383-19.922c4.922-5.286,11.602-7.93,20.039-7.93c7.578,0,13.932,2.305,19.063,6.914v-6.055h6.914v17.852
		h-6.914c-1.303-2.994-3.613-5.657-6.934-7.988c-3.32-2.33-7.117-3.496-11.387-3.496c-5.938,0-10.625,2.006-14.063,6.016
		c-3.438,4.011-5.156,8.842-5.156,14.492c0,6.484,1.959,11.628,5.879,15.43c3.918,3.803,8.639,5.703,14.16,5.703
		c4.322,0,8.176-1.204,11.563-3.613c3.385-2.408,5.363-5.566,5.938-9.473h-9.805V441.107z"/>
</g>
</svg>
