<?xml version="1.0" encoding="utf-8"?>
<!-- Generator: Adobe Illustrator 16.0.0, SVG Export Plug-In . SVG Version: 6.00 Build 0)  -->
<!DOCTYPE svg PUBLIC "-//W3C//DTD SVG 1.1//EN" "http://www.w3.org/Graphics/SVG/1.1/DTD/svg11.dtd">
<svg version="1.1" id="Layer_1" xmlns="http://www.w3.org/2000/svg" xmlns:xlink="http://www.w3.org/1999/xlink" x="0px" y="0px"
	 width="587.971px" height="500px" viewBox="0 0 587.971 500" enable-background="new 0 0 587.971 500" xml:space="preserve">
<g>
	<path d="M13.121,135.17c0-38.031,8.54-68.776,25.621-92.236C55.823,19.48,81.102,7.749,114.581,7.749
		c31.199,0,55.907,11.049,74.13,33.136c18.218,22.093,27.329,53.521,27.329,94.286c0,38.72-8.711,69.577-26.133,92.578
		c-17.422,23.005-42.531,34.503-75.326,34.503c-31.205,0-55.913-10.985-74.13-32.966C22.227,207.31,13.121,175.94,13.121,135.17z
		 M62.313,134.829c0,63.087,17.422,94.627,52.267,94.627c34.615,0,51.925-31.429,51.925-94.286
		c0-63.081-17.311-94.627-51.925-94.627C79.736,40.543,62.313,71.972,62.313,134.829z M82.469,490.449l377.26-475.186h48.391
		L133.497,490.449H82.469z M375.916,370.543c0-40.994,9.164-72.423,27.5-94.286c18.328-21.863,42.871-32.795,73.617-32.795
		c33.932,0,59.322,11.786,76.18,35.357c16.852,23.571,25.279,54.146,25.279,91.724c0,40.993-9.111,72.48-27.328,94.456
		c-18.225,21.98-42.82,32.966-73.789,32.966c-31.205,0-55.912-10.985-74.131-32.966
		C385.021,443.023,375.916,411.536,375.916,370.543z M425.107,370.543c0,63.086,17.305,94.627,51.926,94.627
		c34.844,0,52.268-31.429,52.268-94.286c0-63.081-17.311-94.627-51.926-94.627C442.529,276.257,425.107,307.686,425.107,370.543z"/>
</g>
</svg>
