<?xml version="1.0" encoding="utf-8"?>
<!-- Generator: Adobe Illustrator 16.0.0, SVG Export Plug-In . SVG Version: 6.00 Build 0)  -->
<!DOCTYPE svg PUBLIC "-//W3C//DTD SVG 1.1//EN" "http://www.w3.org/Graphics/SVG/1.1/DTD/svg11.dtd">
<svg version="1.1" id="Layer_1" xmlns="http://www.w3.org/2000/svg" xmlns:xlink="http://www.w3.org/1999/xlink" x="0px" y="0px"
	 width="500px" height="500px" viewBox="0 0 500 500" enable-background="new 0 0 500 500" xml:space="preserve">
<g>
	<path d="M371.414,239.021h97.359v58.075h-50.217c-12.297,43.956-28.012,77.888-47.143,101.801l24.938,32.112h72.422v59.44H360.482
		l-31.428-41.677c-41.225,32.795-83.354,49.192-126.398,49.192c-49.192,0-89.844-15.255-121.956-45.776
		c-32.112-30.516-48.168-68.664-48.168-114.44c0-63.312,36.094-110.795,108.292-142.454c-21.639-27.553-32.454-55.224-32.454-83.012
		c0-30.516,11.556-55.565,34.674-75.155c23.112-19.584,50.047-29.378,80.792-29.378c31.882,0,58.812,9.736,80.792,29.208
		c21.975,19.472,32.965,43.673,32.965,72.593c0,25.279-7.744,46.006-23.229,62.174c-15.49,16.173-40.994,31.546-76.522,46.118
		L334.52,348.68C351.824,318.394,364.123,281.841,371.414,239.021z M177.036,239.021c-49.192,21.864-73.789,53.751-73.789,95.652
		c0,27.788,10.36,52.097,31.087,72.935c20.721,20.839,45.888,31.258,75.497,31.258c30.286,0,57.845-12.64,82.671-37.919
		L177.036,239.021z M203.682,172.748c27.329-11.385,45.947-22.087,55.854-32.112c9.908-10.019,14.861-21.063,14.861-33.137
		c0-11.156-4.217-21.233-12.641-30.233c-8.428-8.994-20.614-13.494-36.553-13.494c-14.348,0-26.304,4.329-35.869,12.981
		c-9.565,8.658-14.348,19.931-14.348,33.82c0,12.298,8.199,30.975,24.597,56.025L203.682,172.748z"/>
</g>
</svg>
