<?xml version="1.0" encoding="utf-8"?>
<!-- Generator: Adobe Illustrator 16.0.0, SVG Export Plug-In . SVG Version: 6.00 Build 0)  -->
<!DOCTYPE svg PUBLIC "-//W3C//DTD SVG 1.1//EN" "http://www.w3.org/Graphics/SVG/1.1/DTD/svg11.dtd">
<svg version="1.1" id="Layer_1" xmlns="http://www.w3.org/2000/svg" xmlns:xlink="http://www.w3.org/1999/xlink" x="0px" y="0px"
	 width="241.488px" height="656.57px" viewBox="0 0 241.488 656.57" enable-background="new 0 0 241.488 656.57"
	 xml:space="preserve">
<g>
	<path d="M214.366,6.724v52.95c-24.597,12.981-46.859,33.307-66.785,60.978c-19.932,27.671-33.255,56.767-39.97,87.282
		c-6.72,30.521-10.077,69.465-10.077,116.833c0,53.292,4.324,95.77,12.981,127.422c8.652,31.658,22.376,58.929,41.164,81.816
		c18.789,22.889,39.681,41.276,62.687,55.171v53.292c-47.372-19.36-90.245-56.195-128.618-110.513
		C47.37,477.639,28.187,408.35,28.187,324.083c0-74.925,16.792-140.516,50.388-196.77C112.165,71.064,157.429,30.866,214.366,6.724z
		"/>
</g>
</svg>
