<?xml version="1.0" encoding="utf-8"?>
<!-- Generator: Adobe Illustrator 16.0.0, SVG Export Plug-In . SVG Version: 6.00 Build 0)  -->
<!DOCTYPE svg PUBLIC "-//W3C//DTD SVG 1.1//EN" "http://www.w3.org/Graphics/SVG/1.1/DTD/svg11.dtd">
<svg version="1.1" id="Layer_1" xmlns="http://www.w3.org/2000/svg" xmlns:xlink="http://www.w3.org/1999/xlink" x="0px" y="0px"
	 width="500px" height="500px" viewBox="0 0 500 500" enable-background="new 0 0 500 500" xml:space="preserve">
<g>
	<path d="M394.303,320.667l-4.441,169.782H86.167c0-32.816,5.855-64.148,17.572-94.008c11.716-29.854,28.21-55.95,49.486-78.283
		c21.271-22.333,53.772-49.438,97.499-81.326c27.596-20.251,46.294-37.145,56.105-50.687c9.806-13.536,14.711-29.299,14.711-47.276
		c0-22.072-6.95-40.108-20.839-54.104c-13.894-13.995-33.024-20.993-57.391-20.993c-28.471,0-49.31,7.975-62.515,23.913
		c-13.211,15.944-19.814,42.136-19.814,78.571c0,9.111,0.225,17.764,0.684,25.963H98.465c-0.229-8.199-0.342-14.914-0.342-20.155
		c0-51.466,12.181-91.724,36.553-120.761C159.042,22.267,194.8,7.749,241.943,7.749c47.596,0,84.09,12.416,109.487,37.236
		c25.392,24.826,38.091,55.341,38.091,91.553c0,30.292-8.316,56.142-24.938,77.546c-16.627,21.41-48.396,48.626-95.311,81.646
		c-45.552,32.341-75.443,58.646-89.673,78.912c-14.236,20.273-22.493,38.261-24.767,53.976h179.006l2.733-107.95H394.303z"/>
</g>
</svg>
