<?xml version="1.0" encoding="utf-8"?>
<!-- Generator: Adobe Illustrator 16.0.0, SVG Export Plug-In . SVG Version: 6.00 Build 0)  -->
<!DOCTYPE svg PUBLIC "-//W3C//DTD SVG 1.1//EN" "http://www.w3.org/Graphics/SVG/1.1/DTD/svg11.dtd">
<svg version="1.1" id="Layer_1" xmlns="http://www.w3.org/2000/svg" xmlns:xlink="http://www.w3.org/1999/xlink" x="0px" y="0px"
	 width="500px" height="500px" viewBox="0 0 500 500" enable-background="new 0 0 500 500" xml:space="preserve">
<g>
	<path d="M201.291,271.816v-58.758c33.249,0,57.445-1.933,72.593-5.808c15.143-3.87,26.929-11.556,35.357-23.059
		c8.423-11.497,12.64-26.016,12.64-43.556c0-21.18-6.208-39.398-18.618-54.658c-12.416-15.255-30.804-22.888-55.171-22.888
		c-26.875,0-46.459,8.028-58.758,24.084c-12.298,16.056-19.018,40.027-20.155,71.91h-65.931c0-54.658,13.494-93.543,40.481-116.661
		c26.988-23.112,60.065-34.674,99.239-34.674c47.597,0,83.466,11.732,107.608,35.186c24.137,23.459,36.211,53.409,36.211,89.845
		c0,26.875-6.891,49.534-20.668,67.981c-13.781,18.447-29.325,31.546-46.63,39.286c59.211,17.54,88.819,55.342,88.819,113.416
		c0,48.285-16.227,84.438-48.68,108.463c-32.453,24.03-70.543,36.04-114.27,36.04c-55.801,0-97.077-14.914-123.835-44.752
		c-26.764-29.832-40.14-71.056-40.14-123.664h62.857c1.137,36.44,11.103,64.282,29.891,83.524
		c18.789,19.248,43.78,28.867,74.984,28.867c28.466,0,50.841-7.911,67.127-23.742c16.279-15.827,24.425-35.812,24.425-59.954
		c0-25.279-9.564-46.059-28.695-62.344c-19.13-16.28-49.651-24.426-91.553-24.426C214.955,271.475,208.577,271.592,201.291,271.816z
		"/>
</g>
</svg>
