<?xml version="1.0" encoding="utf-8"?>
<!-- Generator: Adobe Illustrator 16.0.0, SVG Export Plug-In . SVG Version: 6.00 Build 0)  -->
<!DOCTYPE svg PUBLIC "-//W3C//DTD SVG 1.1//EN" "http://www.w3.org/Graphics/SVG/1.1/DTD/svg11.dtd">
<svg version="1.1" id="Layer_1" xmlns="http://www.w3.org/2000/svg" xmlns:xlink="http://www.w3.org/1999/xlink" x="0px" y="0px"
	 width="500px" height="500px" viewBox="0 0 500 500" enable-background="new 0 0 500 500" xml:space="preserve">
<g>
	<path d="M394.986,155.667h-57.733c-3.416-27.1-12.928-49.193-28.524-66.273c-15.603-17.081-34.562-25.621-56.879-25.621
		c-30.292,0-53.863,15.773-70.714,47.313c-16.856,31.546-25.621,74.76-26.304,129.643c32.336-35.069,69.572-52.608,111.708-52.608
		c36.211,0,67.239,13.382,93.09,40.14c25.845,26.763,38.773,62.574,38.773,107.438c0,44.639-12.758,82.841-38.261,114.611
		c-25.51,31.771-60.354,47.655-104.534,47.655c-49.422,0-88.991-20.326-118.711-60.979
		c-29.721-40.651-44.581-101.059-44.581-181.227c0-76.292,14.348-136.699,43.043-181.226C164.055,30.012,205.39,7.749,259.365,7.749
		c42.36,0,75.208,13.953,98.556,41.848C381.263,77.496,393.619,112.854,394.986,155.667z M158.247,312.468
		c10.249,86.087,41.677,129.131,94.286,129.131c26.87,0,47.825-9.907,62.856-29.721s22.547-43.497,22.547-71.056
		c0-27.1-7.121-48.963-21.351-65.59c-14.236-16.622-33.426-24.938-57.563-24.938C225.086,250.294,191.496,271.021,158.247,312.468z"
		/>
</g>
</svg>
