<?xml version="1.0" encoding="utf-8"?>
<!-- Generator: Adobe Illustrator 16.0.0, SVG Export Plug-In . SVG Version: 6.00 Build 0)  -->
<!DOCTYPE svg PUBLIC "-//W3C//DTD SVG 1.1//EN" "http://www.w3.org/Graphics/SVG/1.1/DTD/svg11.dtd">
<svg version="1.1" id="Layer_1" xmlns="http://www.w3.org/2000/svg" xmlns:xlink="http://www.w3.org/1999/xlink" x="0px" y="0px"
	 width="500px" height="500px" viewBox="0 0 500 500" enable-background="new 0 0 500 500" xml:space="preserve">
<g>
	<path d="M165.763,242.096c-46.459-27.1-69.689-63.652-69.689-109.658c0-40.311,14.46-71.168,43.385-92.578
		c28.92-21.404,63.652-32.111,104.192-32.111c47.826,0,85.627,11.161,113.416,33.478c27.783,22.322,41.678,52.726,41.678,91.211
		c0,45.552-23.23,82.105-69.689,109.658c56.249,22.093,84.378,61.267,84.378,117.516c0,41.906-14.636,75.443-43.897,100.605
		c-29.267,25.167-68.723,37.748-118.369,37.748c-55.8,0-98.043-12.581-126.739-37.748c-28.695-25.162-43.043-58.699-43.043-100.605
		C81.384,303.362,109.508,264.188,165.763,242.096z M150.39,356.878c0,25.056,8.652,45.605,25.963,61.661
		c17.305,16.057,40.994,24.084,71.056,24.084c28.466,0,51.754-7.739,69.86-23.229c18.105-15.484,27.158-36.436,27.158-62.857
		c0-25.279-8.486-45.888-25.45-61.832c-16.969-15.938-41.506-23.913-73.618-23.913c-27.788,0-50.559,7.633-68.323,22.889
		C159.272,308.94,150.39,330.008,150.39,356.878z M160.297,138.586c0,25.055,7.969,44.127,23.913,57.221
		c15.938,13.099,37.689,19.643,65.248,19.643c23.454,0,43.497-6.32,60.124-18.959c16.622-12.64,24.938-31.941,24.938-57.904
		c0-49.646-29.721-74.472-89.162-74.472c-25.738,0-46.348,6.378-61.832,19.13C168.037,96.002,160.297,114.449,160.297,138.586z"/>
</g>
</svg>
