<?xml version="1.0" encoding="utf-8"?>
<!-- Generator: Adobe Illustrator 16.0.0, SVG Export Plug-In . SVG Version: 6.00 Build 0)  -->
<!DOCTYPE svg PUBLIC "-//W3C//DTD SVG 1.1//EN" "http://www.w3.org/Graphics/SVG/1.1/DTD/svg11.dtd">
<svg version="1.1" id="Layer_1" xmlns="http://www.w3.org/2000/svg" xmlns:xlink="http://www.w3.org/1999/xlink" x="0px" y="0px"
	 width="500px" height="659.57px" viewBox="0 0 500 659.57" enable-background="new 0 0 500 659.57" xml:space="preserve">
<g>
	<path d="M344.427,353.462c-16.397,0.459-30.062,4.559-40.993,12.298c-10.932,7.745-18.618,19.077-23.06,33.991
		c-4.44,14.919-6.661,41.394-6.661,79.425c0,48.963-2.732,83.065-8.199,102.313c-5.466,19.242-15.943,33.591-31.428,43.044
		c-15.49,9.447-38.261,14.177-68.323,14.177h-19.13v-50.559h10.59c22.771,0,38.261-3.817,46.459-11.444
		c8.199-7.633,12.298-25.792,12.298-54.487c0-50.783,1.137-86.312,3.416-106.584c2.274-20.268,8.541-37.519,18.789-51.755
		c10.249-14.23,26.646-26.475,49.193-36.724c-23.913-9.105-41.795-23.913-53.634-44.409
		c-11.845-20.497-17.764-53.858-17.764-100.093c0-42.814-0.683-69.972-2.05-81.475c-1.366-11.497-5.754-20.208-13.152-26.133
		c-7.403-5.919-21.922-8.882-43.556-8.882h-10.59V15.264h19.13c22.317,0,39.852,2.167,52.609,6.491
		c12.751,4.329,23.854,12.469,33.307,24.425c9.448,11.957,15.484,26.764,18.105,44.41c2.615,17.652,3.929,45.723,3.929,84.208
		c0,38.261,2.162,64.794,6.49,79.596c4.324,14.807,12.069,26.134,23.23,33.991c11.155,7.856,24.82,11.902,40.993,12.127V353.462z"/>
</g>
</svg>
