<?xml version="1.0" encoding="utf-8"?>
<!-- Generator: Adobe Illustrator 16.0.0, SVG Export Plug-In . SVG Version: 6.00 Build 0)  -->
<!DOCTYPE svg PUBLIC "-//W3C//DTD SVG 1.1//EN" "http://www.w3.org/Graphics/SVG/1.1/DTD/svg11.dtd">
<svg version="1.1" id="Layer_1" xmlns="http://www.w3.org/2000/svg" xmlns:xlink="http://www.w3.org/1999/xlink" x="0px" y="0px"
	 width="500px" height="500px" viewBox="0 0 500 500" enable-background="new 0 0 500 500" xml:space="preserve">
<g>
	<path d="M249.971,362.344h-35.187l-8.199-150.993c10.67,2.733,21.34,4.099,32.016,4.099c29.748,0,51.205-7.516,64.378-22.546
		c13.168-15.031,19.755-32.907,19.755-53.633c0-24.137-7.12-42.873-21.351-56.196c-14.236-13.323-32.283-19.984-54.146-19.984
		c-26.646,0-46.406,7.633-59.27,22.888c-12.869,15.26-19.301,34.279-19.301,57.049c0,4.783,0.112,10.366,0.341,16.739h-63.882
		c-0.229-6.149-0.341-11.385-0.341-15.714c0-46.684,13.835-81.075,41.506-103.167c27.671-22.087,60.637-33.136,98.897-33.136
		c46,0,81.646,12.356,106.925,37.065c25.279,24.714,37.919,57.22,37.919,97.531c0,38.944-11.983,70.031-35.949,93.261
		c-23.967,23.23-52.188,34.844-84.667,34.844c-2.498,0-6.133-0.111-10.905-0.341L249.971,362.344z M189.847,490.449v-84.037h84.037
		v84.037H189.847z"/>
</g>
</svg>
