<?xml version="1.0" encoding="utf-8"?>
<!-- Generator: Adobe Illustrator 16.0.0, SVG Export Plug-In . SVG Version: 6.00 Build 0)  -->
<!DOCTYPE svg PUBLIC "-//W3C//DTD SVG 1.1//EN" "http://www.w3.org/Graphics/SVG/1.1/DTD/svg11.dtd">
<svg version="1.1" id="Layer_1" xmlns="http://www.w3.org/2000/svg" xmlns:xlink="http://www.w3.org/1999/xlink" x="0px" y="0px"
	 width="500px" height="500px" viewBox="0 0 500 500" enable-background="new 0 0 500 500" xml:space="preserve">
<g>
	<path d="M434.955,262.935c-35.305,28.925-68.666,43.385-100.094,43.385c-13.895,0-27.447-2.034-40.652-6.106
		c-13.211-4.073-35.186-13.237-65.931-27.5c-28.925-13.35-50.9-20.027-65.932-20.027c-30.745,0-64.683,15.832-101.801,47.484
		v-57.732c35.752-28.92,70.484-43.385,104.192-43.385c21.18,0,54.541,10.708,100.092,32.112
		c30.971,14.348,54.199,21.521,69.689,21.521c30.287,0,63.766-15.826,100.436-47.49V262.935z"/>
</g>
</svg>
